<svg xmlns="http://www.w3.org/2000/svg" xmlns:xlink="http://www.w3.org/1999/xlink" xmlns:inkscape="http://www.inkscape.org/namespaces/inkscape" version="1.1" width="630" height="810" viewBox="0 0 630 810">
<defs>
<clipPath id="clip_1">
<path transform="matrix(1,0,0,-1,0,810)" d="M0 810H630V0H0Z"/>
</clipPath>
<path id="font_2_266" d="M.31399537-.011993408C.2579956-.011993408 .2041626-.0044962565 .15249634 .010498047 .10083008 .025502524 .059331258 .045003255 .027999878 .069000247L.08299255 .19099427C.11233012 .16966248 .14766439 .15216065 .18899536 .13848877 .2303365 .124827068 .27200318 .117996219 .31399537 .117996219 .34599815 .117996219 .37183128 .12132772 .39149476 .12799073 .41116844 .1346639 .42566935 .14349874 .43499757 .15449524 .44433595 .16550191 .44900514 .17833455 .44900514 .19299317 .44900514 .21165975 .44167076 .22649129 .42700196 .2374878 .41233317 .24849446 .39283244 .25749717 .36849977 .26449586 .34416709 .27149455 .31766764 .27816264 .28900147 .28450013 .2603353 .29083763 .23150127 .2985026 .20249939 .30749513 .17349752 .3164978 .14683025 .3284963 .12249756 .3434906 .09816488 .3584951 .07883199 .37816368 .0644989 .40249635 .050165815 .426829 .042999269 .45733134 .042999269 .4940033 .042999269 .53400167 .05366516 .5705007 .07499695 .60350039 .096328739 .63650009 .12882996 .6628316 .17250061 .6824951 .21617127 .70216879 .27100627 .7120056 .33700563 .7120056 .3810018 .7120056 .4244995 .7066701 .46749879 .69599917 .51049807 .6853282 .5479991 .6699931 .58000186 .6499939L.52900698 .5279999C.4976654 .54599508 .46532694 .559494 .43199159 .5684967 .39866639 .5774994 .3666687 .58200076 .33599855 .58200076 .30399577 .58200076 .2783254 .5785014 .25898744 .5715027 .23965962 .56450399 .22549439 .55500289 .2164917 .54299929 .20749919 .53099569 .20300293 .5176646 .20300293 .503006 .20300293 .4843394 .21033223 .46933494 .22499085 .45799256 .23965962 .44666038 .25899253 .43782554 .2829895 .43148805 .30699668 .42516075 .33366395 .41882835 .36299134 .41249085 .3923289 .40616355 .42133079 .3983307 .44999696 .3889923 .47866313 .3796641 .5049947 .36783348 .5289917 .35350038 .55299887 .33916728 .5724996 .31983439 .5874939 .2955017 .60249838 .27116905 .6100006 .2410024 .6100006 .20500183 .6100006 .16566468 .59916689 .12966411 .5774994 .09700012 .5558319 .06433614 .522995 .03800456 .47898866 .018005372 .43499247-.0019938152 .37999473-.011993408 .31399537-.011993408Z"/>
<path id="font_2_72" d="M.08299255 0V.69999697H.6119995V.5700073H.2440033V.13000489H.625V0H.08299255M.23199463 .29200746V.41900636H.56900027V.29200746H.23199463Z"/>
<path id="font_2_45" d="M.41799928-.011993408C.3640035-.011993408 .31383769-.0031636556 .26750184 .01449585 .22116597 .032165529 .18099468 .057332357 .14698792 .08999634 .11299133 .122670497 .086491908 .16100566 .067489627 .20500183 .048497518 .248998 .039001466 .29733277 .039001466 .3500061 .039001466 .40266929 .048497518 .45099894 .067489627 .49499513 .086491908 .53900149 .11315918 .5773366 .14749146 .6100006 .18183391 .6426646 .22216797 .6678314 .26849366 .6855011 .3148295 .7031708 .3650004 .7120056 .41900636 .7120056 .47966514 .7120056 .5346629 .7015025 .58399966 .6804962 .63333639 .6595001 .67466738 .6286672 .70799258 .58799746L.6029968 .4920044C.5796611 .51933798 .5531616 .5400035 .52349856 .55400088 .49383546 .56799826 .46166993 .57499697 .42700196 .57499697 .39433799 .57499697 .3643392 .5694987 .33700563 .5585022 .30967204 .5475057 .28600059 .53200277 .2659912 .5119934 .24599202 .49199424 .23049419 .46832786 .21949768 .44099427 .20850118 .41366069 .20300293 .3833313 .20300293 .3500061 .20300293 .31667076 .20850118 .28633628 .21949768 .2590027 .23049419 .23166912 .24599202 .20800273 .2659912 .18800354 .28600059 .16800435 .30967204 .15250142 .33700563 .14149475 .3643392 .13049825 .39433799 .125 .42700196 .125 .46166993 .125 .49383546 .13216655 .52349856 .14649964 .5531616 .16083272 .5796611 .18166606 .6029968 .20899964L.70799258 .11300659C.67466738 .07233683 .63333639 .04133606 .58399966 .020004273 .5346629-.0013275147 .47932945-.011993408 .41799928-.011993408Z"/>
<path id="font_2_292" d="M.3939972-.011993408C.29466249-.011993408 .21699524 .015670777 .16099549 .070999149 .10499573 .12633769 .07699585 .20567322 .07699585 .30900575V.69999697H.2400055V.31300355C.2400055 .2470042 .25367228 .19916789 .28100587 .16949463 .30833946 .13983155 .3463389 .125 .39500428 .125 .44433085 .125 .48266093 .13983155 .5099945 .16949463 .53732809 .19916789 .5509949 .2470042 .5509949 .31300355V.69999697H.7100067V.30900575C.7100067 .20567322 .68200686 .12633769 .6260071 .070999149 .5700073 .015670777 .49267069-.011993408 .3939972-.011993408Z"/>
<path id="font_2_254" d="M.08299255 0V.69999697H.38200379C.4793345 .69999697 .55499777 .6774953 .60899356 .63249209 .66299948 .58749899 .69000247 .52567037 .69000247 .44700624 .69000247 .3943329 .6776683 .34916178 .6529999 .31149293 .6283315 .27383424 .5933278 .24516805 .5479889 .22549439 .5026601 .20583089 .44866435 .19599915 .3860016 .19599915H.17199707L.2460022 .26600648V0H.08299255M.52900698 0 .35299684 .2539978H.5269928L.7030029 0H.52900698M.2460022 .2480011 .17199707 .32499696H.3769989C.42633567 .32499696 .46366883 .33566285 .4889984 .35699464 .514328 .37833659 .5269928 .40834046 .5269928 .44700624 .5269928 .485672 .514328 .5155029 .4889984 .536499 .46366883 .5574951 .42633567 .56799319 .3769989 .56799319H.17199707L.2460022 .6450043V.2480011Z"/>
<path id="font_2_122" d="M.56300356 0V.69999697H.7250061V0H.56300356M.08299255 0V.69999697H.2460022V0H.08299255M.23300171 .28700257V.42399598H.57499697V.28700257H.23300171Z"/>
<path id="font_2_1" d="M-.009002686 0 .30200196 .69999697H.46200563L.776001 0H.6060028L.34899903 .6179962H.41400147L.15699768 0H-.009002686M.147995 .1499939 .18899536 .272995H.5509949L.5930023 .1499939H.147995Z"/>
<path id="font_2_167" d="M.08299255 0V.69999697H.2460022V.13200379H.5950012V0H.08299255Z"/>
<path id="font_2_279" d="M.22799683 0V.56799319H.0039978029V.69999697H.6139984V.56799319H.3899994V0H.22799683Z"/>
<path id="font_3_266" d="M.30900575-.0079956059C.25567118-.0079956059 .20466614 .00016784668 .1559906 .016494751 .10732523 .03283183 .068995159 .054000856 .041000368 .08000183L.07800293 .15800476C.10466512 .13466899 .1386617 .11533102 .17999268 .099990848 .22133382 .08466085 .26433818 .07699585 .30900575 .07699585 .3496653 .07699585 .3826599 .08165995 .4079895 .09098816 .43332926 .10032654 .45199586 .11316427 .46398927 .12950135 .47599284 .14583843 .48199464 .16433716 .48199464 .18499756 .48199464 .20899455 .47416178 .22832744 .4584961 .24299622 .4428304 .257665 .4224955 .26950074 .39749146 .27850343 .37249757 .2875061 .34500123 .29533897 .31500245 .30200196 .28500367 .30866496 .25483705 .3164978 .22450257 .3255005 .19416809 .33450318 .16649883 .3460032 .14149475 .3600006 .116500858 .37399803 .096333827 .39282737 .08099365 .41648866 .06566366 .44016014 .057998659 .47066245 .057998659 .5079956 .057998659 .54399618 .067499797 .5771637 .086502078 .60749819 .10550436 .63783267 .13483684 .66216537 .17449951 .6804962 .21416219 .6988271 .2646637 .70799258 .32600404 .70799258 .3666636 .70799258 .40699259 .70265707 .44699098 .6919861 .4869995 .68132528 .5216675 .6659953 .5509949 .6459961L.5180054 .56599429C.4880066 .58599349 .4563395 .6004944 .42300416 .6094971 .3896688 .61849978 .35733543 .6230011 .32600404 .6230011 .28666688 .6230011 .2543284 .6180013 .22898865 .6080017 .20365906 .59800216 .18516033 .58466598 .17349243 .56799319 .16183472 .55133059 .15600586 .532664 .15600586 .5119934 .15600586 .4873352 .1638387 .46767173 .1795044 .45300294 .19517009 .43833415 .21549988 .42666627 .24049378 .41799928 .26549784 .40933229 .29299928 .40149943 .32299806 .39450074 .35299684 .38750205 .38316346 .3796692 .41349793 .3710022 .4438324 .3623352 .47149659 .35099793 .49649049 .33699037 .52149459 .32299296 .54166159 .3043264 .5569916 .2809906 .5723317 .257665 .58000186 .22766622 .58000186 .19099427 .58000186 .15566509 .5703328 .12283325 .5509949 .09249878 .53166708 .062164308 .5018361 .037831624 .46150209 .019500733 .421168 .0011698405 .3703359-.0079956059 .30900575-.0079956059Z"/>
<path id="font_3_122" d="M.6069946 0V.69999697H.70700076V0H.6069946M.10499573 0V.69999697H.20500183V0H.10499573M.19500733 .31199647V.39900209H.6159973V.31199647H.19500733Z"/>
<path id="font_3_134" d="M.10499573 0V.69999697H.20500183V0H.10499573Z"/>
<path id="font_3_72" d="M.10499573 0V.69999697H.598999V.6130066H.20500183V.087005618H.6130066V0H.10499573M.19599915 .31300355V.397995H.55599978V.31300355H.19599915Z"/>
<path id="font_3_167" d="M.10499573 0V.69999697H.20500183V.087005618H.58399966V0H.10499573Z"/>
<path id="font_3_56" d="M.10499573 0V.69999697H.3999939C.47466026 .69999697 .54049178 .6853282 .5974884 .6559906 .65449526 .6266632 .6988322 .58566287 .73049929 .5329895 .7621663 .48032633 .7779999 .41933189 .7779999 .3500061 .7779999 .28067018 .7621663 .21966553 .73049929 .16699219 .6988322 .11432902 .65449526 .07332865 .5974884 .04399109 .54049178 .014663696 .47466026 0 .3999939 0H.10499573M.20500183 .087005618H.3939972C.45200096 .087005618 .50216677 .09800211 .5444946 .11999512 .5868327 .14199829 .6196645 .17283122 .6429901 .2124939 .66632589 .25216676 .6779938 .29800416 .6779938 .3500061 .6779938 .40266929 .66632589 .44866435 .6429901 .48799134 .6196645 .5273285 .5868327 .55799868 .5444946 .58000186 .50216677 .602005 .45200096 .6130066 .3939972 .6130066H.20500183V.087005618Z"/>
<path id="font_3_2219" d="M0 0Z"/>
<path id="font_3_2321" d="M.6170044-.011001587 .22399903 .38000489C.20066326 .40333048 .18232727 .42415873 .16899109 .44248963 .15566509 .4608307 .14600118 .4786682 .13999939 .4960022 .1339976 .5133362 .1309967 .5310008 .1309967 .548996 .1309967 .58032736 .13882955 .6078288 .15449524 .63150027 .17016094 .6551717 .19215901 .6735026 .2204895 .6864929 .24883016 .6994934 .28200279 .70599368 .32000733 .70599368 .35533653 .70599368 .3860016 .7001597 .41200257 .6884918 .43800355 .6768341 .45817057 .6601715 .47250367 .638504 .48683677 .61683657 .4940033 .5906677 .4940033 .55999758 .4940033 .5333354 .48750306 .508667 .47450257 .48599244 .46150209 .46332804 .44066874 .44132997 .41200257 .41999818 .3833364 .39866639 .34467063 .3756663 .29600526 .35099793 .2559967 .33033753 .22466024 .3111725 .20199585 .2935028 .17933147 .27583314 .16316732 .2583313 .15350342 .24099732 .14383953 .22366333 .13900757 .20466614 .13900757 .18400574 .13900757 .16200257 .14550273 .14250183 .15849304 .12550354 .17149353 .10850525 .18982442 .095336917 .21348572 .085998538 .23715718 .07667033 .2646637 .072006229 .29600526 .072006229 .34067283 .072006229 .3810018 .08167013 .4169922 .100997928 .45299278 .1203359 .4831594 .14933777 .50749209 .18800354 .5318349 .22666931 .5496724 .27466838 .56100466 .33200074L.6380005 .30700685C.6246643 .23966472 .60182699 .18265789 .5694885 .13598633 .5371602 .08932495 .4973297 .053660077 .44999696 .0289917 .40266419 .004333496 .34932963-.0079956059 .2899933-.0079956059 .24266052-.0079956059 .20065816-.0003306071 .1639862 .01499939 .12732442 .030329386 .09832764 .051661176 .07699585 .07899475 .055664064 .10632833 .04499817 .1379954 .04499817 .17399597 .04499817 .20532735 .051996869 .23399353 .06599426 .2599945 .08000183 .28599549 .10233561 .31116233 .1329956 .335495 .16366577 .35982768 .20399983 .3849945 .2539978 .41099549 .29466758 .43232728 .32650248 .45099388 .34950257 .46699525 .37250266 .4829966 .38883464 .49816386 .39849855 .51249697 .40816245 .52683 .41299439 .54233297 .41299439 .55900576 .41299439 .5816701 .40499369 .6001689 .3889923 .61450198 .3730011 .628835 .3500061 .6360016 .32000733 .6360016 .28866578 .6360016 .26416017 .62816879 .24649048 .61250308 .22883098 .59683737 .22000122 .57633468 .22000122 .5509949 .22000122 .5383301 .22216797 .52616378 .22650147 .51449587 .23083496 .50282797 .23883565 .48982749 .25050355 .47549439 .26217143 .4611613 .27900187 .44299827 .30099488 .42100526L.67100527 .052993776 .6170044-.011001587Z"/>
<path id="font_3_45" d="M.41799928-.0079956059C.3646647-.0079956059 .31549583 .00083414718 .27049256 .018493653 .22549947 .03616333 .1865031 .06116231 .15350342 .0934906 .120503749 .12582906 .094670619 .16366577 .07600403 .20700073 .057337446 .2503357 .04800415 .29800416 .04800415 .3500061 .04800415 .4019979 .057337446 .44966126 .07600403 .49299623 .094670619 .5363312 .120666507 .5741628 .1539917 .6064911 .18732707 .6388295 .22649639 .66382858 .27149964 .68148806 .3165029 .6991577 .36567179 .70799258 .41900636 .70799258 .4730021 .70799258 .5228322 .6988271 .5684967 .6804962 .6141612 .66216537 .6529948 .6349996 .68499758 .598999L.6199951 .5359955C.59333297 .5640004 .56333419 .5848338 .5299988 .5984955 .49666343 .61216738 .46099855 .6190033 .42300416 .6190033 .383667 .6190033 .34716288 .6123352 .31349183 .598999 .27983094 .58566287 .2506663 .5669963 .22599793 .54299929 .20132955 .51900228 .18215943 .49050395 .16848755 .45750428 .15482585 .4245046 .147995 .38867188 .147995 .3500061 .147995 .31134034 .15482585 .27550254 .16848755 .24249268 .18215943 .209493 .20132955 .18099468 .22599793 .15699768 .2506663 .13300069 .27983094 .11433411 .31349183 .100997928 .34716288 .08766174 .383667 .08099365 .42300416 .08099365 .46099855 .08099365 .49666343 .0878245 .5299988 .101486209 .56333419 .11515808 .59333297 .1363271 .6199951 .16499329L.68499758 .102005008C.6529948 .06600443 .6141612 .038670858 .5684967 .020004273 .5228322 .0013376871 .4726664-.0079956059 .41799928-.0079956059Z"/>
<path id="font_3_204" d="M.42100526-.0079956059C.36767069-.0079956059 .3181661 .0010019938 .27249146 .018997193 .22682698 .037002565 .18732707 .06216939 .1539917 .09449768 .120666507 .12683614 .094670619 .16466777 .07600403 .20799256 .057337446 .2513275 .04800415 .29866538 .04800415 .3500061 .04800415 .40133668 .057337446 .44866944 .07600403 .4920044 .094670619 .53533938 .120666507 .57317098 .1539917 .60549929 .18732707 .6378377 .22665914 .6630046 .27198792 .68099978 .31732688 .69899496 .3669993 .70799258 .42100526 .70799258 .4743398 .70799258 .52367147 .6991577 .56900027 .68148806 .61432906 .66382858 .6536611 .6388295 .68699648 .6064911 .72033187 .5741628 .746165 .53616335 .76449587 .49249269 .7828369 .44883219 .79200747 .40133668 .79200747 .3500061 .79200747 .29800416 .7828369 .2503357 .76449587 .20700073 .746165 .16366577 .72033187 .12582906 .68699648 .0934906 .6536611 .06116231 .61432906 .03616333 .56900027 .018493653 .52367147 .00083414718 .4743398-.0079956059 .42100526-.0079956059M.41999818 .08099365C.45933534 .08099365 .49550376 .08766174 .5285034 .100997928 .5615031 .11433411 .59016928 .13316854 .61450198 .15750122 .63883468 .18183391 .65783187 .21033223 .67149356 .24299622 .6851654 .27567039 .69200137 .31134034 .69200137 .3500061 .69200137 .38867188 .6851654 .4241689 .67149356 .4564972 .65783187 .48883567 .63883468 .517334 .61450198 .5419922 .59016928 .5666606 .5615031 .58566287 .5285034 .598999 .49550376 .6123352 .45933534 .6190033 .41999818 .6190033 .3813324 .6190033 .34549967 .6123352 .3125 .598999 .27950035 .58566287 .2506663 .5666606 .22599793 .5419922 .20132955 .517334 .18215943 .48883567 .16848755 .4564972 .15482585 .4241689 .147995 .38867188 .147995 .3500061 .147995 .31134034 .15482585 .27567039 .16848755 .24299622 .18215943 .21033223 .20132955 .18183391 .22599793 .15750122 .2506663 .13316854 .27950035 .11433411 .3125 .100997928 .34549967 .08766174 .3813324 .08099365 .41999818 .08099365Z"/>
<path id="font_3_183" d="M.10499573 0V.69999697H.18699646L.5010071 .17100525H.45700074L.7669983 .69999697H.848999L.8500061 0H.7539978L.753006 .548996H.776001L.5 .085006717H.45399476L.17599488 .548996H.20100403V0H.10499573Z"/>
<path id="font_3_246" d="M.10499573 0V.69999697H.37800599C.43933616 .69999697 .4916687 .69032797 .53500369 .67099 .5783386 .6516622 .6116689 .6236623 .6349945 .58699038 .65833029 .55032858 .66999819 .506663 .66999819 .45599366 .66999819 .40533448 .65833029 .36183677 .6349945 .3255005 .6116689 .28916423 .5783386 .26116435 .53500369 .24150086 .4916687 .22183736 .43933616 .21200562 .37800599 .21200562H.16000366L.20500183 .2590027V0H.10499573M.20500183 .24899292 .16000366 .29899598H.375C.43899537 .29899598 .4874929 .31266276 .52049258 .33999635 .5535024 .36732994 .5700073 .4059957 .5700073 .45599366 .5700073 .5060018 .5535024 .54467269 .52049258 .5720062 .4874929 .5993398 .43899537 .6130066 .375 .6130066H.16000366L.20500183 .6629944V.24899292Z"/>
<path id="font_3_1" d="M-.0010070801 0 .31599427 .69999697H.4149933L.7330017 0H.628006L.34500123 .6439972H.3849945L.102005008 0H-.0010070801M.13400269 .17500305 .16099549 .25500489H.5549927L.58399966 .17500305H.13400269Z"/>
<clipPath id="clip_4">
<path transform="matrix(1,0,0,-1,0,810)" d="M0 810H630V0H0Z"/>
</clipPath>
</defs>
<g clip-path="url(#clip_1)">
<path transform="matrix(1,0,0,-1,358.7671,315.33)" d="M0 0 12.92-22.61-9.56-9.91C-23.08-21.94-39.03-30.14-57.08-32.58L-70.06-78.65-74.27-64.29-81.92-32.65C-100.58-30.24-117.37-22.27-131.47-9.68L-154.16-22.59-141.21-.12C-152.8 13.43-160.72 29.68-163.29 47.72L-210.32 61.15-163.44 72.91C-161.32 91.19-153.82 108.03-141.85 122.46L-155.34 145.75-132.42 132.44C-118.55 144.52-102.27 152.96-83.45 155.72L-70.33 203.81-58.08 155.71C-39.49 152.93-22.62 144.92-8.77 132.45L13.85 145.64 .7 122.94H-26.68C-35.19 129.34-45.09 133.88-56.1 136.37L-53.64 122.94H-71.89L-71.72 177.63-82.39 136.91C-96.33 134.47-108.74 128.08-119.63 118.71L-112.92 113.06C-116.31 109.28-118.75 104.64-119.85 99.5L-128.02 110.03C-136.17 100.15-141.6 88.97-143.85 77.08L-120.52 81.49V60.25L-185.4 59.8-144.63 48.7C-142.36 35.64-136.75 23.77-127.96 12.99L-119.38 23.27C-118.03 18.47-115.49 14.16-112.1 10.68L-119.53 4.4C-109.89-4.06-98.55-10.41-85.55-13.13L-88.04 1.68H-68.73L-68.57-52.66-57.36-13.64C-45.07-11.33-33.84-6.06-24.25 1.68H1.33Z" fill="#3cac62"/>
<path transform="matrix(1,0,0,-1,196.0657,221.37818)" d="M0 0C-1.987-6.123-3.832-11.584-4.162-17.841L-8.741-19.398C-14.071 7.031-15.427 34.136-12.321 61.051L81.53 85.825 78.341 73.02-1.481 51.773C-3.005 34.337-2.23 17.533 0 0" fill="#0c72b5"/>
<path transform="matrix(1,0,0,-1,394.0371,192.39002)" d="M0 0H-11.74C-11.52 7.56-11.66 15.12-12.3 22.74L-92.21 43.98-95.34 56.93-1.52 31.97C-.2 21.35 .26 10.7 0 0" fill="#0c72b5"/>
<path transform="matrix(1,0,0,-1,274.3227,354.6539)" d="M0 0 3.353-16C-13.993-7.117-29.22 4.991-41.494 19.517-30.705 12.216-19.99 7.809-8.065 4.502Z" fill="#0c72b5"/>
<path transform="matrix(1,0,0,-1,299.9746,370.6365)" d="M0 0 3.225 16.11 10.213 20.497C21.895 22.844 31.84 28.41 42.642 34.388 30.903 19.977 16.35 9.316 0 0" fill="#0c72b5"/>
</g>
<use data-text="S" xlink:href="#font_2_266" transform="matrix(52.0343,0,0,-52.0343,260.5684,248.32422)" fill="#0c72b5"/>
<use data-text="E" xlink:href="#font_2_72" transform="matrix(52.0343,0,0,-52.0343,293.76628,248.32422)" fill="#0c72b5"/>
<use data-text="C" xlink:href="#font_2_45" transform="matrix(52.0343,0,0,-52.0343,328.68128,248.32422)" fill="#0c72b5"/>
<use data-text="U" xlink:href="#font_2_292" transform="matrix(52.0343,0,0,-52.0343,366.146,248.32422)" fill="#0c72b5"/>
<use data-text="R" xlink:href="#font_2_254" transform="matrix(52.0343,0,0,-52.0343,407.14903,248.32422)" fill="#0c72b5"/>
<use data-text="E" xlink:href="#font_2_72" transform="matrix(52.0343,0,0,-52.0343,445.39424,248.32422)" fill="#0c72b5"/>
<use data-text="H" xlink:href="#font_2_122" transform="matrix(53.2208,0,0,-53.2208,258.0273,293.78523)" fill="#3cac62"/>
<use data-text="E" xlink:href="#font_2_72" transform="matrix(53.2208,0,0,-53.2208,301.02973,293.78523)" fill="#3cac62"/>
<use data-text="A" xlink:href="#font_2_1" transform="matrix(53.2208,0,0,-53.2208,336.74089,293.78523)" fill="#3cac62"/>
<use data-text="L" xlink:href="#font_2_167" transform="matrix(53.2208,0,0,-53.2208,377.508,293.78523)" fill="#3cac62"/>
<use data-text="T" xlink:href="#font_2_279" transform="matrix(53.2208,0,0,-53.2208,405.6618,293.78523)" fill="#3cac62"/>
<use data-text="H" xlink:href="#font_2_122" transform="matrix(53.2208,0,0,-53.2208,438.55226,293.78523)" fill="#3cac62"/>
<use data-text="S" xlink:href="#font_3_266" transform="matrix(14,0,0,-14,243.7334,742.2734)" fill="#231f20"/>
<use data-text="H" xlink:href="#font_3_122" transform="matrix(14,0,0,-14,252.4274,742.2734)" fill="#231f20"/>
<use data-text="I" xlink:href="#font_3_134" transform="matrix(14,0,0,-14,263.7954,742.2734)" fill="#231f20"/>
<use data-text="E" xlink:href="#font_3_72" transform="matrix(14,0,0,-14,268.1354,742.2734)" fill="#231f20"/>
<use data-text="L" xlink:href="#font_3_167" transform="matrix(14,0,0,-14,277.5154,742.2734)" fill="#231f20"/>
<use data-text="D" xlink:href="#font_3_56" transform="matrix(14,0,0,-14,285.83143,742.2734)" fill="#231f20"/>
<use data-text=" " xlink:href="#font_3_2219" transform="matrix(14,0,0,-14,297.39543,742.2734)" fill="#231f20"/>
<use data-text="&amp;" xlink:href="#font_3_2321" transform="matrix(14,0,0,-14,301.1614,742.2734)" fill="#231f20"/>
<use data-text=" " xlink:href="#font_3_2219" transform="matrix(14,0,0,-14,310.7654,742.2734)" fill="#231f20"/>
<use data-text="C" xlink:href="#font_3_45" transform="matrix(14,0,0,-14,314.5314,742.2734)" fill="#231f20"/>
<use data-text="O" xlink:href="#font_3_204" transform="matrix(14,0,0,-14,324.0248,742.2734)" fill="#231f20"/>
<use data-text="M" xlink:href="#font_3_183" transform="matrix(14,0,0,-14,335.78483,742.2734)" fill="#231f20"/>
<use data-text="P" xlink:href="#font_3_246" transform="matrix(14,0,0,-14,349.15483,742.2734)" fill="#231f20"/>
<use data-text="A" xlink:href="#font_3_1" transform="matrix(14,0,0,-14,358.6328,742.2734)" fill="#231f20"/>
<use data-text="S" xlink:href="#font_3_266" transform="matrix(14,0,0,-14,368.8808,742.2734)" fill="#231f20"/>
<use data-text="S" xlink:href="#font_3_266" transform="matrix(14,0,0,-14,377.5748,742.2734)" fill="#231f20"/>
<g clip-path="url(#clip_4)">
<path transform="matrix(1,0,0,-1,92.2827,439.9657)" stroke-width="1" stroke-linecap="butt" stroke-miterlimit="10" stroke-linejoin="miter" fill="none" stroke="#231f20" d="M0 0H445.435"/>
<path transform="matrix(1,0,0,-1,190.7484,612.7533)" d="M0 0 5.027-8.797-3.72-3.856C-8.98-8.537-15.186-11.727-22.209-12.676L-27.259-30.602-28.897-25.014-31.874-12.704C-39.134-11.766-45.667-8.665-51.153-3.766L-59.981-8.789-54.943-.047C-59.452 5.225-62.534 11.548-63.534 18.567L-81.832 23.793-63.592 28.368C-62.767 35.481-59.849 42.033-55.192 47.647L-60.441 56.709-51.523 51.53C-46.126 56.231-39.792 59.515-32.469 60.588L-27.364 79.3-22.598 60.585C-15.365 59.503-8.801 56.386-3.412 51.534L5.389 56.666 .272 47.834H-10.381C-13.692 50.324-17.544 52.091-21.828 53.06L-20.871 47.834H-27.971L-27.905 69.113-32.057 53.27C-37.481 52.32-42.309 49.834-46.546 46.188L-43.936 43.99C-45.255 42.519-46.204 40.714-46.632 38.714L-49.811 42.811C-52.982 38.967-55.095 34.617-55.97 29.991L-46.893 31.707V23.442L-72.136 23.267-56.273 18.948C-55.39 13.867-53.207 9.249-49.787 5.054L-46.449 9.054C-45.924 7.186-44.935 5.509-43.617 4.155L-46.507 1.712C-42.757-1.58-38.344-4.05-33.286-5.109L-34.255 .654H-26.742L-26.68-20.489-22.318-5.307C-17.536-4.408-13.167-2.358-9.435 .654H.517Z" fill="#3cac62"/>
<path transform="matrix(1,0,0,-1,127.4436,576.1981)" d="M0 0C-.773-2.382-1.491-4.507-1.619-6.942L-3.401-7.547C-5.475 2.736-6.003 13.282-4.794 23.754L31.722 33.393 30.481 28.411-.576 20.144C-1.169 13.36-.868 6.822 0 0" fill="#0c72b5"/>
<path transform="matrix(1,0,0,-1,204.4714,564.9192)" d="M0 0H-4.568C-4.482 2.941-4.537 5.883-4.786 8.848L-35.878 17.112-37.095 22.151-.591 12.439C-.078 8.307 .101 4.163 0 0" fill="#0c72b5"/>
<path transform="matrix(1,0,0,-1,157.8923,628.0537)" d="M0 0 1.305-6.225C-5.444-2.769-11.369 1.942-16.145 7.594-11.947 4.753-7.778 3.039-3.138 1.752Z" fill="#0c72b5"/>
<path transform="matrix(1,0,0,-1,167.8731,634.2723)" d="M0 0 1.255 6.268 3.974 7.975C8.519 8.888 12.388 11.054 16.591 13.38 12.024 7.773 6.362 3.625 0 0" fill="#0c72b5"/>
</g>
<use data-text="S" xlink:href="#font_2_266" transform="matrix(43.4979,0,0,-43.4979,150.5396,603.8262)" fill="#0c72b5"/>
<use data-text="E" xlink:href="#font_2_72" transform="matrix(43.4979,0,0,-43.4979,178.29126,603.8262)" fill="#0c72b5"/>
<use data-text="C" xlink:href="#font_2_45" transform="matrix(43.4979,0,0,-43.4979,207.47835,603.8262)" fill="#0c72b5"/>
<use data-text="U" xlink:href="#font_2_292" transform="matrix(43.4979,0,0,-43.4979,238.79683,603.8262)" fill="#0c72b5"/>
<use data-text="R" xlink:href="#font_2_254" transform="matrix(43.4979,0,0,-43.4979,273.07319,603.8262)" fill="#0c72b5"/>
<use data-text="E" xlink:href="#font_2_72" transform="matrix(43.4979,0,0,-43.4979,305.04414,603.8262)" fill="#0c72b5"/>
<use data-text="H" xlink:href="#font_2_122" transform="matrix(44.4897,0,0,-44.4897,334.229,603.8262)" fill="#3cac62"/>
<use data-text="E" xlink:href="#font_2_72" transform="matrix(44.4897,0,0,-44.4897,370.1767,603.8262)" fill="#3cac62"/>
<use data-text="A" xlink:href="#font_2_1" transform="matrix(44.4897,0,0,-44.4897,400.0293,603.8262)" fill="#3cac62"/>
<use data-text="L" xlink:href="#font_2_167" transform="matrix(44.4897,0,0,-44.4897,434.1084,603.8262)" fill="#3cac62"/>
<use data-text="T" xlink:href="#font_2_279" transform="matrix(44.4897,0,0,-44.4897,457.64344,603.8262)" fill="#3cac62"/>
<use data-text="H" xlink:href="#font_2_122" transform="matrix(44.4897,0,0,-44.4897,485.13807,603.8262)" fill="#3cac62"/>
</svg>
