<svg xmlns="http://www.w3.org/2000/svg" xmlns:xlink="http://www.w3.org/1999/xlink" xmlns:inkscape="http://www.inkscape.org/namespaces/inkscape" version="1.1" width="630" height="810" viewBox="0 0 630 810">
<defs>
<clipPath id="clip_1">
<path transform="matrix(1,0,0,-1,0,810)" d="M0 810H630V0H0Z"/>
</clipPath>
<path id="font_2_7" d="M.31900025-.01701355C.48599244-.01701355 .5970001 .07699585 .5970001 .20799256 .5970001 .35198976 .46899415 .4039917 .35798646 .43598939 .27198792 .46099855 .23298645 .47299195 .23298645 .5209961 .23298645 .56399539 .2709961 .59098818 .33198548 .59098818 .394989 .59098818 .45199586 .5669861 .4909973 .5239868L.6049957 .6309967C.54299929 .69299319 .44198609 .7279968 .33499146 .7279968 .17298889 .7279968 .07299805 .6469879 .07299805 .5139923 .07299805 .37399293 .18099976 .33299256 .31098939 .2899933 .3999939 .26098634 .43699647 .24499512 .43699647 .19699097 .43699647 .147995 .394989 .11999512 .32299806 .11999512 .24899292 .11999512 .19599915 .14898682 .14698792 .20298767L.032989503 .09498596C.10398865 .023986817 .20999146-.01701355 .31900025-.01701355Z"/>
<path id="font_2_3" d="M.070999149 0H.598999V.13699341H.23298645V.2939911H.55400088V.43099977H.23298645V.57299807H.598999V.70999148H.070999149V0Z"/>
<path id="font_2_2" d="M.4139862-.01701355C.5589905-.01701355 .6729889 .04399109 .73599246 .1639862L.59098818 .24099732C.5529938 .1619873 .49398805 .12199402 .4139862 .12199402 .28799439 .12199402 .20999146 .21199036 .20999146 .35598756 .20999146 .5 .28799439 .58999636 .4139862 .58999636 .48599244 .58999636 .54100039 .5569916 .5799866 .49299623L.71499636 .58499148C.6519928 .6769867 .5479889 .72898867 .41299439 .72898867 .18598938 .72898867 .04598999 .58898928 .04598999 .35699464 .04598999 .125 .18598938-.01701355 .4139862-.01701355Z"/>
<path id="font_2_9" d="M.36099244-.018005372C.5399933-.018005372 .6589966 .08299255 .6589966 .2709961V.70999148H.49699403V.2659912C.49699403 .17098999 .44499208 .12098694 .36099244 .12098694 .2769928 .12098694 .22499085 .17098999 .22499085 .2659912V.70999148H.06298828V.2709961C.06298828 .083999637 .18199158-.018005372 .36099244-.018005372Z"/>
<path id="font_2_6" d="M.070999149 0H.23298645V.24899292H.34899903L.47299195 0H.6519928L.5109863 .27598573C.59098818 .31498719 .6339874 .3939972 .6339874 .4850006 .6339874 .6029968 .5519867 .70999148 .37998963 .70999148H.070999149V0M.23298645 .38398744V.57499697H.35798646C.44099427 .57499697 .47099305 .5349884 .47099305 .48298646 .47099305 .42399598 .43499757 .38398744 .36999513 .38398744H.23298645Z"/>
<path id="font_2_4" d="M.070999149 0H.23298645V.28799439H.522995V0H.68499758V.70999148H.522995V.42599488H.23298645V.70999148H.070999149V0Z"/>
<path id="font_2_1" d="M.018997193 0H.18699646L.24499512 .16699219H.522995L.5799866 0H.7509918L.48098756 .70999148H.2869873L.018997193 0M.29100038 .3019867 .38398744 .57299807 .47698976 .3019867H.29100038Z"/>
<path id="font_2_5" d="M.070999149 0H.56900027V.13899231H.23298645V.70999148H.070999149V0Z"/>
<path id="font_2_8" d="M.23999024 0H.4019928V.56999209H.6199951V.70999148H.021987915V.56999209H.23999024V0Z"/>
<clipPath id="clip_3">
<path transform="matrix(1,0,0,-1,0,810)" d="M0 810H630V0H0Z"/>
</clipPath>
<path id="font_4_266" d="M.30900575-.0079956059C.25567118-.0079956059 .20466614 .00016784668 .1559906 .016494751 .10732523 .03283183 .068995159 .054000856 .041000368 .08000183L.07800293 .15800476C.10466512 .13466899 .1386617 .11533102 .17999268 .099990848 .22133382 .08466085 .26433818 .07699585 .30900575 .07699585 .3496653 .07699585 .3826599 .08165995 .4079895 .09098816 .43332926 .10032654 .45199586 .11316427 .46398927 .12950135 .47599284 .14583843 .48199464 .16433716 .48199464 .18499756 .48199464 .20899455 .47416178 .22832744 .4584961 .24299622 .4428304 .257665 .4224955 .26950074 .39749146 .27850343 .37249757 .2875061 .34500123 .29533897 .31500245 .30200196 .28500367 .30866496 .25483705 .3164978 .22450257 .3255005 .19416809 .33450318 .16649883 .3460032 .14149475 .3600006 .116500858 .37399803 .096333827 .39282737 .08099365 .41648866 .06566366 .44016014 .057998659 .47066245 .057998659 .5079956 .057998659 .54399618 .067499797 .5771637 .086502078 .60749819 .10550436 .63783267 .13483684 .66216537 .17449951 .6804962 .21416219 .6988271 .2646637 .70799258 .32600404 .70799258 .3666636 .70799258 .40699259 .70265707 .44699098 .6919861 .4869995 .68132528 .5216675 .6659953 .5509949 .6459961L.5180054 .56599429C.4880066 .58599349 .4563395 .6004944 .42300416 .6094971 .3896688 .61849978 .35733543 .6230011 .32600404 .6230011 .28666688 .6230011 .2543284 .6180013 .22898865 .6080017 .20365906 .59800216 .18516033 .58466598 .17349243 .56799319 .16183472 .55133059 .15600586 .532664 .15600586 .5119934 .15600586 .4873352 .1638387 .46767173 .1795044 .45300294 .19517009 .43833415 .21549988 .42666627 .24049378 .41799928 .26549784 .40933229 .29299928 .40149943 .32299806 .39450074 .35299684 .38750205 .38316346 .3796692 .41349793 .3710022 .4438324 .3623352 .47149659 .35099793 .49649049 .33699037 .52149459 .32299296 .54166159 .3043264 .5569916 .2809906 .5723317 .257665 .58000186 .22766622 .58000186 .19099427 .58000186 .15566509 .5703328 .12283325 .5509949 .09249878 .53166708 .062164308 .5018361 .037831624 .46150209 .019500733 .421168 .0011698405 .3703359-.0079956059 .30900575-.0079956059Z"/>
<path id="font_4_122" d="M.6069946 0V.69999697H.70700076V0H.6069946M.10499573 0V.69999697H.20500183V0H.10499573M.19500733 .31199647V.39900209H.6159973V.31199647H.19500733Z"/>
<path id="font_4_72" d="M.10499573 0V.69999697H.598999V.6130066H.20500183V.087005618H.6130066V0H.10499573M.19599915 .31300355V.397995H.55599978V.31300355H.19599915Z"/>
<path id="font_4_134" d="M.10499573 0V.69999697H.20500183V0H.10499573Z"/>
<path id="font_4_167" d="M.10499573 0V.69999697H.20500183V.087005618H.58399966V0H.10499573Z"/>
<path id="font_4_56" d="M.10499573 0V.69999697H.3999939C.47466026 .69999697 .54049178 .6853282 .5974884 .6559906 .65449526 .6266632 .6988322 .58566287 .73049929 .5329895 .7621663 .48032633 .7779999 .41933189 .7779999 .3500061 .7779999 .28067018 .7621663 .21966553 .73049929 .16699219 .6988322 .11432902 .65449526 .07332865 .5974884 .04399109 .54049178 .014663696 .47466026 0 .3999939 0H.10499573M.20500183 .087005618H.3939972C.45200096 .087005618 .50216677 .09800211 .5444946 .11999512 .5868327 .14199829 .6196645 .17283122 .6429901 .2124939 .66632589 .25216676 .6779938 .29800416 .6779938 .3500061 .6779938 .40266929 .66632589 .44866435 .6429901 .48799134 .6196645 .5273285 .5868327 .55799868 .5444946 .58000186 .50216677 .602005 .45200096 .6130066 .3939972 .6130066H.20500183V.087005618Z"/>
<path id="font_4_2219" d="M0 0Z"/>
<path id="font_4_2321" d="M.6170044-.011001587 .22399903 .38000489C.20066326 .40333048 .18232727 .42415873 .16899109 .44248963 .15566509 .4608307 .14600118 .4786682 .13999939 .4960022 .1339976 .5133362 .1309967 .5310008 .1309967 .548996 .1309967 .58032736 .13882955 .6078288 .15449524 .63150027 .17016094 .6551717 .19215901 .6735026 .2204895 .6864929 .24883016 .6994934 .28200279 .70599368 .32000733 .70599368 .35533653 .70599368 .3860016 .7001597 .41200257 .6884918 .43800355 .6768341 .45817057 .6601715 .47250367 .638504 .48683677 .61683657 .4940033 .5906677 .4940033 .55999758 .4940033 .5333354 .48750306 .508667 .47450257 .48599244 .46150209 .46332804 .44066874 .44132997 .41200257 .41999818 .3833364 .39866639 .34467063 .3756663 .29600526 .35099793 .2559967 .33033753 .22466024 .3111725 .20199585 .2935028 .17933147 .27583314 .16316732 .2583313 .15350342 .24099732 .14383953 .22366333 .13900757 .20466614 .13900757 .18400574 .13900757 .16200257 .14550273 .14250183 .15849304 .12550354 .17149353 .10850525 .18982442 .095336917 .21348572 .085998538 .23715718 .07667033 .2646637 .072006229 .29600526 .072006229 .34067283 .072006229 .3810018 .08167013 .4169922 .100997928 .45299278 .1203359 .4831594 .14933777 .50749209 .18800354 .5318349 .22666931 .5496724 .27466838 .56100466 .33200074L.6380005 .30700685C.6246643 .23966472 .60182699 .18265789 .5694885 .13598633 .5371602 .08932495 .4973297 .053660077 .44999696 .0289917 .40266419 .004333496 .34932963-.0079956059 .2899933-.0079956059 .24266052-.0079956059 .20065816-.0003306071 .1639862 .01499939 .12732442 .030329386 .09832764 .051661176 .07699585 .07899475 .055664064 .10632833 .04499817 .1379954 .04499817 .17399597 .04499817 .20532735 .051996869 .23399353 .06599426 .2599945 .08000183 .28599549 .10233561 .31116233 .1329956 .335495 .16366577 .35982768 .20399983 .3849945 .2539978 .41099549 .29466758 .43232728 .32650248 .45099388 .34950257 .46699525 .37250266 .4829966 .38883464 .49816386 .39849855 .51249697 .40816245 .52683 .41299439 .54233297 .41299439 .55900576 .41299439 .5816701 .40499369 .6001689 .3889923 .61450198 .3730011 .628835 .3500061 .6360016 .32000733 .6360016 .28866578 .6360016 .26416017 .62816879 .24649048 .61250308 .22883098 .59683737 .22000122 .57633468 .22000122 .5509949 .22000122 .5383301 .22216797 .52616378 .22650147 .51449587 .23083496 .50282797 .23883565 .48982749 .25050355 .47549439 .26217143 .4611613 .27900187 .44299827 .30099488 .42100526L.67100527 .052993776 .6170044-.011001587Z"/>
<path id="font_4_45" d="M.41799928-.0079956059C.3646647-.0079956059 .31549583 .00083414718 .27049256 .018493653 .22549947 .03616333 .1865031 .06116231 .15350342 .0934906 .120503749 .12582906 .094670619 .16366577 .07600403 .20700073 .057337446 .2503357 .04800415 .29800416 .04800415 .3500061 .04800415 .4019979 .057337446 .44966126 .07600403 .49299623 .094670619 .5363312 .120666507 .5741628 .1539917 .6064911 .18732707 .6388295 .22649639 .66382858 .27149964 .68148806 .3165029 .6991577 .36567179 .70799258 .41900636 .70799258 .4730021 .70799258 .5228322 .6988271 .5684967 .6804962 .6141612 .66216537 .6529948 .6349996 .68499758 .598999L.6199951 .5359955C.59333297 .5640004 .56333419 .5848338 .5299988 .5984955 .49666343 .61216738 .46099855 .6190033 .42300416 .6190033 .383667 .6190033 .34716288 .6123352 .31349183 .598999 .27983094 .58566287 .2506663 .5669963 .22599793 .54299929 .20132955 .51900228 .18215943 .49050395 .16848755 .45750428 .15482585 .4245046 .147995 .38867188 .147995 .3500061 .147995 .31134034 .15482585 .27550254 .16848755 .24249268 .18215943 .209493 .20132955 .18099468 .22599793 .15699768 .2506663 .13300069 .27983094 .11433411 .31349183 .100997928 .34716288 .08766174 .383667 .08099365 .42300416 .08099365 .46099855 .08099365 .49666343 .0878245 .5299988 .101486209 .56333419 .11515808 .59333297 .1363271 .6199951 .16499329L.68499758 .102005008C.6529948 .06600443 .6141612 .038670858 .5684967 .020004273 .5228322 .0013376871 .4726664-.0079956059 .41799928-.0079956059Z"/>
<path id="font_4_204" d="M.42100526-.0079956059C.36767069-.0079956059 .3181661 .0010019938 .27249146 .018997193 .22682698 .037002565 .18732707 .06216939 .1539917 .09449768 .120666507 .12683614 .094670619 .16466777 .07600403 .20799256 .057337446 .2513275 .04800415 .29866538 .04800415 .3500061 .04800415 .40133668 .057337446 .44866944 .07600403 .4920044 .094670619 .53533938 .120666507 .57317098 .1539917 .60549929 .18732707 .6378377 .22665914 .6630046 .27198792 .68099978 .31732688 .69899496 .3669993 .70799258 .42100526 .70799258 .4743398 .70799258 .52367147 .6991577 .56900027 .68148806 .61432906 .66382858 .6536611 .6388295 .68699648 .6064911 .72033187 .5741628 .746165 .53616335 .76449587 .49249269 .7828369 .44883219 .79200747 .40133668 .79200747 .3500061 .79200747 .29800416 .7828369 .2503357 .76449587 .20700073 .746165 .16366577 .72033187 .12582906 .68699648 .0934906 .6536611 .06116231 .61432906 .03616333 .56900027 .018493653 .52367147 .00083414718 .4743398-.0079956059 .42100526-.0079956059M.41999818 .08099365C.45933534 .08099365 .49550376 .08766174 .5285034 .100997928 .5615031 .11433411 .59016928 .13316854 .61450198 .15750122 .63883468 .18183391 .65783187 .21033223 .67149356 .24299622 .6851654 .27567039 .69200137 .31134034 .69200137 .3500061 .69200137 .38867188 .6851654 .4241689 .67149356 .4564972 .65783187 .48883567 .63883468 .517334 .61450198 .5419922 .59016928 .5666606 .5615031 .58566287 .5285034 .598999 .49550376 .6123352 .45933534 .6190033 .41999818 .6190033 .3813324 .6190033 .34549967 .6123352 .3125 .598999 .27950035 .58566287 .2506663 .5666606 .22599793 .5419922 .20132955 .517334 .18215943 .48883567 .16848755 .4564972 .15482585 .4241689 .147995 .38867188 .147995 .3500061 .147995 .31134034 .15482585 .27567039 .16848755 .24299622 .18215943 .21033223 .20132955 .18183391 .22599793 .15750122 .2506663 .13316854 .27950035 .11433411 .3125 .100997928 .34549967 .08766174 .3813324 .08099365 .41999818 .08099365Z"/>
<path id="font_4_183" d="M.10499573 0V.69999697H.18699646L.5010071 .17100525H.45700074L.7669983 .69999697H.848999L.8500061 0H.7539978L.753006 .548996H.776001L.5 .085006717H.45399476L.17599488 .548996H.20100403V0H.10499573Z"/>
<path id="font_4_292" d="M.39500428-.0079956059C.30300395-.0079956059 .23066712 .018335978 .17799378 .070999149 .12533061 .123662319 .09899902 .20066326 .09899902 .30200196V.69999697H.19900513V.30599977C.19900513 .22799683 .21617127 .17099507 .25050355 .1349945 .28483583 .098993938 .33333335 .08099365 .3959961 .08099365 .45933024 .08099365 .50816348 .098993938 .5424957 .1349945 .576828 .17099507 .59399417 .22799683 .59399417 .30599977V.69999697H.69099429V.30200196C.69099429 .20066326 .66482546 .123662319 .6124878 .070999149 .56016036 .018335978 .4876658-.0079956059 .39500428-.0079956059Z"/>
<path id="font_4_189" d="M.10499573 0V.69999697H.18699646L.6499939 .125H.6069946V.69999697H.70700076V0H.625L.16200257 .57499697H.20500183V0H.10499573Z"/>
<path id="font_4_1" d="M-.0010070801 0 .31599427 .69999697H.4149933L.7330017 0H.628006L.34500123 .6439972H.3849945L.102005008 0H-.0010070801M.13400269 .17500305 .16099549 .25500489H.5549927L.58399966 .17500305H.13400269Z"/>
<path id="font_4_279" d="M.2440033 0V.6130066H.0039978029V.69999697H.58299258V.6130066H.34300233V0H.2440033Z"/>
<clipPath id="clip_5">
<path transform="matrix(1,0,0,-1,0,810)" d="M0 810H630V0H0Z"/>
</clipPath>
</defs>
<g clip-path="url(#clip_1)">
<path transform="matrix(1,0,0,-1,276.6857,286.35279)" d="M0 0C-1.665 .994-2.79 .911-4.402 .385L-35.834-9.88-30.09 15.786-27.973 25.533C-36.882 39.228-41.513 53.154-43.15 69.547-45.404 90.929-43.379 112.261-41.397 133.794-17.676 146.255 8.612 153.615 35.082 158.209 41.138 157.49 46.649 156.284 52.516 154.93 73.328 150.33 93.666 143.716 112.523 133.84 114.714 109.22 117.115 84.962 113.109 60.76 109.969 43.475 103.44 29.634 91.697 16.625 84.533 8.688 75.952 2.577 66.536-2.619 56.756-8.016 46.425-11.399 35.522-14.181 22.943-11.04 11.148-6.659 0 0" fill="#213167"/>
<path transform="matrix(1,0,0,-1,279.7098,272.6369)" d="M0 0C-1.328 .877-2.202 1.543-3.668 1.059L-21.836-4.945-17.152 15.598C-25.386 26.595-30.514 39.122-32.289 52.786-35.211 72.171-33.374 91.831-31.811 111.493-11.439 121.23 10.273 127.01 32.491 131.112 54.845 127.053 76.243 121.259 96.911 111.56 98.598 88.886 100.994 65.24 95.489 43.069 87.387 11.426 63.118-6.221 32.53-14.114 20.921-11.042 10.062-6.649 0 0" fill="#ffffff"/>
<path transform="matrix(1,0,0,-1,321.0856,208.73743)" d="M0 0C0-4.884-3.959-8.843-8.843-8.843-13.727-8.843-17.686-4.884-17.686 0-17.686 4.884-13.727 8.843-8.843 8.843-3.959 8.843 0 4.884 0 0" fill="#2472b9"/>
<path transform="matrix(1,0,0,-1,354.6719,208.72083)" d="M0 0C0-4.889-3.963-8.852-8.852-8.852-13.74-8.852-17.703-4.889-17.703 0-17.703 4.889-13.74 8.852-8.852 8.852-3.963 8.852 0 4.889 0 0" fill="#6654a3"/>
<path transform="matrix(1,0,0,-1,287.5851,208.73078)" d="M0 0C0-4.904-3.975-8.879-8.879-8.879-13.782-8.879-17.757-4.904-17.757 0-17.757 4.904-13.782 8.879-8.879 8.879-3.975 8.879 0 4.904 0 0" fill="#34ac56"/>
</g>
<use data-text="S" xlink:href="#font_2_7" transform="matrix(49.1148,0,0,-49.1148,208.3242,366.2051)" fill="#213167"/>
<use data-text="E" xlink:href="#font_2_3" transform="matrix(49.1148,0,0,-49.1148,242.55722,366.2051)" fill="#213167"/>
<use data-text="C" xlink:href="#font_2_2" transform="matrix(49.1148,0,0,-49.1148,276.2991,366.2051)" fill="#213167"/>
<use data-text="U" xlink:href="#font_2_9" transform="matrix(49.1148,0,0,-49.1148,316.67149,366.2051)" fill="#213167"/>
<use data-text="R" xlink:href="#font_2_6" transform="matrix(49.1148,0,0,-49.1148,354.93193,366.2051)" fill="#213167"/>
<use data-text="E" xlink:href="#font_2_3" transform="matrix(49.1148,0,0,-49.1148,390.7366,366.2051)" fill="#213167"/>
<use data-text="H" xlink:href="#font_2_4" transform="matrix(27.9838,0,0,-27.9838,228.418,395.8516)" fill="#2ca853"/>
<use data-text="E" xlink:href="#font_2_3" transform="matrix(27.9838,0,0,-27.9838,260.3755,395.8516)" fill="#2ca853"/>
<use data-text="A" xlink:href="#font_2_1" transform="matrix(27.9838,0,0,-27.9838,288.80705,395.8516)" fill="#2ca853"/>
<use data-text="L" xlink:href="#font_2_5" transform="matrix(27.9838,0,0,-27.9838,321.1843,395.8516)" fill="#2ca853"/>
<use data-text="T" xlink:href="#font_2_8" transform="matrix(27.9838,0,0,-27.9838,345.61418,395.8516)" fill="#2ca853"/>
<use data-text="H" xlink:href="#font_2_4" transform="matrix(27.9838,0,0,-27.9838,374.3815,395.8516)" fill="#2ca853"/>
<g clip-path="url(#clip_3)">
<path transform="matrix(1,0,0,-1,188.0336,604.5175)" d="M0 0C-.74 .442-1.24 .405-1.957 .171L-15.93-4.392-13.377 7.018-12.435 11.351C-16.396 17.439-18.455 23.63-19.183 30.917-20.185 40.423-19.284 49.906-18.403 59.479-7.858 65.019 3.828 68.29 15.596 70.333 18.288 70.013 20.738 69.477 23.346 68.875 32.599 66.83 41.64 63.89 50.023 59.499 50.997 48.555 52.064 37.77 50.283 27.011 48.887 19.327 45.985 13.174 40.764 7.391 37.579 3.862 33.765 1.146 29.579-1.164 25.231-3.563 20.638-5.068 15.791-6.304 10.2-4.908 4.956-2.96 0 0" fill="#213167"/>
<path transform="matrix(1,0,0,-1,189.378,598.42)" d="M0 0C-.59 .39-.979 .686-1.631 .471L-9.707-2.198-7.625 6.934C-11.286 11.823-13.565 17.392-14.354 23.466-15.653 32.084-14.836 40.824-14.142 49.565-5.085 53.894 4.567 56.463 14.444 58.287 24.382 56.482 33.894 53.906 43.082 49.595 43.832 39.515 44.897 29.003 42.45 19.147 38.848 5.079 28.059-2.766 14.461-6.274 9.3-4.909 4.473-2.956 0 0" fill="#ffffff"/>
<path transform="matrix(1,0,0,-1,207.7718,570.0132)" d="M0 0C0-2.171-1.76-3.931-3.931-3.931-6.102-3.931-7.862-2.171-7.862 0-7.862 2.171-6.102 3.931-3.931 3.931-1.76 3.931 0 2.171 0 0" fill="#2472b9"/>
<path transform="matrix(1,0,0,-1,222.7028,570.0058)" d="M0 0C0-2.173-1.762-3.935-3.935-3.935-6.108-3.935-7.87-2.173-7.87 0-7.87 2.173-6.108 3.935-3.935 3.935-1.762 3.935 0 2.173 0 0" fill="#6654a3"/>
<path transform="matrix(1,0,0,-1,192.879,570.0102)" d="M0 0C0-2.18-1.767-3.947-3.947-3.947-6.127-3.947-7.894-2.18-7.894 0-7.894 2.18-6.127 3.947-3.947 3.947-1.767 3.947 0 2.18 0 0" fill="#34ac56"/>
</g>
<use data-text="S" xlink:href="#font_2_7" transform="matrix(49.1148,0,0,-49.1148,248.2373,579.21096)" fill="#213167"/>
<use data-text="E" xlink:href="#font_2_3" transform="matrix(49.1148,0,0,-49.1148,282.47035,579.21096)" fill="#213167"/>
<use data-text="C" xlink:href="#font_2_2" transform="matrix(49.1148,0,0,-49.1148,316.21223,579.21096)" fill="#213167"/>
<use data-text="U" xlink:href="#font_2_9" transform="matrix(49.1148,0,0,-49.1148,356.5846,579.21096)" fill="#213167"/>
<use data-text="R" xlink:href="#font_2_6" transform="matrix(49.1148,0,0,-49.1148,394.84504,579.21096)" fill="#213167"/>
<use data-text="E" xlink:href="#font_2_3" transform="matrix(49.1148,0,0,-49.1148,430.64973,579.21096)" fill="#213167"/>
<use data-text="H" xlink:href="#font_2_4" transform="matrix(27.9838,0,0,-27.9838,268.3311,608.8574)" fill="#2ca853"/>
<use data-text="E" xlink:href="#font_2_3" transform="matrix(27.9838,0,0,-27.9838,300.28858,608.8574)" fill="#2ca853"/>
<use data-text="A" xlink:href="#font_2_1" transform="matrix(27.9838,0,0,-27.9838,328.72013,608.8574)" fill="#2ca853"/>
<use data-text="L" xlink:href="#font_2_5" transform="matrix(27.9838,0,0,-27.9838,361.09739,608.8574)" fill="#2ca853"/>
<use data-text="T" xlink:href="#font_2_8" transform="matrix(27.9838,0,0,-27.9838,385.52726,608.8574)" fill="#2ca853"/>
<use data-text="H" xlink:href="#font_2_4" transform="matrix(27.9838,0,0,-27.9838,414.2946,608.8574)" fill="#2ca853"/>
<use data-text="S" xlink:href="#font_4_266" transform="matrix(14,0,0,-14,215.3359,747.4512)" fill="#231f20"/>
<use data-text="H" xlink:href="#font_4_122" transform="matrix(14,0,0,-14,224.0299,747.4512)" fill="#231f20"/>
<use data-text="E" xlink:href="#font_4_72" transform="matrix(14,0,0,-14,235.3979,747.4512)" fill="#231f20"/>
<use data-text="I" xlink:href="#font_4_134" transform="matrix(14,0,0,-14,244.77791,747.4512)" fill="#231f20"/>
<use data-text="L" xlink:href="#font_4_167" transform="matrix(14,0,0,-14,249.1179,747.4512)" fill="#231f20"/>
<use data-text="D" xlink:href="#font_4_56" transform="matrix(14,0,0,-14,257.4339,747.4512)" fill="#231f20"/>
<use data-text=" " xlink:href="#font_4_2219" transform="matrix(14,0,0,-14,268.9979,747.4512)" fill="#231f20"/>
<use data-text="&amp;" xlink:href="#font_4_2321" transform="matrix(14,0,0,-14,272.7639,747.4512)" fill="#231f20"/>
<use data-text=" " xlink:href="#font_4_2219" transform="matrix(14,0,0,-14,282.3679,747.4512)" fill="#231f20"/>
<use data-text="C" xlink:href="#font_4_45" transform="matrix(14,0,0,-14,286.13389,747.4512)" fill="#231f20"/>
<use data-text="O" xlink:href="#font_4_204" transform="matrix(14,0,0,-14,295.6259,747.4512)" fill="#231f20"/>
<use data-text="M" xlink:href="#font_4_183" transform="matrix(14,0,0,-14,307.3859,747.4512)" fill="#231f20"/>
<use data-text="M" xlink:href="#font_4_183" transform="matrix(14,0,0,-14,320.7559,747.4512)" fill="#231f20"/>
<use data-text="U" xlink:href="#font_4_292" transform="matrix(14,0,0,-14,334.1259,747.4512)" fill="#231f20"/>
<use data-text="N" xlink:href="#font_4_189" transform="matrix(14,0,0,-14,345.1999,747.4512)" fill="#231f20"/>
<use data-text="I" xlink:href="#font_4_134" transform="matrix(14,0,0,-14,356.5679,747.4512)" fill="#231f20"/>
<use data-text="C" xlink:href="#font_4_45" transform="matrix(14,0,0,-14,360.9079,747.4512)" fill="#231f20"/>
<use data-text="A" xlink:href="#font_4_1" transform="matrix(14,0,0,-14,370.6519,747.4512)" fill="#231f20"/>
<use data-text="T" xlink:href="#font_4_279" transform="matrix(14,0,0,-14,380.4099,747.4512)" fill="#231f20"/>
<use data-text="I" xlink:href="#font_4_134" transform="matrix(14,0,0,-14,388.6279,747.4512)" fill="#231f20"/>
<use data-text="O" xlink:href="#font_4_204" transform="matrix(14,0,0,-14,392.9679,747.4512)" fill="#231f20"/>
<use data-text="N" xlink:href="#font_4_189" transform="matrix(14,0,0,-14,404.7279,747.4512)" fill="#231f20"/>
<g clip-path="url(#clip_5)">
<path transform="matrix(1,0,0,-1,92.2827,458.0101)" stroke-width="1" stroke-linecap="butt" stroke-miterlimit="10" stroke-linejoin="miter" fill="#ffffff" stroke="#231f20" d="M0 0H445.435"/>
</g>
</svg>
