<svg xmlns="http://www.w3.org/2000/svg" xmlns:xlink="http://www.w3.org/1999/xlink" xmlns:inkscape="http://www.inkscape.org/namespaces/inkscape" version="1.1" width="630" height="810" viewBox="0 0 630 810">
<defs>
<path id="font_1_2" d="M.2679901-.0126953129C.394989-.0126953129 .5009918 .0602417 .5009918 .19311524 .5009918 .30000306 .44599916 .33895875 .30899049 .39489747 .22599793 .42886354 .1579895 .45783998 .1579895 .5327606 .1579895 .6236725 .22599793 .65763857 .2889862 .65763857 .36499024 .65763857 .4119873 .6076813 .45700074 .49879457H.47299195C.46598817 .55174258 .46299745 .60269168 .46099855 .65563967 .40899659 .67163088 .35598756 .6816406 .29100038 .6816406 .14698792 .6816406 .07299805 .5857086 .07299805 .4828186 .07299805 .368927 .1349945 .33296205 .2709961 .27702333 .3659973 .23806763 .4059906 .21109009 .4059906 .13916016 .4059906 .0662384 .35598756 .012298584 .27398683 .012298584 .1769867 .012298584 .1329956 .083221439 .07998657 .21009827H.06298828C.07199097 .124176029 .07299805 .068237308 .07299805 .016296387 .14299011-.0017089844 .19799805-.0126953129 .2679901-.0126953129Z"/>
<path id="font_1_5" d="M.43998719 .28515626V.30815126C.43998719 .4182434 .38598634 .4873047 .26098634 .4873047 .14498902 .4873047 .038986207 .3862152 .038986207 .22218323 .038986207 .07028198 .12098694-.0126953129 .25698854-.0126953129 .33799745-.0126953129 .4039917 .02330017 .43899537 .07727051L.43598939 .08227539C.3889923 .05128479 .34799195 .043304445 .30799867 .043304445 .21099854 .043304445 .14199829 .0982666 .14199829 .25616456 .14199829 .26615907 .14199829 .27615357 .14299011 .28515626H.43998719M.2599945 .46730042C.30799867 .46730042 .33499146 .42825318 .33499146 .31515504L.14399719 .30415345C.15499878 .41123963 .19999695 .46730042 .2599945 .46730042Z"/>
<path id="font_1_4" d="M.41999818 .08029175C.37399293 .05029297 .33699037 .043304445 .3019867 .043304445 .20698548 .043304445 .14199829 .106292728 .14199829 .25230409 .14199829 .37329103 .18699646 .46730042 .2749939 .46730042 .2829895 .46730042 .2899933 .46730042 .29899598 .46629334L.32499696 .35629273C.33399964 .31929017 .34899903 .31529237 .3919983 .32130433L.4229889 .32530213C.4249878 .42529298 .36799623 .4873047 .2709961 .4873047 .13999939 .4873047 .038986207 .3822937 .038986207 .22329712 .038986207 .06529236 .12399292-.0126953129 .25-.0126953129 .32299806-.0126953129 .38598634 .019302369 .42399598 .075302127L.41999818 .08029175Z"/>
<path id="font_1_10" d="M.49398805 .031295778C.45799256 .040298463 .45399476 .044296266 .45399476 .08331299V.1433258C.45399476 .27293397 .45700074 .42468263 .45899964 .47460938L.45098878 .48060609C.4039917 .47032167 .34599305 .45832826 .29499818 .45332337V.44433595L.31698609 .4353485C.35299684 .42138673 .35899354 .4163971 .35899354 .39544679L.35798646 .08522034C.32299806 .057281496 .2829895 .05229187 .2579956 .05229187 .18099976 .05229187 .16499329 .09918213 .16499329 .2098999 .16499329 .26693727 .16899109 .39871217 .17298889 .47558595L.16499329 .48057557C.12199402 .47032167 .070999149 .46133424 .0129852299 .45332337V.44433595L.036987306 .4353485C.066986087 .42536927 .07199097 .41938783 .07199097 .39744569 .07199097 .3635254 .067993167 .1749878 .070999149 .13110352 .07699585 .041290285 .116989139-.0126953129 .21199036-.0126953129 .2669983-.0126953129 .32299806 .016296387 .35899354 .06825256L.3639984-.0126953129 .37199403-.015701294C.41799928-.0027008057 .45498658 .00630188 .5169983 .016296387V.025299073L.49398805 .031295778Z"/>
<path id="font_1_8" d="M.20899964 .37850953H.31399537L.32699586 .46928407C.30999757 .47450257 .2899933 .47851563 .27598573 .47851563 .22898865 .47851563 .21199036 .44450379 .17999268 .371521L.16999817 .3735199 .1769867 .48339845 .16799927 .48739625C.10899353 .45936585 .067993167 .44236756 .021987915 .42634584V.41734315L.036987306 .41233827C.08198547 .3973236 .084991458 .38832093 .084991458 .34729005V.31526185C.084991458 .27023316 .08198547 .100097659 .08099365 .0730896 .07899475 .031051636 .068984989 .023040772 .037994386 .016036988L.019989014 .012039185V-.001953125C.055999757 .000045776369 .10398865 .0010375977 .1289978 .0010375977 .18998719 .0010375977 .22799683 .000045776369 .25498963-.001953125V.012039185L.23399353 .017028809C.18598938 .028015137 .18399048 .035003663 .18199158 .07594299 .18099976 .09892273 .18099976 .19776917 .18099976 .24369812V.35253907L.20899964 .37850953Z"/>
<path id="font_1_1" d="M.69499209 .64793398 .7200012 .65293887V.6689453C.6159973 .66293337 .548996 .6639404 .44400025 .6689453V.65293887L.46998597 .64793398C.5130005 .63894656 .522995 .6299591 .526001 .5779877 .5289917 .5460205 .5289917 .4360962 .5289917 .35617066H.21798706C.21798706 .43910218 .21899414 .5460205 .22099304 .5779877 .22499085 .6299591 .23399353 .63894656 .27799989 .64793398L.3039856 .65293887V.6689453C.19898987 .6639404 .1309967 .66293337 .026992798 .6689453V.65293887L.052993776 .64793398C.09599304 .63894656 .102996829 .6299591 .10699463 .5779877 .10899353 .5430145 .10998535 .41412355 .10998535 .33416749 .10998535 .25312806 .10998535 .12408447 .10699463 .08906555 .102996829 .03704834 .09599304 .027038575 .052993776 .019042969L.026992798 .014038086V-.001953125C.1289978 .003036499 .19898987 .004043579 .3039856-.001953125V.014038086L.27799989 .019042969C.23498535 .027038575 .22599793 .03504944 .22099304 .08906555 .21798706 .12307739 .21798706 .24313355 .21798706 .32617188H.5289917C.5289917 .24313355 .5289917 .12307739 .526001 .08906555 .5209961 .03504944 .5130005 .027038575 .46998597 .019042969L.44400025 .014038086V-.001953125C.5479889 .004043579 .6179962 .003036499 .7200012-.001953125V.014038086L.69499209 .019042969C.651001 .028045655 .644989 .03704834 .6409912 .08906555 .6380005 .12408447 .6380005 .25312806 .6380005 .33416749 .6380005 .41412355 .6389923 .5430145 .6409912 .5779877 .6439972 .6299591 .6519928 .63894656 .69499209 .64793398Z"/>
<path id="font_1_3" d="M.43699647 .05029297C.42199708 .040298463 .40899659 .03529358 .394989 .03529358 .3769989 .03529358 .36099244 .046295167 .36099244 .06929016 .36099244 .126297 .37199403 .3403015 .37199403 .3802948 .37199403 .44630433 .33099366 .4873047 .2579956 .4873047 .19299317 .4873047 .04899597 .41130067 .055999757 .31529237L.09599304 .32130433C.14498902 .32829286 .1499939 .3343048 .15699768 .3802948L.16799927 .44830323C.1789856 .45030213 .19198609 .45129396 .19999695 .45129396 .24299622 .45129396 .27198792 .43730165 .27198792 .39230348L.269989 .23329163 .18998719 .22329712C.08198547 .20930481 .026992798 .18930054 .026992798 .11529541 .026992798 .043304445 .07998657-.00869751 .15899658-.0126953129 .19099427-.0027008057 .23298645 .025299073 .2649994 .049301149 .269989 .00630188 .30099488-.0126953129 .33999635-.0126953129 .37799073-.0126953129 .4189911 .007293701 .43998719 .047302247L.43699647 .05029297M.1269989 .1382904C.1269989 .16729737 .13899231 .19029236 .21998596 .20529175L.269989 .21429444C.269989 .15229798 .2689972 .09030151 .2689972 .06430054 .24899292 .05429077 .22999573 .05029297 .21099854 .05029297 .1639862 .05029297 .1269989 .07829285 .1269989 .1382904Z"/>
<path id="font_1_7" d="M.011993408-.001953125C.09498596 .0010375977 .15699768 .0010375977 .23298645-.001953125V.012039185L.21899414 .015045166C.18299866 .023040772 .17599488 .03604126 .1749878 .06803894 .17399597 .10902405 .17298889 .24501038 .17298889 .34300233 .17298889 .42399598 .1749878 .6369629 .1769867 .7080078L.16899109 .71299746C.12098694 .6959839 .069992069 .6799774 .010986328 .66796877V.65896609L.024993897 .65296939C.066986087 .634964 .07398987 .62997439 .07499695 .5989685 .07699585 .55197146 .07699585 .42999269 .07699585 .34300233 .07699585 .26501466 .07499695 .11402893 .07398987 .06803894 .07299805 .03604126 .06498718 .024032593 .02999878 .016036988L.011993408 .012039185V-.001953125Z"/>
<path id="font_1_9" d="M.30799867 .05429077C.27999879 .041290285 .25898744 .03929138 .23799134 .03929138 .19400025 .03929138 .16899109 .062301637 .16899109 .11729431 .16899109 .14828491 .17199707 .3462677 .17199707 .40527345H.30799867V.4542694H.17199707C.17298889 .4792633 .1749878 .51026919 .1769867 .54026797L.16799927 .54426577C.115997318 .4982605 .07998657 .46826173 .020996094 .42526246V.41625978L.053985597 .40826417C.07699585 .40226747 .08099365 .40026856 .08099365 .386261 .08099365 .37626649 .068984989 .13928223 .068984989 .10229492 .068984989 .02330017 .10998535-.0126953129 .17999268-.0126953129 .23098755-.0126953129 .2829895 .010299683 .30999757 .05029297L.30799867 .05429077Z"/>
<path id="font_1_6" d="M.5029907 .016036988C.46899415 .025054932 .46299745 .027053833 .46099855 .07608032 .45899964 .13511658 .45700074 .28320313 .45399476 .35025025 .44999696 .43029786 .40899659 .4873047 .32199098 .4873047 .26098634 .4873047 .21499634 .45729066 .17298889 .4032898 .17399597 .49328614 .1749878 .6519928 .1769867 .7080078L.16899109 .71299746C.12098694 .6959839 .069992069 .6799774 .010986328 .66796877V.6589813L.024993897 .6529846C.067993167 .6370239 .07398987 .6300354 .07499695 .5990906 .07699585 .5272217 .07699585 .43029786 .07699585 .33824159 .07699585 .26519776 .07398987 .114105228 .07299805 .07006836 .07199097 .03805542 .06599426 .025054932 .0289917 .016036988L.011993408 .012039185V-.001953125C.053985597 .000045776369 .09098816 .0010375977 .12799073 .0010375977 .1639862 .0010375977 .19999695 .000045776369 .23799134-.001953125V.012039185L.22599793 .014038086C.18399048 .02104187 .17599488 .027053833 .1749878 .06806946 .17399597 .10910034 .17298889 .2441864 .17298889 .35025025V.38726808C.20199585 .41029359 .23098755 .41929627 .2619934 .41929627 .35099793 .41929627 .35598756 .3642578 .3600006 .27119447 .36099244 .24517823 .36299134 .19815064 .36299134 .15112305 .36299134 .12310791 .3619995 .09408569 .36099244 .07006836 .35899354 .033050538 .35598756 .026046753 .31698609 .017044068L.29499818 .012039185V-.001953125C.33999635 .000045776369 .375 .0010375977 .41099549 .0010375977 .44299317 .0010375977 .47599793 .000045776369 .5179901-.001953125V.012039185L.5029907 .016036988Z"/>
<clipPath id="clip_2">
<path transform="matrix(1,0,0,-1,0,810)" d="M0 810H630V0H0Z"/>
</clipPath>
<clipPath id="clip_3">
<path transform="matrix(1,0,0,-1,0,810)" d="M0 810H630V0H0Z"/>
</clipPath>
<clipPath id="clip_4">
<path transform="matrix(1,0,0,-1,0,810)" d="M0 810H630V0H0Z"/>
</clipPath>
<path id="font_5_246" d="M.10499573 0V.69999697H.37800599C.43933616 .69999697 .4916687 .69032797 .53500369 .67099 .5783386 .6516622 .6116689 .6236623 .6349945 .58699038 .65833029 .55032858 .66999819 .506663 .66999819 .45599366 .66999819 .40533448 .65833029 .36183677 .6349945 .3255005 .6116689 .28916423 .5783386 .26116435 .53500369 .24150086 .4916687 .22183736 .43933616 .21200562 .37800599 .21200562H.16000366L.20500183 .2590027V0H.10499573M.20500183 .24899292 .16000366 .29899598H.375C.43899537 .29899598 .4874929 .31266276 .52049258 .33999635 .5535024 .36732994 .5700073 .4059957 .5700073 .45599366 .5700073 .5060018 .5535024 .54467269 .52049258 .5720062 .4874929 .5993398 .43899537 .6130066 .375 .6130066H.16000366L.20500183 .6629944V.24899292Z"/>
<path id="font_5_72" d="M.10499573 0V.69999697H.598999V.6130066H.20500183V.087005618H.6130066V0H.10499573M.19599915 .31300355V.397995H.55599978V.31300355H.19599915Z"/>
<path id="font_5_204" d="M.42100526-.0079956059C.36767069-.0079956059 .3181661 .0010019938 .27249146 .018997193 .22682698 .037002565 .18732707 .06216939 .1539917 .09449768 .120666507 .12683614 .094670619 .16466777 .07600403 .20799256 .057337446 .2513275 .04800415 .29866538 .04800415 .3500061 .04800415 .40133668 .057337446 .44866944 .07600403 .4920044 .094670619 .53533938 .120666507 .57317098 .1539917 .60549929 .18732707 .6378377 .22665914 .6630046 .27198792 .68099978 .31732688 .69899496 .3669993 .70799258 .42100526 .70799258 .4743398 .70799258 .52367147 .6991577 .56900027 .68148806 .61432906 .66382858 .6536611 .6388295 .68699648 .6064911 .72033187 .5741628 .746165 .53616335 .76449587 .49249269 .7828369 .44883219 .79200747 .40133668 .79200747 .3500061 .79200747 .29800416 .7828369 .2503357 .76449587 .20700073 .746165 .16366577 .72033187 .12582906 .68699648 .0934906 .6536611 .06116231 .61432906 .03616333 .56900027 .018493653 .52367147 .00083414718 .4743398-.0079956059 .42100526-.0079956059M.41999818 .08099365C.45933534 .08099365 .49550376 .08766174 .5285034 .100997928 .5615031 .11433411 .59016928 .13316854 .61450198 .15750122 .63883468 .18183391 .65783187 .21033223 .67149356 .24299622 .6851654 .27567039 .69200137 .31134034 .69200137 .3500061 .69200137 .38867188 .6851654 .4241689 .67149356 .4564972 .65783187 .48883567 .63883468 .517334 .61450198 .5419922 .59016928 .5666606 .5615031 .58566287 .5285034 .598999 .49550376 .6123352 .45933534 .6190033 .41999818 .6190033 .3813324 .6190033 .34549967 .6123352 .3125 .598999 .27950035 .58566287 .2506663 .5666606 .22599793 .5419922 .20132955 .517334 .18215943 .48883567 .16848755 .4564972 .15482585 .4241689 .147995 .38867188 .147995 .3500061 .147995 .31134034 .15482585 .27567039 .16848755 .24299622 .18215943 .21033223 .20132955 .18183391 .22599793 .15750122 .2506663 .13316854 .27950035 .11433411 .3125 .100997928 .34549967 .08766174 .3813324 .08099365 .41999818 .08099365Z"/>
<path id="font_5_167" d="M.10499573 0V.69999697H.20500183V.087005618H.58399966V0H.10499573Z"/>
<path id="font_5_2231" d="M.052993776-.147995 .102996829 .054000856 .115997318-.0039978029C.09666952-.0039978029 .08050537 .0019989014 .06750488 .01399231 .054504396 .02599589 .04800415 .042332967 .04800415 .06300354 .04800415 .083002727 .054504396 .09933472 .06750488 .11199951 .08050537 .12466431 .096338909 .1309967 .11500549 .1309967 .1343333 .1309967 .1499939 .12449646 .1619873 .11149597 .17399089 .09849548 .17999268 .08233134 .17999268 .06300354 .17999268 .056330366 .17949422 .04982503 .17849732 .04348755 .17750041 .037160238 .17583211 .029830933 .17349243 .021499634 .17116292 .013168335 .16766358 .0030008953 .16299439-.009002686L.115997318-.147995H.052993776Z"/>
<path id="font_5_2219" d="M0 0Z"/>
<path id="font_5_122" d="M.6069946 0V.69999697H.70700076V0H.6069946M.10499573 0V.69999697H.20500183V0H.10499573M.19500733 .31199647V.39900209H.6159973V.31199647H.19500733Z"/>
<path id="font_5_1" d="M-.0010070801 0 .31599427 .69999697H.4149933L.7330017 0H.628006L.34500123 .6439972H.3849945L.102005008 0H-.0010070801M.13400269 .17500305 .16099549 .25500489H.5549927L.58399966 .17500305H.13400269Z"/>
<path id="font_5_254" d="M.10499573 0V.69999697H.37800599C.4686737 .69999697 .5400035 .6784973 .59199526 .63549807 .6439972 .5924988 .66999819 .532664 .66999819 .45599366 .66999819 .40533448 .65833029 .36183677 .6349945 .3255005 .6116689 .28916423 .5783386 .26132713 .53500369 .24198914 .4916687 .22266133 .43933616 .21299744 .37800599 .21299744H.16000366L.20500183 .2590027V0H.10499573M.57299807 0 .39500428 .2539978H.5019989L.68200686 0H.57299807M.20500183 .24899292 .16000366 .29800416H.375C.43899537 .29800416 .4874929 .3118337 .52049258 .3394928 .5535024 .36716209 .5700073 .4059957 .5700073 .45599366 .5700073 .5060018 .5535024 .54467269 .52049258 .5720062 .4874929 .5993398 .43899537 .6130066 .375 .6130066H.16000366L.20500183 .6629944V.24899292Z"/>
<path id="font_5_279" d="M.2440033 0V.6130066H.0039978029V.69999697H.58299258V.6130066H.34300233V0H.2440033Z"/>
<path id="font_5_56" d="M.10499573 0V.69999697H.3999939C.47466026 .69999697 .54049178 .6853282 .5974884 .6559906 .65449526 .6266632 .6988322 .58566287 .73049929 .5329895 .7621663 .48032633 .7779999 .41933189 .7779999 .3500061 .7779999 .28067018 .7621663 .21966553 .73049929 .16699219 .6988322 .11432902 .65449526 .07332865 .5974884 .04399109 .54049178 .014663696 .47466026 0 .3999939 0H.10499573M.20500183 .087005618H.3939972C.45200096 .087005618 .50216677 .09800211 .5444946 .11999512 .5868327 .14199829 .6196645 .17283122 .6429901 .2124939 .66632589 .25216676 .6779938 .29800416 .6779938 .3500061 .6779938 .40266929 .66632589 .44866435 .6429901 .48799134 .6196645 .5273285 .5868327 .55799868 .5444946 .58000186 .50216677 .602005 .45200096 .6130066 .3939972 .6130066H.20500183V.087005618Z"/>
<path id="font_5_134" d="M.10499573 0V.69999697H.20500183V0H.10499573Z"/>
<path id="font_5_45" d="M.41799928-.0079956059C.3646647-.0079956059 .31549583 .00083414718 .27049256 .018493653 .22549947 .03616333 .1865031 .06116231 .15350342 .0934906 .120503749 .12582906 .094670619 .16366577 .07600403 .20700073 .057337446 .2503357 .04800415 .29800416 .04800415 .3500061 .04800415 .4019979 .057337446 .44966126 .07600403 .49299623 .094670619 .5363312 .120666507 .5741628 .1539917 .6064911 .18732707 .6388295 .22649639 .66382858 .27149964 .68148806 .3165029 .6991577 .36567179 .70799258 .41900636 .70799258 .4730021 .70799258 .5228322 .6988271 .5684967 .6804962 .6141612 .66216537 .6529948 .6349996 .68499758 .598999L.6199951 .5359955C.59333297 .5640004 .56333419 .5848338 .5299988 .5984955 .49666343 .61216738 .46099855 .6190033 .42300416 .6190033 .383667 .6190033 .34716288 .6123352 .31349183 .598999 .27983094 .58566287 .2506663 .5669963 .22599793 .54299929 .20132955 .51900228 .18215943 .49050395 .16848755 .45750428 .15482585 .4245046 .147995 .38867188 .147995 .3500061 .147995 .31134034 .15482585 .27550254 .16848755 .24249268 .18215943 .209493 .20132955 .18099468 .22599793 .15699768 .2506663 .13300069 .27983094 .11433411 .31349183 .100997928 .34716288 .08766174 .383667 .08099365 .42300416 .08099365 .46099855 .08099365 .49666343 .0878245 .5299988 .101486209 .56333419 .11515808 .59333297 .1363271 .6199951 .16499329L.68499758 .102005008C.6529948 .06600443 .6141612 .038670858 .5684967 .020004273 .5228322 .0013376871 .4726664-.0079956059 .41799928-.0079956059Z"/>
<path id="font_5_189" d="M.10499573 0V.69999697H.18699646L.6499939 .125H.6069946V.69999697H.70700076V0H.625L.16200257 .57499697H.20500183V0H.10499573Z"/>
<clipPath id="clip_6">
<path transform="matrix(1,0,0,-1,0,810)" d="M0 810H630V0H0Z"/>
</clipPath>
</defs>
<use data-text="S" xlink:href="#font_1_2" transform="matrix(54.0303,0,0,-54.0303,199.3027,665.3447)" fill="#356cb1"/>
<use data-text="e" xlink:href="#font_1_5" transform="matrix(54.0303,0,0,-54.0303,228.96533,665.3447)" fill="#356cb1"/>
<use data-text="c" xlink:href="#font_1_4" transform="matrix(54.0303,0,0,-54.0303,254.30554,665.3447)" fill="#356cb1"/>
<use data-text="u" xlink:href="#font_1_10" transform="matrix(54.0303,0,0,-54.0303,278.67323,665.3447)" fill="#356cb1"/>
<use data-text="r" xlink:href="#font_1_8" transform="matrix(54.0303,0,0,-54.0303,307.3633,665.3447)" fill="#356cb1"/>
<use data-text="e" xlink:href="#font_1_5" transform="matrix(54.0303,0,0,-54.0303,324.54496,665.3447)" fill="#356cb1"/>
<use data-text="H" xlink:href="#font_1_1" transform="matrix(54.0303,0,0,-54.0303,349.88517,665.3447)" fill="#3cac62"/>
<use data-text="e" xlink:href="#font_1_5" transform="matrix(54.0303,0,0,-54.0303,389.5974,665.3447)" fill="#3cac62"/>
<use data-text="a" xlink:href="#font_1_3" transform="matrix(54.0303,0,0,-54.0303,414.93763,665.3447)" fill="#3cac62"/>
<use data-text="l" xlink:href="#font_1_7" transform="matrix(54.0303,0,0,-54.0303,438.81904,665.3447)" fill="#3cac62"/>
<use data-text="t" xlink:href="#font_1_9" transform="matrix(54.0303,0,0,-54.0303,452.3266,665.3447)" fill="#3cac62"/>
<use data-text="h" xlink:href="#font_1_6" transform="matrix(54.0303,0,0,-54.0303,470.1566,665.3447)" fill="#3cac62"/>
<g clip-path="url(#clip_2)">
<path transform="matrix(1,0,0,-1,158.7064,664.385)" d="M0 0C-2.526-1.79-4.052-2.794-6.41-3.639-19.089 2.003-26.262 10.317-27.348 20.797-27.975 26.834-26.53 32.454-24.531 36.829-25.744 30.3-24.186 24.79-19.888 20.415-14.164 13.242-3.902 9.658 5.433 9.753 6.287 6.128 3.016 2.135 0 0" fill="#366eb1"/>
<path transform="matrix(1,0,0,-1,178.8083,656.6532)" d="M0 0C0-1.858-.395-3.702-1.063-5.488-5.465-7.891-10.58-9.617-16.4-10.657-17.303-10.821-18.199-10.957-19.08-11.08-19.098-11.08-19.116-11.084-19.13-11.084-19.616-11.125-20.134-11.166-20.693-11.198-16.409-8.79-14.914-7.141-12.679-3.393-9.681 1.236-10.925 6.628-15.627 9.858-17.962 11.462-20.388 12.797-23.209 13.692L-31.522 16.34C-33.194 16.872-34.884 17.195-36.029 18.644-38.896 22.264-27.916 30.464-19.012 28.751-25.63 29.383-32.118 21.606-29.828 20.275-26.044 18.076-17.799 17.313-8.336 11.92-6.723 11.003-4.924 9.881-3.33 8.586-1.113 5.96 .005 3.089 0 0" fill="#6755a4"/>
<path transform="matrix(1,0,0,-1,181.2573,659.6196)" d="M0 0C.182 .999 .277 1.99 .277 2.962 .282 6.364-.845 9.517-3.071 12.388 .145 18.194-.899 24.299-5.633 29.001-7.836 30.991-10.403 32.054-13.397 32.872-8.822 35.743-3.357 36.829 1.404 34.48 4.075 33.162 6.01 30.977 7.173 28.247 10.894 19.493 6.578 7.795 0 0" fill="#3cac62"/>
<path transform="matrix(1,0,0,-1,165.407,626.657)" d="M0 0C-11.234 3.748-23.218 .182-28.579-9.917-29.283-7.805-29.51-5.497-29.247-3.007V-2.994C-28.783-.559-27.834 1.763-26.43 3.884-24.209 7.164-20.933 9.426-16.89 10.221-9.176 11.384-2.88 6.792 0 0" fill="#366eb1"/>
<path transform="matrix(1,0,0,-1,159.356,608.831)" d="M0 0C0-2.966-2.403-5.37-5.37-5.37-8.336-5.37-10.739-2.966-10.739 0-10.739 2.966-8.336 5.37-5.37 5.37-2.403 5.37 0 2.966 0 0" fill="#366eb1"/>
<path transform="matrix(1,0,0,-1,183.66,617.317)" d="M0 0C0-2.58-2.09-4.67-4.665-4.67-7.246-4.67-9.331-2.58-9.331 0-9.331 2.576-7.246 4.665-4.665 4.665-2.09 4.665 0 2.576 0 0" fill="#3cac62"/>
</g>
<use data-text="S" xlink:href="#font_1_2" transform="matrix(54.0303,0,0,-54.0303,165.2568,230.81739)" fill="#356cb1"/>
<use data-text="e" xlink:href="#font_1_5" transform="matrix(54.0303,0,0,-54.0303,194.91944,230.81739)" fill="#356cb1"/>
<use data-text="c" xlink:href="#font_1_4" transform="matrix(54.0303,0,0,-54.0303,220.25965,230.81739)" fill="#356cb1"/>
<use data-text="u" xlink:href="#font_1_10" transform="matrix(54.0303,0,0,-54.0303,244.62732,230.81739)" fill="#356cb1"/>
<use data-text="r" xlink:href="#font_1_8" transform="matrix(54.0303,0,0,-54.0303,273.3174,230.81739)" fill="#356cb1"/>
<use data-text="e" xlink:href="#font_1_5" transform="matrix(54.0303,0,0,-54.0303,290.49906,230.81739)" fill="#356cb1"/>
<use data-text="H" xlink:href="#font_1_1" transform="matrix(54.0303,0,0,-54.0303,315.83927,230.81739)" fill="#3cac62"/>
<use data-text="e" xlink:href="#font_1_5" transform="matrix(54.0303,0,0,-54.0303,355.5515,230.81739)" fill="#3cac62"/>
<use data-text="a" xlink:href="#font_1_3" transform="matrix(54.0303,0,0,-54.0303,380.89173,230.81739)" fill="#3cac62"/>
<use data-text="l" xlink:href="#font_1_7" transform="matrix(54.0303,0,0,-54.0303,404.77314,230.81739)" fill="#3cac62"/>
<use data-text="t" xlink:href="#font_1_9" transform="matrix(54.0303,0,0,-54.0303,418.2807,230.81739)" fill="#3cac62"/>
<use data-text="h" xlink:href="#font_1_6" transform="matrix(54.0303,0,0,-54.0303,436.1107,230.81739)" fill="#3cac62"/>
<g clip-path="url(#clip_3)">
<path transform="matrix(1,0,0,-1,311.3608,177.9693)" d="M0 0C-3.196-2.265-5.127-3.535-8.111-4.604-24.154 2.535-33.231 13.054-34.605 26.316-35.398 33.955-33.57 41.066-31.041 46.601-32.575 38.341-30.604 31.368-25.166 25.833-17.923 16.756-4.938 12.221 6.875 12.341 7.956 7.754 3.817 2.702 0 0" fill="#366eb1"/>
<path transform="matrix(1,0,0,-1,336.7969,168.18579)" d="M0 0C0-2.351-.5-4.685-1.345-6.944-6.915-9.985-13.388-12.169-20.751-13.485-21.895-13.692-23.028-13.865-24.143-14.02-24.166-14.02-24.189-14.026-24.206-14.026-24.821-14.078-25.476-14.129-26.183-14.169-20.763-11.123-18.872-9.036-16.043-4.294-12.25 1.564-13.825 8.387-19.774 12.474-22.729 14.503-25.798 16.193-29.368 17.325L-39.887 20.677C-42.003 21.349-44.141 21.757-45.59 23.591-49.217 28.172-35.323 38.548-24.057 36.381-32.432 37.18-40.64 27.339-37.743 25.655-32.955 22.872-22.522 21.907-10.548 15.083-8.507 13.922-6.231 12.503-4.214 10.864-1.408 7.542 .006 3.909 0 0" fill="#6755a4"/>
<path transform="matrix(1,0,0,-1,339.8958,171.93939)" d="M0 0C.23 1.265 .351 2.518 .351 3.748 .356 8.053-1.069 12.043-3.886 15.676 .184 23.022-1.138 30.747-7.128 36.697-9.916 39.215-13.164 40.56-16.952 41.594-11.163 45.227-4.248 46.601 1.776 43.629 5.156 41.962 7.605 39.197 9.076 35.743 13.784 24.666 8.323 9.864 0 0" fill="#3cac62"/>
<path transform="matrix(1,0,0,-1,319.8395,130.22992)" d="M0 0C-14.215 4.742-29.379 .23-36.162-12.549-37.053-9.876-37.341-6.955-37.007-3.805V-3.788C-36.421-.707-35.22 2.23-33.443 4.915-30.633 9.065-26.488 11.928-21.372 12.934-11.611 14.405-3.644 8.594 0 0" fill="#366eb1"/>
<path transform="matrix(1,0,0,-1,312.1828,107.67383)" d="M0 0C0-3.754-3.041-6.794-6.794-6.794-10.548-6.794-13.589-3.754-13.589 0-13.589 3.754-10.548 6.794-6.794 6.794-3.041 6.794 0 3.754 0 0" fill="#366eb1"/>
<path transform="matrix(1,0,0,-1,342.936,118.4115)" d="M0 0C0-3.265-2.644-5.909-5.903-5.909-9.168-5.909-11.807-3.265-11.807 0-11.807 3.259-9.168 5.903-5.903 5.903-2.644 5.903 0 3.259 0 0" fill="#3cac62"/>
</g>
<use data-text="S" xlink:href="#font_1_2" transform="matrix(69.0995,0,0,-69.0995,272.1309,405.1816)" fill="#356cb1"/>
<use data-text="e" xlink:href="#font_1_5" transform="matrix(69.0995,0,0,-69.0995,310.06654,405.1816)" fill="#356cb1"/>
<use data-text="c" xlink:href="#font_1_4" transform="matrix(69.0995,0,0,-69.0995,342.47419,405.1816)" fill="#356cb1"/>
<use data-text="u" xlink:href="#font_1_10" transform="matrix(69.0995,0,0,-69.0995,373.63807,405.1816)" fill="#356cb1"/>
<use data-text="r" xlink:href="#font_1_8" transform="matrix(69.0995,0,0,-69.0995,410.3299,405.1816)" fill="#356cb1"/>
<use data-text="e" xlink:href="#font_1_5" transform="matrix(69.0995,0,0,-69.0995,432.30354,405.1816)" fill="#356cb1"/>
<use data-text="H" xlink:href="#font_1_1" transform="matrix(69.0995,0,0,-69.0995,272.1309,462.7415)" fill="#3cac62"/>
<use data-text="e" xlink:href="#font_1_5" transform="matrix(69.0995,0,0,-69.0995,322.91905,462.7415)" fill="#3cac62"/>
<use data-text="a" xlink:href="#font_1_3" transform="matrix(69.0995,0,0,-69.0995,355.32673,462.7415)" fill="#3cac62"/>
<use data-text="l" xlink:href="#font_1_7" transform="matrix(69.0995,0,0,-69.0995,385.8687,462.7415)" fill="#3cac62"/>
<use data-text="t" xlink:href="#font_1_9" transform="matrix(69.0995,0,0,-69.0995,403.1436,462.7415)" fill="#3cac62"/>
<use data-text="h" xlink:href="#font_1_6" transform="matrix(69.0995,0,0,-69.0995,425.9464,462.7415)" fill="#3cac62"/>
<g clip-path="url(#clip_4)">
<path transform="matrix(1,0,0,-1,208.43,454.4779)" d="M0 0C-3.963-2.808-6.358-4.383-10.057-5.709-29.949 3.143-41.203 16.186-42.906 32.629-43.89 42.101-41.623 50.917-38.487 57.781-40.39 47.539-37.946 38.894-31.203 32.03-22.223 20.776-6.122 15.153 8.524 15.302 9.864 9.615 4.733 3.35 0 0" fill="#366eb1"/>
<path transform="matrix(1,0,0,-1,239.9683,442.3472)" d="M0 0C0-2.915-.62-5.809-1.668-8.61-8.574-12.38-16.6-15.089-25.73-16.721-27.148-16.977-28.552-17.191-29.935-17.384-29.963-17.384-29.992-17.391-30.013-17.391-30.776-17.455-31.588-17.519-32.465-17.569-25.744-13.791-23.399-11.204-19.892-5.324-15.188 1.939-17.141 10.399-24.518 15.466-28.181 17.982-31.987 20.078-36.413 21.482L-49.456 25.637C-52.079 26.471-54.731 26.977-56.527 29.25-61.024 34.931-43.797 47.796-29.828 45.109-40.212 46.099-50.39 33.897-46.798 31.809-40.861 28.36-27.925 27.162-13.079 18.702-10.548 17.262-7.726 15.502-5.224 13.471-1.746 9.351 .007 4.847 0 0" fill="#6755a4"/>
<path transform="matrix(1,0,0,-1,243.8106,447.0013)" d="M0 0C.285 1.568 .435 3.122 .435 4.647 .442 9.985-1.326 14.932-4.818 19.436 .228 28.545-1.411 38.124-8.838 45.501-12.295 48.622-16.322 50.29-21.019 51.573-13.841 56.078-5.267 57.781 2.202 54.096 6.393 52.029 9.429 48.601 11.254 44.318 17.091 30.583 10.32 12.23 0 0" fill="#3cac62"/>
<path transform="matrix(1,0,0,-1,218.9427,395.2856)" d="M0 0C-17.626 5.88-36.428 .285-44.838-15.559-45.943-12.245-46.299-8.624-45.886-4.718V-4.697C-45.159-.877-43.669 2.765-41.467 6.094-37.981 11.24-32.843 14.789-26.499 16.036-14.397 17.861-4.519 10.655 0 0" fill="#366eb1"/>
<path transform="matrix(1,0,0,-1,209.4491,367.3181)" d="M0 0C0-4.654-3.77-8.424-8.424-8.424-13.079-8.424-16.849-4.654-16.849 0-16.849 4.654-13.079 8.424-8.424 8.424-3.77 8.424 0 4.654 0 0" fill="#366eb1"/>
<path transform="matrix(1,0,0,-1,247.5802,380.6319)" d="M0 0C0-4.048-3.278-7.327-7.32-7.327-11.368-7.327-14.639-4.048-14.639 0-14.639 4.041-11.368 7.32-7.32 7.32-3.278 7.32 0 4.041 0 0" fill="#3cac62"/>
</g>
<use data-text="P" xlink:href="#font_5_246" transform="matrix(14,0,0,-14,214.6709,742.2734)" fill="#231f20"/>
<use data-text="E" xlink:href="#font_5_72" transform="matrix(14,0,0,-14,224.6389,742.2734)" fill="#231f20"/>
<use data-text="O" xlink:href="#font_5_204" transform="matrix(14,0,0,-14,234.0049,742.2734)" fill="#231f20"/>
<use data-text="P" xlink:href="#font_5_246" transform="matrix(14,0,0,-14,245.7649,742.2734)" fill="#231f20"/>
<use data-text="L" xlink:href="#font_5_167" transform="matrix(14,0,0,-14,255.7329,742.2734)" fill="#231f20"/>
<use data-text="E" xlink:href="#font_5_72" transform="matrix(14,0,0,-14,264.0489,742.2734)" fill="#231f20"/>
<use data-text="," xlink:href="#font_5_2231" transform="matrix(14,0,0,-14,273.5689,742.2734)" fill="#231f20"/>
<use data-text=" " xlink:href="#font_5_2219" transform="matrix(14,0,0,-14,276.74693,742.2734)" fill="#231f20"/>
<use data-text="H" xlink:href="#font_5_122" transform="matrix(14,0,0,-14,280.5129,742.2734)" fill="#231f20"/>
<use data-text="E" xlink:href="#font_5_72" transform="matrix(14,0,0,-14,291.88093,742.2734)" fill="#231f20"/>
<use data-text="A" xlink:href="#font_5_1" transform="matrix(14,0,0,-14,301.26094,742.2734)" fill="#231f20"/>
<use data-text="R" xlink:href="#font_5_254" transform="matrix(14,0,0,-14,311.5089,742.2734)" fill="#231f20"/>
<use data-text="T" xlink:href="#font_5_279" transform="matrix(14,0,0,-14,321.5469,742.2734)" fill="#231f20"/>
<use data-text="," xlink:href="#font_5_2231" transform="matrix(14,0,0,-14,329.3183,742.2734)" fill="#231f20"/>
<use data-text=" " xlink:href="#font_5_2219" transform="matrix(14,0,0,-14,332.4963,742.2734)" fill="#231f20"/>
<use data-text="D" xlink:href="#font_5_56" transform="matrix(14,0,0,-14,336.2623,742.2734)" fill="#231f20"/>
<use data-text="I" xlink:href="#font_5_134" transform="matrix(14,0,0,-14,347.8263,742.2734)" fill="#231f20"/>
<use data-text="R" xlink:href="#font_5_254" transform="matrix(14,0,0,-14,352.1663,742.2734)" fill="#231f20"/>
<use data-text="E" xlink:href="#font_5_72" transform="matrix(14,0,0,-14,362.3443,742.2734)" fill="#231f20"/>
<use data-text="C" xlink:href="#font_5_45" transform="matrix(14,0,0,-14,371.7103,742.2734)" fill="#231f20"/>
<use data-text="T" xlink:href="#font_5_279" transform="matrix(14,0,0,-14,381.45429,742.2734)" fill="#231f20"/>
<use data-text="I" xlink:href="#font_5_134" transform="matrix(14,0,0,-14,389.67228,742.2734)" fill="#231f20"/>
<use data-text="O" xlink:href="#font_5_204" transform="matrix(14,0,0,-14,394.01228,742.2734)" fill="#231f20"/>
<use data-text="N" xlink:href="#font_5_189" transform="matrix(14,0,0,-14,405.77229,742.2734)" fill="#231f20"/>
<g clip-path="url(#clip_6)">
<path transform="matrix(1,0,0,-1,92.2827,300.5341)" stroke-width="1" stroke-linecap="butt" stroke-miterlimit="10" stroke-linejoin="miter" fill="none" stroke="#231f20" d="M0 0H445.435"/>
<path transform="matrix(1,0,0,-1,92.2827,536.1963)" stroke-width="1" stroke-linecap="butt" stroke-miterlimit="10" stroke-linejoin="miter" fill="none" stroke="#231f20" d="M0 0H445.435"/>
</g>
</svg>
