<svg xmlns="http://www.w3.org/2000/svg" xmlns:xlink="http://www.w3.org/1999/xlink" xmlns:inkscape="http://www.inkscape.org/namespaces/inkscape" version="1.1" width="630" height="810" viewBox="0 0 630 810">
<defs>
<path id="font_1_7" d="M.31900025-.01701355C.48599244-.01701355 .5970001 .07699585 .5970001 .20799256 .5970001 .35198976 .46899415 .4039917 .35798646 .43598939 .27198792 .46099855 .23298645 .47299195 .23298645 .5209961 .23298645 .56399539 .2709961 .59098818 .33198548 .59098818 .394989 .59098818 .45199586 .5669861 .4909973 .5239868L.6049957 .6309967C.54299929 .69299319 .44198609 .7279968 .33499146 .7279968 .17298889 .7279968 .07299805 .6469879 .07299805 .5139923 .07299805 .37399293 .18099976 .33299256 .31098939 .2899933 .3999939 .26098634 .43699647 .24499512 .43699647 .19699097 .43699647 .147995 .394989 .11999512 .32299806 .11999512 .24899292 .11999512 .19599915 .14898682 .14698792 .20298767L.032989503 .09498596C.10398865 .023986817 .20999146-.01701355 .31900025-.01701355Z"/>
<path id="font_1_3" d="M.070999149 0H.598999V.13699341H.23298645V.2939911H.55400088V.43099977H.23298645V.57299807H.598999V.70999148H.070999149V0Z"/>
<path id="font_1_2" d="M.4139862-.01701355C.5589905-.01701355 .6729889 .04399109 .73599246 .1639862L.59098818 .24099732C.5529938 .1619873 .49398805 .12199402 .4139862 .12199402 .28799439 .12199402 .20999146 .21199036 .20999146 .35598756 .20999146 .5 .28799439 .58999636 .4139862 .58999636 .48599244 .58999636 .54100039 .5569916 .5799866 .49299623L.71499636 .58499148C.6519928 .6769867 .5479889 .72898867 .41299439 .72898867 .18598938 .72898867 .04598999 .58898928 .04598999 .35699464 .04598999 .125 .18598938-.01701355 .4139862-.01701355Z"/>
<path id="font_1_9" d="M.36099244-.018005372C.5399933-.018005372 .6589966 .08299255 .6589966 .2709961V.70999148H.49699403V.2659912C.49699403 .17098999 .44499208 .12098694 .36099244 .12098694 .2769928 .12098694 .22499085 .17098999 .22499085 .2659912V.70999148H.06298828V.2709961C.06298828 .083999637 .18199158-.018005372 .36099244-.018005372Z"/>
<path id="font_1_6" d="M.070999149 0H.23298645V.24899292H.34899903L.47299195 0H.6519928L.5109863 .27598573C.59098818 .31498719 .6339874 .3939972 .6339874 .4850006 .6339874 .6029968 .5519867 .70999148 .37998963 .70999148H.070999149V0M.23298645 .38398744V.57499697H.35798646C.44099427 .57499697 .47099305 .5349884 .47099305 .48298646 .47099305 .42399598 .43499757 .38398744 .36999513 .38398744H.23298645Z"/>
<path id="font_1_4" d="M.070999149 0H.23298645V.28799439H.522995V0H.68499758V.70999148H.522995V.42599488H.23298645V.70999148H.070999149V0Z"/>
<path id="font_1_1" d="M.018997193 0H.18699646L.24499512 .16699219H.522995L.5799866 0H.7509918L.48098756 .70999148H.2869873L.018997193 0M.29100038 .3019867 .38398744 .57299807 .47698976 .3019867H.29100038Z"/>
<path id="font_1_5" d="M.070999149 0H.56900027V.13899231H.23298645V.70999148H.070999149V0Z"/>
<path id="font_1_8" d="M.23999024 0H.4019928V.56999209H.6199951V.70999148H.021987915V.56999209H.23999024V0Z"/>
<clipPath id="clip_2">
<path transform="matrix(1,0,0,-1,0,810)" d="M0 810H630V0H0Z"/>
</clipPath>
<clipPath id="clip_3">
<path transform="matrix(1,0,0,-1,0,810)" d="M0 810H630V0H0Z"/>
</clipPath>
<path id="font_4_246" d="M.10499573 0V.69999697H.37800599C.43933616 .69999697 .4916687 .69032797 .53500369 .67099 .5783386 .6516622 .6116689 .6236623 .6349945 .58699038 .65833029 .55032858 .66999819 .506663 .66999819 .45599366 .66999819 .40533448 .65833029 .36183677 .6349945 .3255005 .6116689 .28916423 .5783386 .26116435 .53500369 .24150086 .4916687 .22183736 .43933616 .21200562 .37800599 .21200562H.16000366L.20500183 .2590027V0H.10499573M.20500183 .24899292 .16000366 .29899598H.375C.43899537 .29899598 .4874929 .31266276 .52049258 .33999635 .5535024 .36732994 .5700073 .4059957 .5700073 .45599366 .5700073 .5060018 .5535024 .54467269 .52049258 .5720062 .4874929 .5993398 .43899537 .6130066 .375 .6130066H.16000366L.20500183 .6629944V.24899292Z"/>
<path id="font_4_72" d="M.10499573 0V.69999697H.598999V.6130066H.20500183V.087005618H.6130066V0H.10499573M.19599915 .31300355V.397995H.55599978V.31300355H.19599915Z"/>
<path id="font_4_204" d="M.42100526-.0079956059C.36767069-.0079956059 .3181661 .0010019938 .27249146 .018997193 .22682698 .037002565 .18732707 .06216939 .1539917 .09449768 .120666507 .12683614 .094670619 .16466777 .07600403 .20799256 .057337446 .2513275 .04800415 .29866538 .04800415 .3500061 .04800415 .40133668 .057337446 .44866944 .07600403 .4920044 .094670619 .53533938 .120666507 .57317098 .1539917 .60549929 .18732707 .6378377 .22665914 .6630046 .27198792 .68099978 .31732688 .69899496 .3669993 .70799258 .42100526 .70799258 .4743398 .70799258 .52367147 .6991577 .56900027 .68148806 .61432906 .66382858 .6536611 .6388295 .68699648 .6064911 .72033187 .5741628 .746165 .53616335 .76449587 .49249269 .7828369 .44883219 .79200747 .40133668 .79200747 .3500061 .79200747 .29800416 .7828369 .2503357 .76449587 .20700073 .746165 .16366577 .72033187 .12582906 .68699648 .0934906 .6536611 .06116231 .61432906 .03616333 .56900027 .018493653 .52367147 .00083414718 .4743398-.0079956059 .42100526-.0079956059M.41999818 .08099365C.45933534 .08099365 .49550376 .08766174 .5285034 .100997928 .5615031 .11433411 .59016928 .13316854 .61450198 .15750122 .63883468 .18183391 .65783187 .21033223 .67149356 .24299622 .6851654 .27567039 .69200137 .31134034 .69200137 .3500061 .69200137 .38867188 .6851654 .4241689 .67149356 .4564972 .65783187 .48883567 .63883468 .517334 .61450198 .5419922 .59016928 .5666606 .5615031 .58566287 .5285034 .598999 .49550376 .6123352 .45933534 .6190033 .41999818 .6190033 .3813324 .6190033 .34549967 .6123352 .3125 .598999 .27950035 .58566287 .2506663 .5666606 .22599793 .5419922 .20132955 .517334 .18215943 .48883567 .16848755 .4564972 .15482585 .4241689 .147995 .38867188 .147995 .3500061 .147995 .31134034 .15482585 .27567039 .16848755 .24299622 .18215943 .21033223 .20132955 .18183391 .22599793 .15750122 .2506663 .13316854 .27950035 .11433411 .3125 .100997928 .34549967 .08766174 .3813324 .08099365 .41999818 .08099365Z"/>
<path id="font_4_167" d="M.10499573 0V.69999697H.20500183V.087005618H.58399966V0H.10499573Z"/>
<path id="font_4_2231" d="M.052993776-.147995 .102996829 .054000856 .115997318-.0039978029C.09666952-.0039978029 .08050537 .0019989014 .06750488 .01399231 .054504396 .02599589 .04800415 .042332967 .04800415 .06300354 .04800415 .083002727 .054504396 .09933472 .06750488 .11199951 .08050537 .12466431 .096338909 .1309967 .11500549 .1309967 .1343333 .1309967 .1499939 .12449646 .1619873 .11149597 .17399089 .09849548 .17999268 .08233134 .17999268 .06300354 .17999268 .056330366 .17949422 .04982503 .17849732 .04348755 .17750041 .037160238 .17583211 .029830933 .17349243 .021499634 .17116292 .013168335 .16766358 .0030008953 .16299439-.009002686L.115997318-.147995H.052993776Z"/>
<path id="font_4_2219" d="M0 0Z"/>
<path id="font_4_122" d="M.6069946 0V.69999697H.70700076V0H.6069946M.10499573 0V.69999697H.20500183V0H.10499573M.19500733 .31199647V.39900209H.6159973V.31199647H.19500733Z"/>
<path id="font_4_1" d="M-.0010070801 0 .31599427 .69999697H.4149933L.7330017 0H.628006L.34500123 .6439972H.3849945L.102005008 0H-.0010070801M.13400269 .17500305 .16099549 .25500489H.5549927L.58399966 .17500305H.13400269Z"/>
<path id="font_4_254" d="M.10499573 0V.69999697H.37800599C.4686737 .69999697 .5400035 .6784973 .59199526 .63549807 .6439972 .5924988 .66999819 .532664 .66999819 .45599366 .66999819 .40533448 .65833029 .36183677 .6349945 .3255005 .6116689 .28916423 .5783386 .26132713 .53500369 .24198914 .4916687 .22266133 .43933616 .21299744 .37800599 .21299744H.16000366L.20500183 .2590027V0H.10499573M.57299807 0 .39500428 .2539978H.5019989L.68200686 0H.57299807M.20500183 .24899292 .16000366 .29800416H.375C.43899537 .29800416 .4874929 .3118337 .52049258 .3394928 .5535024 .36716209 .5700073 .4059957 .5700073 .45599366 .5700073 .5060018 .5535024 .54467269 .52049258 .5720062 .4874929 .5993398 .43899537 .6130066 .375 .6130066H.16000366L.20500183 .6629944V.24899292Z"/>
<path id="font_4_279" d="M.2440033 0V.6130066H.0039978029V.69999697H.58299258V.6130066H.34300233V0H.2440033Z"/>
<path id="font_4_56" d="M.10499573 0V.69999697H.3999939C.47466026 .69999697 .54049178 .6853282 .5974884 .6559906 .65449526 .6266632 .6988322 .58566287 .73049929 .5329895 .7621663 .48032633 .7779999 .41933189 .7779999 .3500061 .7779999 .28067018 .7621663 .21966553 .73049929 .16699219 .6988322 .11432902 .65449526 .07332865 .5974884 .04399109 .54049178 .014663696 .47466026 0 .3999939 0H.10499573M.20500183 .087005618H.3939972C.45200096 .087005618 .50216677 .09800211 .5444946 .11999512 .5868327 .14199829 .6196645 .17283122 .6429901 .2124939 .66632589 .25216676 .6779938 .29800416 .6779938 .3500061 .6779938 .40266929 .66632589 .44866435 .6429901 .48799134 .6196645 .5273285 .5868327 .55799868 .5444946 .58000186 .50216677 .602005 .45200096 .6130066 .3939972 .6130066H.20500183V.087005618Z"/>
<path id="font_4_134" d="M.10499573 0V.69999697H.20500183V0H.10499573Z"/>
<path id="font_4_45" d="M.41799928-.0079956059C.3646647-.0079956059 .31549583 .00083414718 .27049256 .018493653 .22549947 .03616333 .1865031 .06116231 .15350342 .0934906 .120503749 .12582906 .094670619 .16366577 .07600403 .20700073 .057337446 .2503357 .04800415 .29800416 .04800415 .3500061 .04800415 .4019979 .057337446 .44966126 .07600403 .49299623 .094670619 .5363312 .120666507 .5741628 .1539917 .6064911 .18732707 .6388295 .22649639 .66382858 .27149964 .68148806 .3165029 .6991577 .36567179 .70799258 .41900636 .70799258 .4730021 .70799258 .5228322 .6988271 .5684967 .6804962 .6141612 .66216537 .6529948 .6349996 .68499758 .598999L.6199951 .5359955C.59333297 .5640004 .56333419 .5848338 .5299988 .5984955 .49666343 .61216738 .46099855 .6190033 .42300416 .6190033 .383667 .6190033 .34716288 .6123352 .31349183 .598999 .27983094 .58566287 .2506663 .5669963 .22599793 .54299929 .20132955 .51900228 .18215943 .49050395 .16848755 .45750428 .15482585 .4245046 .147995 .38867188 .147995 .3500061 .147995 .31134034 .15482585 .27550254 .16848755 .24249268 .18215943 .209493 .20132955 .18099468 .22599793 .15699768 .2506663 .13300069 .27983094 .11433411 .31349183 .100997928 .34716288 .08766174 .383667 .08099365 .42300416 .08099365 .46099855 .08099365 .49666343 .0878245 .5299988 .101486209 .56333419 .11515808 .59333297 .1363271 .6199951 .16499329L.68499758 .102005008C.6529948 .06600443 .6141612 .038670858 .5684967 .020004273 .5228322 .0013376871 .4726664-.0079956059 .41799928-.0079956059Z"/>
<path id="font_4_189" d="M.10499573 0V.69999697H.18699646L.6499939 .125H.6069946V.69999697H.70700076V0H.625L.16200257 .57499697H.20500183V0H.10499573Z"/>
<clipPath id="clip_5">
<path transform="matrix(1,0,0,-1,0,810)" d="M0 810H630V0H0Z"/>
</clipPath>
</defs>
<use data-text="S" xlink:href="#font_1_7" transform="matrix(64.8518,0,0,-64.8518,174.1426,309.0674)" fill="#366eb1"/>
<use data-text="E" xlink:href="#font_1_3" transform="matrix(64.8518,0,0,-64.8518,219.3443,309.0674)" fill="#366eb1"/>
<use data-text="C" xlink:href="#font_1_2" transform="matrix(64.8518,0,0,-64.8518,263.8975,309.0674)" fill="#366eb1"/>
<use data-text="U" xlink:href="#font_1_9" transform="matrix(64.8518,0,0,-64.8518,317.2057,309.0674)" fill="#366eb1"/>
<use data-text="R" xlink:href="#font_1_6" transform="matrix(64.8518,0,0,-64.8518,367.72526,309.0674)" fill="#366eb1"/>
<use data-text="E" xlink:href="#font_1_3" transform="matrix(64.8518,0,0,-64.8518,415.0022,309.0674)" fill="#366eb1"/>
<use data-text="H" xlink:href="#font_1_4" transform="matrix(36.9501,0,0,-36.9501,204.667,348.2129)" fill="#3cac62"/>
<use data-text="E" xlink:href="#font_1_3" transform="matrix(36.9501,0,0,-36.9501,246.86403,348.2129)" fill="#3cac62"/>
<use data-text="A" xlink:href="#font_1_1" transform="matrix(36.9501,0,0,-36.9501,284.40534,348.2129)" fill="#3cac62"/>
<use data-text="L" xlink:href="#font_1_5" transform="matrix(36.9501,0,0,-36.9501,327.15663,348.2129)" fill="#3cac62"/>
<use data-text="T" xlink:href="#font_1_8" transform="matrix(36.9501,0,0,-36.9501,359.41407,348.2129)" fill="#3cac62"/>
<use data-text="H" xlink:href="#font_1_4" transform="matrix(36.9501,0,0,-36.9501,397.39878,348.2129)" fill="#3cac62"/>
<g clip-path="url(#clip_2)">
<path transform="matrix(1,0,0,-1,311.0349,232.36212)" d="M0 0C-5.56-3.94-8.92-6.15-14.11-8.01-42.02 4.41-57.81 22.71-60.2 45.78-61.58 59.07-58.4 71.44-54 81.07-56.67 66.7-53.24 54.57-43.78 44.94-31.18 29.15-8.59 21.26 11.96 21.47 13.84 13.49 6.64 4.7 0 0" fill="#366eb1"/>
<path transform="matrix(1,0,0,-1,355.2849,215.3421)" d="M0 0C0-4.09-.87-8.15-2.34-12.08-12.03-17.37-23.29-21.17-36.1-23.46-38.09-23.82-40.06-24.12-42-24.39-42.04-24.39-42.08-24.4-42.11-24.4-43.18-24.49-44.32-24.58-45.55-24.65-36.12-19.35-32.83-15.72-27.91-7.47-21.31 2.72-24.05 14.59-34.4 21.7-39.54 25.23-44.88 28.17-51.09 30.14L-69.39 35.97C-73.07 37.14-76.79 37.85-79.31 41.04-85.62 49.01-61.45 67.06-41.85 63.29-56.42 64.68-70.7 47.56-65.66 44.63-57.33 39.79-39.18 38.11-18.35 26.24-14.8 24.22-10.84 21.75-7.33 18.9-2.45 13.12 .01 6.8 0 0" fill="#6755a4"/>
<path transform="matrix(1,0,0,-1,360.6758,221.87207)" d="M0 0C.4 2.2 .61 4.38 .61 6.52 .62 14.01-1.86 20.95-6.76 27.27 .32 40.05-1.98 53.49-12.4 63.84-17.25 68.22-22.9 70.56-29.49 72.36-19.42 78.68-7.39 81.07 3.09 75.9 8.97 73 13.23 68.19 15.79 62.18 23.98 42.91 14.48 17.16 0 0" fill="#3cac62"/>
<path transform="matrix(1,0,0,-1,325.7849,149.31208)" d="M0 0C-24.73 8.25-51.11 .4-62.91-21.83-64.46-17.18-64.96-12.1-64.38-6.62V-6.59C-63.36-1.23-61.27 3.88-58.18 8.55-53.29 15.77-46.08 20.75-37.18 22.5-20.2 25.06-6.34 14.95 0 0" fill="#366eb1"/>
<path transform="matrix(1,0,0,-1,312.4648,110.07208)" d="M0 0C0-6.53-5.29-11.82-11.82-11.82-18.35-11.82-23.64-6.53-23.64 0-23.64 6.53-18.35 11.82-11.82 11.82-5.29 11.82 0 6.53 0 0" fill="#366eb1"/>
<path transform="matrix(1,0,0,-1,365.9648,128.75208)" d="M0 0C0-5.68-4.6-10.28-10.27-10.28-15.95-10.28-20.54-5.68-20.54 0-20.54 5.67-15.95 10.27-10.27 10.27-4.6 10.27 0 5.67 0 0" fill="#3cac62"/>
</g>
<use data-text="S" xlink:href="#font_1_7" transform="matrix(64.8518,0,0,-64.8518,231.4619,583.6426)" fill="#366eb1"/>
<use data-text="E" xlink:href="#font_1_3" transform="matrix(64.8518,0,0,-64.8518,276.6636,583.6426)" fill="#366eb1"/>
<use data-text="C" xlink:href="#font_1_2" transform="matrix(64.8518,0,0,-64.8518,321.2168,583.6426)" fill="#366eb1"/>
<use data-text="U" xlink:href="#font_1_9" transform="matrix(64.8518,0,0,-64.8518,374.52497,583.6426)" fill="#366eb1"/>
<use data-text="R" xlink:href="#font_1_6" transform="matrix(64.8518,0,0,-64.8518,425.04454,583.6426)" fill="#366eb1"/>
<use data-text="E" xlink:href="#font_1_3" transform="matrix(64.8518,0,0,-64.8518,472.32148,583.6426)" fill="#366eb1"/>
<use data-text="H" xlink:href="#font_1_4" transform="matrix(36.9501,0,0,-36.9501,261.9863,622.7881)" fill="#3cac62"/>
<use data-text="E" xlink:href="#font_1_3" transform="matrix(36.9501,0,0,-36.9501,304.18333,622.7881)" fill="#3cac62"/>
<use data-text="A" xlink:href="#font_1_1" transform="matrix(36.9501,0,0,-36.9501,341.7246,622.7881)" fill="#3cac62"/>
<use data-text="L" xlink:href="#font_1_5" transform="matrix(36.9501,0,0,-36.9501,384.4759,622.7881)" fill="#3cac62"/>
<use data-text="T" xlink:href="#font_1_8" transform="matrix(36.9501,0,0,-36.9501,416.73335,622.7881)" fill="#3cac62"/>
<use data-text="H" xlink:href="#font_1_4" transform="matrix(36.9501,0,0,-36.9501,454.71806,622.7881)" fill="#3cac62"/>
<g clip-path="url(#clip_3)">
<path transform="matrix(1,0,0,-1,165.8798,614.4836)" d="M0 0C-4.506-3.193-7.23-4.985-11.436-6.492-34.057 3.574-46.855 18.406-48.792 37.104-49.91 47.876-47.333 57.901-43.766 65.706-45.93 54.06-43.151 44.228-35.483 36.423-25.271 23.626-6.962 17.231 9.693 17.401 11.217 10.934 5.382 3.809 0 0" fill="#366eb1"/>
<path transform="matrix(1,0,0,-1,201.744,600.6891)" d="M0 0C0-3.315-.705-6.605-1.896-9.791-9.75-14.078-18.876-17.158-29.259-19.014-30.871-19.306-32.468-19.549-34.041-19.768-34.073-19.768-34.106-19.776-34.13-19.776-34.997-19.849-35.921-19.922-36.918-19.979-29.275-15.683-26.608-12.741-22.621-6.054-17.272 2.205-19.492 11.825-27.881 17.588-32.047 20.449-36.375 22.832-41.408 24.428L-56.24 29.153C-59.223 30.102-62.238 30.677-64.28 33.263-69.394 39.722-49.805 54.352-33.919 51.296-45.728 52.423-57.302 38.547-53.217 36.172-46.465 32.249-31.755 30.888-14.873 21.267-11.995 19.63-8.786 17.628-5.941 15.318-1.986 10.634 .008 5.511 0 0" fill="#6755a4"/>
<path transform="matrix(1,0,0,-1,206.1133,605.98159)" d="M0 0C.324 1.783 .494 3.55 .494 5.284 .502 11.355-1.508 16.98-5.479 22.102 .259 32.46-1.605 43.353-10.05 51.742-13.981 55.292-18.56 57.188-23.902 58.647-15.74 63.769-5.99 65.707 2.504 61.516 7.27 59.166 10.723 55.267 12.797 50.396 19.436 34.778 11.736 13.908 0 0" fill="#3cac62"/>
<path transform="matrix(1,0,0,-1,177.8345,547.17239)" d="M0 0C-20.043 6.687-41.424 .324-50.988-17.693-52.244-13.924-52.649-9.807-52.179-5.365V-5.341C-51.353-.997-49.659 3.145-47.154 6.93-43.191 12.781-37.347 16.818-30.134 18.236-16.372 20.311-5.138 12.117 0 0" fill="#366eb1"/>
<path transform="matrix(1,0,0,-1,167.0387,515.3687)" d="M0 0C0-5.293-4.287-9.58-9.58-9.58-14.872-9.58-19.16-5.293-19.16 0-19.16 5.292-14.872 9.58-9.58 9.58-4.287 9.58 0 5.292 0 0" fill="#366eb1"/>
<path transform="matrix(1,0,0,-1,210.4,530.50869)" d="M0 0C0-4.604-3.728-8.332-8.324-8.332-12.927-8.332-16.647-4.604-16.647 0-16.647 4.595-12.927 8.324-8.324 8.324-3.728 8.324 0 4.595 0 0" fill="#3cac62"/>
</g>
<use data-text="P" xlink:href="#font_4_246" transform="matrix(14,0,0,-14,214.6699,742.2734)" fill="#231f20"/>
<use data-text="E" xlink:href="#font_4_72" transform="matrix(14,0,0,-14,224.63791,742.2734)" fill="#231f20"/>
<use data-text="O" xlink:href="#font_4_204" transform="matrix(14,0,0,-14,234.0039,742.2734)" fill="#231f20"/>
<use data-text="P" xlink:href="#font_4_246" transform="matrix(14,0,0,-14,245.7639,742.2734)" fill="#231f20"/>
<use data-text="L" xlink:href="#font_4_167" transform="matrix(14,0,0,-14,255.7319,742.2734)" fill="#231f20"/>
<use data-text="E" xlink:href="#font_4_72" transform="matrix(14,0,0,-14,264.0479,742.2734)" fill="#231f20"/>
<use data-text="," xlink:href="#font_4_2231" transform="matrix(14,0,0,-14,273.56794,742.2734)" fill="#231f20"/>
<use data-text=" " xlink:href="#font_4_2219" transform="matrix(14,0,0,-14,276.74595,742.2734)" fill="#231f20"/>
<use data-text="H" xlink:href="#font_4_122" transform="matrix(14,0,0,-14,280.51194,742.2734)" fill="#231f20"/>
<use data-text="E" xlink:href="#font_4_72" transform="matrix(14,0,0,-14,291.87995,742.2734)" fill="#231f20"/>
<use data-text="A" xlink:href="#font_4_1" transform="matrix(14,0,0,-14,301.25996,742.2734)" fill="#231f20"/>
<use data-text="R" xlink:href="#font_4_254" transform="matrix(14,0,0,-14,311.50794,742.2734)" fill="#231f20"/>
<use data-text="T" xlink:href="#font_4_279" transform="matrix(14,0,0,-14,321.54594,742.2734)" fill="#231f20"/>
<use data-text="," xlink:href="#font_4_2231" transform="matrix(14,0,0,-14,329.31733,742.2734)" fill="#231f20"/>
<use data-text=" " xlink:href="#font_4_2219" transform="matrix(14,0,0,-14,332.49534,742.2734)" fill="#231f20"/>
<use data-text="D" xlink:href="#font_4_56" transform="matrix(14,0,0,-14,336.26133,742.2734)" fill="#231f20"/>
<use data-text="I" xlink:href="#font_4_134" transform="matrix(14,0,0,-14,347.82533,742.2734)" fill="#231f20"/>
<use data-text="R" xlink:href="#font_4_254" transform="matrix(14,0,0,-14,352.1653,742.2734)" fill="#231f20"/>
<use data-text="E" xlink:href="#font_4_72" transform="matrix(14,0,0,-14,362.34333,742.2734)" fill="#231f20"/>
<use data-text="C" xlink:href="#font_4_45" transform="matrix(14,0,0,-14,371.70933,742.2734)" fill="#231f20"/>
<use data-text="T" xlink:href="#font_4_279" transform="matrix(14,0,0,-14,381.4533,742.2734)" fill="#231f20"/>
<use data-text="I" xlink:href="#font_4_134" transform="matrix(14,0,0,-14,389.6713,742.2734)" fill="#231f20"/>
<use data-text="O" xlink:href="#font_4_204" transform="matrix(14,0,0,-14,394.0113,742.2734)" fill="#231f20"/>
<use data-text="N" xlink:href="#font_4_189" transform="matrix(14,0,0,-14,405.7713,742.2734)" fill="#231f20"/>
<g clip-path="url(#clip_5)">
<path transform="matrix(1,0,0,-1,92.2827,427.9561)" stroke-width="1" stroke-linecap="butt" stroke-miterlimit="10" stroke-linejoin="miter" fill="none" stroke="#231f20" d="M0 0H445.435"/>
</g>
</svg>
