<?xml version="1.0" encoding="UTF-8"?>
<svg id="Layer_2" data-name="Layer 2" xmlns="http://www.w3.org/2000/svg" viewBox="0 0 394.28 117">
  <defs>
    <style>
      .cls-1 {
        fill: #6755a4;
      }

      .cls-2 {
        fill: #386eb0;
      }

      .cls-3 {
        fill: #3cac61;
      }
    </style>
  </defs>
  <g id="Layer_1-2" data-name="Layer 1">
    <g>
      <g>
        <path class="cls-2" d="M116.78,71.69l7.39-7c3.18,3.5,6.61,5.38,11.41,5.38s7.39-1.82,7.39-4.99-2.4-4.15-8.17-6.03c-8.43-2.79-15.43-5.45-15.43-14.53s6.48-13.88,16.99-13.88c6.94,0,13.49,2.27,17.51,6.29l-7.39,6.94c-2.53-2.79-6.23-4.34-10.31-4.34s-6.42,1.75-6.42,4.54c0,3.11,2.53,3.89,8.11,5.51,7.2,2.08,15.5,5.45,15.5,14.79,0,8.5-7.2,14.59-18.03,14.59-7.07,0-13.94-2.66-18.55-7.26Z"/>
        <path class="cls-2" d="M164.44,31.81h34.24v8.88h-23.73v9.21h20.82v8.88h-20.82v10.18h23.73v8.88h-34.24V31.81Z"/>
        <path class="cls-2" d="M207.38,54.7c0-15.04,9.08-24.12,23.8-24.12,8.75,0,15.5,3.37,19.58,9.34l-8.75,5.97c-2.53-4.15-6.1-6.29-10.77-6.29-8.17,0-13.23,5.84-13.23,15.17s5.06,15.17,13.23,15.17c5.19,0,9.01-2.59,11.48-7.72l9.4,4.99c-4.09,7.78-11.48,11.74-20.88,11.74-14.79,0-23.86-9.21-23.86-24.25Z"/>
        <path class="cls-2" d="M261.72,60.28v-28.47h10.5v28.79c0,6.16,3.37,9.4,8.82,9.4s8.82-3.24,8.82-9.4v-28.79h10.51v28.47c0,12.19-7.72,18.74-19.33,18.74s-19.33-6.61-19.33-18.74Z"/>
        <path class="cls-2" d="M312.76,31.81h20.04c11.15,0,16.47,6.94,16.47,14.59,0,5.9-2.79,11.02-7.98,13.55l9.14,17.9h-11.61l-8.04-16.15h-7.52v16.15h-10.51V31.81ZM332.15,52.95c4.22,0,6.55-2.59,6.55-6.42,0-3.37-1.95-5.97-7.33-5.97h-8.11v12.39h8.88Z"/>
        <path class="cls-2" d="M360.04,31.81h34.24v8.88h-23.73v9.21h20.82v8.88h-20.82v10.18h23.73v8.88h-34.24V31.81Z"/>
      </g>
      <g>
        <path class="cls-3" d="M147.79,90.76h5.99v10.5h10.72v-10.5h5.99v26.24h-5.99v-10.64h-10.72v10.64h-5.99v-26.24Z"/>
        <path class="cls-3" d="M189.98,90.76h19.51v5.06h-13.53v5.25h11.86v5.06h-11.86v5.8h13.53v5.06h-19.51v-26.24Z"/>
        <path class="cls-3" d="M235.51,90.76h7.17l9.98,26.24h-6.32l-2.11-6.17h-10.27l-2.14,6.17h-6.21l9.9-26.24ZM242.53,105.84l-3.44-10.01-3.44,10.01h6.87Z"/>
        <path class="cls-3" d="M270.28,90.76h5.99v21.1h12.42v5.14h-18.4v-26.24Z"/>
        <path class="cls-3" d="M308.78,95.93h-8.06v-5.17h22.1v5.17h-8.06v21.07h-5.99v-21.07Z"/>
        <path class="cls-3" d="M340.48,90.76h5.99v10.5h10.72v-10.5h5.99v26.24h-5.99v-10.64h-10.72v10.64h-5.99v-26.24Z"/>
      </g>
      <g>
        <path class="cls-2" d="M49.06,108.69c-4.51,3.19-7.23,4.99-11.44,6.49C15,105.12,2.2,90.29.26,71.59c-1.12-10.77,1.46-20.8,5.03-28.6-2.16,11.65.61,21.48,8.28,29.28,10.21,12.8,28.52,19.19,45.18,19.02,1.52,6.47-4.31,13.59-9.69,17.4"/>
        <path class="cls-1" d="M84.92,94.9c0,3.32-.71,6.6-1.9,9.79-7.85,4.29-16.98,7.37-27.36,9.22-1.61.29-3.21.54-4.78.75-.03,0-.07,0-.09,0-.87.07-1.79.15-2.79.2,7.64-4.3,10.31-7.24,14.3-13.93,5.35-8.26,3.13-17.88-5.26-23.64-4.17-2.86-8.49-5.24-13.53-6.84l-14.83-4.73c-2.98-.95-6-1.52-8.04-4.11-5.11-6.46,14.47-21.09,30.36-18.03-11.81-1.13-23.38,12.75-19.3,15.12,6.75,3.92,21.46,5.28,38.34,14.9,2.88,1.64,6.09,3.64,8.93,5.95,3.96,4.68,5.95,9.81,5.94,15.32"/>
        <path class="cls-3" d="M89.29,100.19c.32-1.78.49-3.55.49-5.28,0-6.07-2-11.7-5.97-16.82,5.74-10.36,3.87-21.25-4.57-29.64-3.93-3.55-8.51-5.45-13.85-6.9,8.16-5.12,17.91-7.06,26.41-2.87,4.77,2.35,8.22,6.25,10.29,11.12,6.64,15.62-1.06,36.49-12.8,50.4"/>
        <path class="cls-2" d="M61.01,41.38c-20.04-6.69-41.42-.32-50.99,17.69-1.26-3.77-1.66-7.89-1.19-12.33v-.02c.83-4.34,2.52-8.49,5.03-12.27,3.96-5.85,9.81-9.89,17.02-11.31,13.76-2.08,25,6.12,30.13,18.24"/>
        <path class="cls-2" d="M50.21,9.58c0,5.29-4.29,9.58-9.58,9.58s-9.58-4.29-9.58-9.58S35.34,0,40.63,0s9.58,4.29,9.58,9.58"/>
        <path class="cls-3" d="M93.58,24.72c0,4.6-3.73,8.33-8.32,8.33s-8.32-3.73-8.32-8.33,3.72-8.32,8.32-8.32,8.32,3.73,8.32,8.32"/>
      </g>
    </g>
  </g>
</svg>