<?xml version="1.0" encoding="UTF-8"?>
<svg id="Layer_2" data-name="Layer 2" xmlns="http://www.w3.org/2000/svg" viewBox="0 0 299.49 143.45">
  <defs>
    <style>
      .cls-1, .cls-2 {
        font-family: DejanireHeadline-Regular, 'Dejanire Headline';
        font-size: 54.03px;
      }

      .cls-1, .cls-3 {
        fill: #3cac61;
      }

      .cls-2 {
        fill: #376cb0;
      }

      .cls-4 {
        fill: #6755a4;
      }

      .cls-5 {
        fill: #386eb0;
      }

      .cls-6 {
        letter-spacing: -.02em;
      }

      .cls-7 {
        letter-spacing: -.01em;
      }
    </style>
  </defs>
  <g id="Layer_1-2" data-name="Layer 1">
    <g>
      <text class="cls-2" transform="translate(0 129.94)"><tspan x="0" y="0">Secu</tspan><tspan class="cls-6" x="108.11" y="0">r</tspan><tspan x="125.29" y="0">e</tspan></text>
      <text class="cls-1" transform="translate(150.58 129.94)"><tspan class="cls-7" x="0" y="0">H</tspan><tspan x="39.71" y="0">ealth</tspan></text>
      <g>
        <path class="cls-5" d="M146.1,77.09c-3.2,2.27-5.13,3.53-8.11,4.6-16.04-7.14-25.12-17.66-26.49-30.92-.79-7.64,1.04-14.75,3.56-20.29-1.53,8.26.44,15.23,5.88,20.77,7.24,9.08,20.23,13.61,32.04,13.49,1.08,4.59-3.06,9.64-6.88,12.34"/>
        <path class="cls-4" d="M171.54,67.31c0,2.35-.5,4.68-1.35,6.94-5.57,3.04-12.04,5.23-19.41,6.54-1.14.21-2.28.38-3.39.54-.02,0-.05,0-.06,0-.62.05-1.27.1-1.98.14,5.42-3.05,7.31-5.13,10.14-9.88,3.79-5.86,2.22-12.68-3.73-16.77-2.96-2.03-6.02-3.72-9.59-4.85l-10.52-3.35c-2.12-.67-4.25-1.08-5.7-2.91-3.63-4.58,10.27-14.96,21.53-12.79-8.38-.8-16.58,9.04-13.69,10.73,4.79,2.78,15.22,3.75,27.2,10.57,2.04,1.16,4.32,2.58,6.33,4.22,2.81,3.32,4.22,6.96,4.21,10.86"/>
        <path class="cls-3" d="M174.64,71.06c.23-1.27.35-2.52.35-3.75,0-4.3-1.42-8.3-4.24-11.93,4.07-7.35,2.75-15.07-3.24-21.02-2.79-2.52-6.04-3.86-9.82-4.9,5.79-3.63,12.7-5.01,18.73-2.04,3.38,1.67,5.83,4.43,7.3,7.89,4.71,11.08-.75,25.88-9.08,35.74"/>
        <path class="cls-5" d="M154.58,29.35c-14.21-4.74-29.38-.23-36.16,12.55-.89-2.67-1.18-5.59-.85-8.74v-.02c.59-3.08,1.79-6.02,3.56-8.7,2.81-4.15,6.95-7.01,12.07-8.02,9.76-1.47,17.73,4.34,21.37,12.93"/>
        <path class="cls-5" d="M146.93,6.79c0,3.75-3.04,6.79-6.79,6.79s-6.79-3.04-6.79-6.79,3.04-6.79,6.79-6.79,6.79,3.04,6.79,6.79"/>
        <path class="cls-3" d="M177.68,17.53c0,3.27-2.64,5.91-5.9,5.91s-5.9-2.64-5.9-5.91,2.64-5.9,5.9-5.9,5.9,2.64,5.9,5.9"/>
      </g>
    </g>
  </g>
</svg>