<?xml version="1.0" encoding="UTF-8"?>
<svg id="Layer_2" data-name="Layer 2" xmlns="http://www.w3.org/2000/svg" viewBox="0 0 297.56 105.59">
  <defs>
    <style>
      .cls-1 {
        fill: #6755a4;
      }

      .cls-2 {
        fill: #376cb0;
      }

      .cls-3 {
        fill: #386eb0;
      }

      .cls-4 {
        fill: #3cac61;
      }
    </style>
  </defs>
  <g id="Layer_1-2" data-name="Layer 1">
    <g>
      <g>
        <path class="cls-2" d="M111.88,46.03c0-3.59-.07-7.46-.69-13.41h1.17c3.66,8.78,6.7,13.68,13.41,13.68,5.67,0,9.12-3.73,9.12-8.78s-2.76-6.84-9.33-9.54c-9.4-3.87-13.68-6.36-13.68-14.24,0-7.12,5.11-13.75,15.07-13.75,4.49,0,8.15.69,11.75,1.8.14,3.66.35,7.19.83,10.85h-1.11c-3.11-7.53-6.36-10.99-11.61-10.99-4.35,0-9.05,2.35-9.05,8.64,0,5.18,4.7,7.19,10.44,9.54,9.47,3.87,13.27,6.56,13.27,13.96,0,9.19-7.33,14.24-16.1,14.24-4.84,0-8.64-.76-13.48-2Z"/>
        <path class="cls-2" d="M154.73,27.44c-.07.62-.07,1.31-.07,2,0,10.92,4.77,14.72,11.47,14.72,2.76,0,5.6-.55,8.85-2.7l.21.35c-2.42,3.73-6.98,6.22-12.58,6.22-9.4,0-15.07-5.74-15.07-16.24,0-11.33,7.33-18.31,15.34-18.31,8.64,0,12.37,4.77,12.37,12.37v1.59h-20.53ZM154.79,26.12l13.2-.76c0-7.81-1.87-10.5-5.18-10.5-4.15,0-7.26,3.87-8.02,11.26Z"/>
        <path class="cls-2" d="M206.55,41.95c-2.63,3.87-6.98,6.08-12.03,6.08-8.71,0-14.58-5.39-14.58-16.31s6.98-18.24,16.03-18.24c6.7,0,10.64,4.29,10.5,11.2l-2.14.28c-2.97.42-4.01.14-4.63-2.42l-1.8-7.6c-.62-.07-1.11-.07-1.66-.07-6.08,0-9.19,6.5-9.19,14.86,0,10.09,4.49,14.44,11.06,14.44,2.42,0,4.98-.48,8.16-2.56l.28.35Z"/>
        <path class="cls-2" d="M244.14,45.4v.62c-4.29.69-6.84,1.31-10.02,2.21l-.55-.21-.35-5.6c-2.49,3.59-6.36,5.6-10.16,5.6-6.56,0-9.33-3.73-9.74-9.95-.21-3.04.07-16.1.07-18.45,0-1.52-.35-1.93-2.42-2.63l-1.66-.62v-.62c4.01-.55,7.53-1.17,10.5-1.87l.55.35c-.28,5.32-.55,14.44-.55,18.38,0,7.67,1.11,10.92,6.43,10.92,1.73,0,4.49-.35,6.91-2.28l.07-21.49c0-1.45-.42-1.8-2.9-2.76l-1.52-.62v-.62c3.52-.34,7.53-1.17,10.78-1.87l.55.41c-.14,3.46-.34,13.96-.34,22.94v4.15c0,2.7.28,2.97,2.76,3.59l1.59.42Z"/>
        <path class="cls-2" d="M257.61,22.74v7.53c0,3.18,0,10.02.07,11.61.14,2.83.28,3.32,3.59,4.08l1.45.35v.97c-1.87-.14-4.49-.21-8.71-.21-1.73,0-5.04.07-7.53.21v-.97l1.24-.28c2.14-.48,2.83-1.04,2.97-3.94.07-1.87.28-13.61.28-16.72v-2.21c0-2.83-.21-3.46-3.32-4.49l-1.04-.35v-.62c3.18-1.11,6.01-2.28,10.09-4.22l.62.28-.48,7.53.69.14c2.21-5.04,3.39-7.39,6.63-7.39.97,0,2.35.28,3.52.69l-.9,6.22h-7.26l-1.93,1.8Z"/>
        <path class="cls-2" d="M277.03,27.44c-.07.62-.07,1.31-.07,2,0,10.92,4.77,14.72,11.47,14.72,2.76,0,5.6-.55,8.85-2.7l.21.35c-2.42,3.73-6.98,6.22-12.58,6.22-9.4,0-15.07-5.74-15.07-16.24,0-11.33,7.33-18.31,15.34-18.31,8.64,0,12.37,4.77,12.37,12.37v1.59h-20.53ZM277.1,26.12l13.2-.76c0-7.81-1.87-10.5-5.18-10.5-4.15,0-7.26,3.87-8.02,11.26Z"/>
      </g>
      <g>
        <path class="cls-4" d="M151.14,64.75c-.14,2.42-.21,11.33-.21,16.86s0,14.51.21,16.93c.28,3.59.69,4.22,3.73,4.84l1.73.35v1.11c-7.05-.35-11.89-.42-19.07,0v-1.11l1.8-.35c2.97-.55,3.52-1.11,3.87-4.84.21-2.35.21-10.64.21-16.38h-21.49c0,5.74,0,14.03.21,16.38.35,3.73.97,4.28,3.94,4.84l1.8.35v1.11c-7.26-.42-12.09-.35-19.14,0v-1.11l1.8-.35c2.97-.55,3.46-1.24,3.73-4.84.21-2.42.21-11.33.21-16.93s-.07-14.44-.21-16.86c-.28-3.59-.76-4.21-3.73-4.84l-1.8-.35v-1.11c7.19.41,11.89.35,19.14,0v1.11l-1.8.35c-3.04.62-3.66,1.24-3.94,4.84-.14,2.21-.21,9.61-.21,15.34h21.49c0-5.53,0-13.13-.21-15.34-.21-3.59-.9-4.21-3.87-4.84l-1.8-.35v-1.11c7.26.35,11.89.41,19.07,0v1.11l-1.73.35c-2.97.62-3.52,1.24-3.73,4.84Z"/>
        <path class="cls-4" d="M167.51,85c-.07.62-.07,1.31-.07,2,0,10.92,4.77,14.72,11.47,14.72,2.76,0,5.6-.55,8.85-2.7l.21.35c-2.42,3.73-6.98,6.22-12.58,6.22-9.4,0-15.07-5.74-15.07-16.24,0-11.33,7.33-18.31,15.34-18.31,8.64,0,12.37,4.77,12.37,12.37v1.59h-20.53ZM167.58,83.68l13.2-.76c0-7.81-1.87-10.5-5.18-10.5-4.15,0-7.26,3.87-8.02,11.26Z"/>
        <path class="cls-4" d="M220.44,101.44c-1.45,2.76-4.29,4.15-6.91,4.15s-4.84-1.31-5.18-4.29c-2.21,1.66-5.11,3.59-7.33,4.29-5.46-.28-9.12-3.87-9.12-8.85s3.8-6.5,11.26-7.46l5.53-.69.14-10.99c0-3.11-2-4.08-4.98-4.08-.55,0-1.45.07-2.21.21l-.76,4.7c-.48,3.18-.83,3.59-4.21,4.08l-2.76.42c-.48-6.63,9.47-11.89,13.96-11.89,5.04,0,7.88,2.83,7.88,7.39,0,2.76-.76,17.55-.76,21.49,0,1.59,1.11,2.35,2.35,2.35.97,0,1.87-.35,2.9-1.04l.21.21ZM204.62,101.24c1.31,0,2.63-.28,4.01-.97,0-1.8.07-6.08.07-10.37l-3.46.62c-5.6,1.04-6.43,2.63-6.43,4.63,0,4.15,2.56,6.08,5.81,6.08Z"/>
        <path class="cls-4" d="M221.4,103.86l1.24-.28c2.42-.55,2.97-1.38,3.04-3.59.07-3.18.21-13.61.21-19,0-6.01,0-14.44-.14-17.69-.07-2.14-.55-2.49-3.46-3.73l-.97-.42v-.62c4.08-.83,7.6-1.94,10.92-3.11l.55.35c-.14,4.91-.28,19.63-.28,25.22,0,6.77.07,16.17.14,19,.07,2.21.55,3.11,3.04,3.66l.97.21v.97c-5.25-.21-9.54-.21-15.27,0v-.97Z"/>
        <path class="cls-4" d="M259.27,101.24c-1.87,2.76-5.46,4.35-8.98,4.35-4.84,0-7.67-2.49-7.67-7.95,0-2.56.83-18.94.83-19.63,0-.97-.28-1.11-1.87-1.52l-2.28-.55v-.62c4.08-2.97,6.57-5.04,10.16-8.22l.62.28c-.14,2.07-.28,4.21-.35,5.94h9.4v3.39h-9.4c0,4.08-.21,17.76-.21,19.9,0,3.8,1.73,5.39,4.77,5.39,1.45,0,2.9-.14,4.84-1.04l.14.28Z"/>
        <path class="cls-4" d="M296.45,103.86v.97c-2.9-.14-5.18-.21-7.39-.21-2.49,0-4.91.07-8.02.21v-.97l1.52-.35c2.7-.62,2.9-1.11,3.04-3.66.07-1.66.14-3.66.14-5.6,0-3.25-.14-6.5-.21-8.29-.28-6.43-.62-10.23-6.77-10.23-2.14,0-4.15.62-6.15,2.21v2.56c0,7.33.07,16.66.14,19.49s.62,3.25,3.52,3.73l.83.14v.97c-2.63-.14-5.11-.21-7.6-.21s-5.11.07-8.02.21v-.97l1.17-.28c2.56-.62,2.97-1.52,3.04-3.73.07-3.04.28-13.48.28-18.52,0-6.36,0-13.06-.14-18.04-.07-2.14-.48-2.63-3.46-3.73l-.97-.42v-.62c4.08-.83,7.6-1.94,10.92-3.11l.55.35c-.14,3.87-.21,14.86-.28,21.08,2.9-3.73,6.08-5.8,10.3-5.8,6.01,0,8.85,3.94,9.12,9.47.21,4.63.34,14.86.48,18.94.14,3.39.55,3.52,2.9,4.15l1.04.28Z"/>
      </g>
      <g>
        <path class="cls-3" d="M43.14,96.43c-3.96,2.81-6.36,4.38-10.06,5.71C13.19,93.28,1.94,80.24.23,63.8c-.98-9.47,1.28-18.29,4.42-25.15-1.9,10.24.54,18.89,7.28,25.75,8.98,11.25,25.08,16.88,39.73,16.73,1.34,5.69-3.79,11.95-8.52,15.3"/>
        <path class="cls-1" d="M74.68,84.3c0,2.92-.62,5.81-1.67,8.61-6.91,3.77-14.93,6.48-24.06,8.11-1.42.26-2.82.47-4.21.66-.03,0-.06,0-.08,0-.76.06-1.57.13-2.45.18,6.72-3.78,9.07-6.36,12.57-12.24,4.7-7.26,2.75-15.72-4.63-20.79-3.66-2.52-7.47-4.61-11.89-6.02l-13.04-4.15c-2.62-.83-5.27-1.34-7.07-3.61-4.5-5.68,12.73-18.55,26.7-15.86-10.38-.99-20.56,11.21-16.97,13.3,5.94,3.45,18.87,4.65,33.72,13.11,2.53,1.44,5.35,3.2,7.85,5.23,3.48,4.12,5.23,8.62,5.22,13.47"/>
        <path class="cls-4" d="M78.52,88.95c.29-1.57.43-3.12.43-4.65,0-5.34-1.76-10.29-5.25-14.79,5.05-9.11,3.41-18.69-4.02-26.07-3.46-3.12-7.48-4.79-12.18-6.07,7.18-4.51,15.75-6.21,23.22-2.52,4.19,2.07,7.23,5.49,9.05,9.78,5.84,13.73-.93,32.09-11.25,44.32"/>
        <path class="cls-3" d="M53.65,37.23c-17.63-5.88-36.43-.29-44.84,15.56-1.11-3.31-1.46-6.93-1.05-10.84v-.02c.73-3.82,2.22-7.46,4.42-10.79,3.49-5.15,8.62-8.7,14.97-9.94,12.1-1.82,21.98,5.38,26.5,16.04"/>
        <path class="cls-3" d="M44.16,9.27c0,4.65-3.77,8.42-8.42,8.42s-8.43-3.77-8.43-8.42S31.08.84,35.73.84s8.42,3.77,8.42,8.42"/>
        <path class="cls-4" d="M82.29,22.58c0,4.05-3.28,7.33-7.32,7.33s-7.32-3.28-7.32-7.33,3.27-7.32,7.32-7.32,7.32,3.28,7.32,7.32"/>
      </g>
    </g>
  </g>
</svg>