<?xml version="1.0" encoding="UTF-8"?>
<svg id="Layer_2" data-name="Layer 2" xmlns="http://www.w3.org/2000/svg" viewBox="0 0 277.37 249.96">
  <defs>
    <style>
      .cls-1 {
        fill: #6755a4;
      }

      .cls-2 {
        fill: #386eb0;
      }

      .cls-3 {
        fill: #3cac61;
      }
    </style>
  </defs>
  <g id="Layer_1-2" data-name="Layer 1">
    <g>
      <g>
        <path class="cls-2" d="M0,204.65l7.39-7c3.18,3.5,6.61,5.38,11.41,5.38s7.39-1.82,7.39-4.99-2.4-4.15-8.17-6.03c-8.43-2.79-15.43-5.45-15.43-14.53s6.48-13.88,16.99-13.88c6.94,0,13.49,2.27,17.51,6.29l-7.39,6.94c-2.53-2.79-6.23-4.34-10.31-4.34s-6.42,1.75-6.42,4.54c0,3.11,2.53,3.89,8.11,5.51,7.2,2.08,15.5,5.45,15.5,14.79,0,8.5-7.2,14.59-18.03,14.59-7.07,0-13.94-2.66-18.55-7.26Z"/>
        <path class="cls-2" d="M47.6,164.77h34.24v8.88h-23.73v9.21h20.82v8.88h-20.82v10.18h23.73v8.88h-34.24v-46.04Z"/>
        <path class="cls-2" d="M90.53,187.66c0-15.05,9.08-24.12,23.8-24.12,8.75,0,15.5,3.37,19.58,9.34l-8.75,5.97c-2.53-4.15-6.1-6.29-10.77-6.29-8.17,0-13.23,5.84-13.23,15.17s5.06,15.17,13.23,15.17c5.19,0,9.01-2.59,11.48-7.72l9.4,4.99c-4.09,7.78-11.48,11.74-20.88,11.74-14.79,0-23.86-9.21-23.86-24.25Z"/>
        <path class="cls-2" d="M144.88,193.24v-28.47h10.5v28.79c0,6.16,3.37,9.4,8.82,9.4s8.82-3.24,8.82-9.4v-28.79h10.51v28.47c0,12.19-7.72,18.74-19.33,18.74s-19.33-6.61-19.33-18.74Z"/>
        <path class="cls-2" d="M195.92,164.77h20.04c11.15,0,16.47,6.94,16.47,14.59,0,5.9-2.79,11.02-7.98,13.55l9.14,17.9h-11.61l-8.04-16.15h-7.52v16.15h-10.51v-46.04ZM215.31,185.91c4.22,0,6.55-2.59,6.55-6.42,0-3.37-1.95-5.97-7.33-5.97h-8.11v12.39h8.88Z"/>
        <path class="cls-2" d="M243.13,164.77h34.24v8.88h-23.73v9.21h20.82v8.88h-20.82v10.18h23.73v8.88h-34.24v-46.04Z"/>
      </g>
      <g>
        <path class="cls-3" d="M31.01,223.72h5.99v10.5h10.72v-10.5h5.99v26.24h-5.99v-10.64h-10.72v10.64h-5.99v-26.24Z"/>
        <path class="cls-3" d="M73.21,223.72h19.51v5.06h-13.53v5.25h11.86v5.06h-11.86v5.8h13.53v5.06h-19.51v-26.24Z"/>
        <path class="cls-3" d="M118.73,223.72h7.17l9.98,26.24h-6.32l-2.11-6.17h-10.27l-2.14,6.17h-6.21l9.9-26.24ZM125.75,238.8l-3.44-10.01-3.44,10.01h6.87Z"/>
        <path class="cls-3" d="M153.46,223.72h5.99v21.1h12.42v5.14h-18.4v-26.24Z"/>
        <path class="cls-3" d="M191.96,228.9h-8.06v-5.17h22.1v5.17h-8.06v21.07h-5.99v-21.07Z"/>
        <path class="cls-3" d="M223.7,223.72h5.99v10.5h10.72v-10.5h5.99v26.24h-5.99v-10.64h-10.72v10.64h-5.99v-26.24Z"/>
      </g>
      <g>
        <path class="cls-2" d="M134.75,134.11c-5.56,3.94-8.92,6.15-14.11,8.01-27.91-12.42-43.7-30.72-46.09-53.79-1.38-13.29,1.8-25.66,6.2-35.29-2.67,14.37.76,26.5,10.22,36.13,12.6,15.79,35.19,23.68,55.74,23.47,1.88,7.98-5.32,16.77-11.96,21.47"/>
        <path class="cls-1" d="M179,117.09c0,4.09-.87,8.15-2.34,12.08-9.69,5.29-20.95,9.09-33.76,11.38-1.99.36-3.96.66-5.9.93-.04,0-.08.01-.11.01-1.07.09-2.21.18-3.44.25,9.43-5.3,12.72-8.93,17.64-17.18,6.6-10.19,3.86-22.06-6.49-29.17-5.14-3.53-10.48-6.47-16.69-8.44l-18.3-5.83c-3.68-1.17-7.4-1.88-9.92-5.07-6.31-7.97,17.86-26.02,37.46-22.25-14.57-1.39-28.85,15.73-23.81,18.66,8.33,4.84,26.48,6.52,47.31,18.39,3.55,2.02,7.51,4.49,11.02,7.34,4.88,5.78,7.34,12.1,7.33,18.9"/>
        <path class="cls-3" d="M184.39,123.62c.4-2.2.61-4.38.61-6.52.01-7.49-2.47-14.43-7.37-20.75,7.08-12.78,4.78-26.22-5.64-36.57-4.85-4.38-10.5-6.72-17.09-8.52,10.07-6.32,22.1-8.71,32.58-3.54,5.88,2.9,10.14,7.71,12.7,13.72,8.19,19.27-1.31,45.02-15.79,62.18"/>
        <path class="cls-2" d="M149.5,51.06c-24.73-8.25-51.11-.4-62.91,21.83-1.55-4.65-2.05-9.73-1.47-15.21v-.03c1.02-5.36,3.11-10.47,6.2-15.14,4.89-7.22,12.1-12.2,21-13.95,16.98-2.56,30.84,7.55,37.18,22.5"/>
        <path class="cls-2" d="M136.18,11.82c0,6.53-5.29,11.82-11.82,11.82s-11.82-5.29-11.82-11.82S117.83,0,124.36,0s11.82,5.29,11.82,11.82"/>
        <path class="cls-3" d="M189.68,30.5c0,5.68-4.6,10.28-10.27,10.28s-10.27-4.6-10.27-10.28,4.59-10.27,10.27-10.27,10.27,4.6,10.27,10.27"/>
      </g>
    </g>
  </g>
</svg>