<?xml version="1.0" encoding="UTF-8"?>
<svg id="Layer_2" data-name="Layer 2" xmlns="http://www.w3.org/2000/svg" viewBox="0 0 465.77 81.69">
  <defs>
    <style>
      .cls-1 {
        fill: #6755a4;
      }

      .cls-2 {
        fill: #376cb0;
      }

      .cls-3 {
        fill: #386eb0;
      }

      .cls-4 {
        fill: #3cac61;
      }
    </style>
  </defs>
  <g id="Layer_1-2" data-name="Layer 1">
    <g>
      <g>
        <path class="cls-2" d="M87.9,78.11c0-3.6-.07-7.48-.69-13.43h1.18c3.67,8.79,6.72,13.71,13.43,13.71,5.68,0,9.14-3.74,9.14-8.79s-2.77-6.85-9.35-9.55c-9.42-3.88-13.71-6.37-13.71-14.26,0-7.13,5.12-13.78,15.09-13.78,4.5,0,8.17.69,11.77,1.8.14,3.67.35,7.2.83,10.87h-1.11c-3.12-7.55-6.37-11.01-11.63-11.01-4.36,0-9.07,2.35-9.07,8.65,0,5.19,4.71,7.2,10.45,9.55,9.49,3.88,13.29,6.58,13.29,13.98,0,9.21-7.34,14.26-16.13,14.26-4.85,0-8.65-.76-13.5-2.01Z"/>
        <path class="cls-2" d="M130.83,59.49c-.07.62-.07,1.32-.07,2.01,0,10.94,4.78,14.75,11.49,14.75,2.77,0,5.61-.55,8.86-2.7l.21.35c-2.42,3.74-6.99,6.23-12.6,6.23-9.42,0-15.09-5.75-15.09-16.27,0-11.35,7.34-18.35,15.37-18.35,8.65,0,12.39,4.78,12.39,12.39v1.59h-20.56ZM130.9,58.17l13.22-.76c0-7.82-1.87-10.52-5.19-10.52-4.15,0-7.27,3.88-8.03,11.28Z"/>
        <path class="cls-2" d="M182.75,74.02c-2.63,3.88-6.99,6.09-12.05,6.09-8.72,0-14.61-5.4-14.61-16.34s6.99-18.28,16.06-18.28c6.72,0,10.66,4.29,10.52,11.22l-2.15.28c-2.98.42-4.02.14-4.64-2.42l-1.8-7.62c-.62-.07-1.11-.07-1.66-.07-6.09,0-9.21,6.51-9.21,14.89,0,10.11,4.5,14.47,11.08,14.47,2.42,0,4.99-.48,8.17-2.56l.28.35Z"/>
        <path class="cls-2" d="M220.41,77.49v.62c-4.29.69-6.85,1.32-10.04,2.21l-.55-.21-.35-5.61c-2.49,3.6-6.37,5.61-10.18,5.61-6.58,0-9.35-3.74-9.76-9.97-.21-3.05.07-16.13.07-18.49,0-1.52-.35-1.94-2.42-2.63l-1.66-.62v-.62c4.02-.55,7.55-1.18,10.52-1.87l.55.35c-.28,5.33-.55,14.47-.55,18.42,0,7.69,1.11,10.94,6.44,10.94,1.73,0,4.5-.35,6.92-2.28l.07-21.53c0-1.45-.42-1.8-2.91-2.77l-1.52-.62v-.62c3.53-.35,7.55-1.18,10.8-1.87l.55.42c-.14,3.46-.35,13.99-.35,22.99v4.15c0,2.7.28,2.98,2.77,3.6l1.59.42Z"/>
        <path class="cls-2" d="M233.91,54.78v7.55c0,3.18,0,10.04.07,11.63.14,2.84.28,3.32,3.6,4.08l1.45.35v.97c-1.87-.14-4.5-.21-8.72-.21-1.73,0-5.05.07-7.55.21v-.97l1.25-.28c2.15-.48,2.84-1.04,2.98-3.95.07-1.87.28-13.64.28-16.75v-2.22c0-2.84-.21-3.46-3.32-4.5l-1.04-.35v-.62c3.18-1.11,6.02-2.28,10.11-4.22l.62.28-.48,7.55.69.14c2.22-5.05,3.39-7.41,6.65-7.41.97,0,2.35.28,3.53.69l-.9,6.23h-7.27l-1.94,1.8Z"/>
        <path class="cls-2" d="M253.3,59.49c-.07.62-.07,1.32-.07,2.01,0,10.94,4.78,14.75,11.49,14.75,2.77,0,5.61-.55,8.86-2.7l.21.35c-2.42,3.74-6.99,6.23-12.6,6.23-9.42,0-15.09-5.75-15.09-16.27,0-11.35,7.34-18.35,15.37-18.35,8.65,0,12.39,4.78,12.39,12.39v1.59h-20.56ZM253.37,58.17l13.22-.76c0-7.82-1.87-10.52-5.19-10.52-4.15,0-7.27,3.88-8.03,11.28Z"/>
      </g>
      <g>
        <path class="cls-4" d="M320.18,39.2c-.14,2.42-.21,11.35-.21,16.89s0,14.54.21,16.96c.28,3.6.69,4.22,3.74,4.85l1.73.35v1.11c-7.06-.35-11.91-.42-19.11,0v-1.11l1.8-.35c2.98-.55,3.53-1.11,3.88-4.85.21-2.35.21-10.66.21-16.41h-21.53c0,5.75,0,14.05.21,16.41.35,3.74.97,4.29,3.95,4.85l1.8.35v1.11c-7.27-.42-12.12-.35-19.18,0v-1.11l1.8-.35c2.98-.55,3.46-1.25,3.74-4.85.21-2.42.21-11.35.21-16.96s-.07-14.47-.21-16.89c-.28-3.6-.76-4.22-3.74-4.85l-1.8-.35v-1.11c7.2.42,11.91.35,19.18,0v1.11l-1.8.35c-3.05.62-3.67,1.25-3.95,4.85-.14,2.22-.21,9.62-.21,15.37h21.53c0-5.54,0-13.15-.21-15.37-.21-3.6-.9-4.22-3.88-4.85l-1.8-.35v-1.11c7.27.35,11.91.42,19.11,0v1.11l-1.73.35c-2.98.62-3.53,1.25-3.74,4.85Z"/>
        <path class="cls-4" d="M336.59,59.49c-.07.62-.07,1.32-.07,2.01,0,10.94,4.78,14.75,11.49,14.75,2.77,0,5.61-.55,8.86-2.7l.21.35c-2.42,3.74-6.99,6.23-12.6,6.23-9.42,0-15.09-5.75-15.09-16.27,0-11.35,7.34-18.35,15.37-18.35,8.65,0,12.39,4.78,12.39,12.39v1.59h-20.56ZM336.66,58.17l13.22-.76c0-7.82-1.87-10.52-5.19-10.52-4.15,0-7.27,3.88-8.03,11.28Z"/>
        <path class="cls-4" d="M389.62,75.96c-1.45,2.77-4.29,4.15-6.92,4.15s-4.85-1.32-5.19-4.29c-2.22,1.66-5.12,3.6-7.34,4.29-5.47-.28-9.14-3.88-9.14-8.86s3.81-6.51,11.28-7.48l5.54-.69.14-11.01c0-3.12-2.01-4.08-4.98-4.08-.55,0-1.45.07-2.22.21l-.76,4.71c-.49,3.18-.83,3.6-4.22,4.08l-2.77.42c-.48-6.65,9.49-11.91,13.99-11.91,5.05,0,7.89,2.84,7.89,7.41,0,2.77-.76,17.59-.76,21.53,0,1.59,1.11,2.35,2.36,2.35.97,0,1.87-.35,2.91-1.04l.21.21ZM373.76,75.76c1.32,0,2.63-.28,4.02-.97,0-1.8.07-6.09.07-10.38l-3.46.62c-5.61,1.04-6.44,2.63-6.44,4.64,0,4.15,2.56,6.09,5.81,6.09Z"/>
        <path class="cls-4" d="M390.59,78.39l1.25-.28c2.42-.55,2.98-1.39,3.05-3.6.07-3.18.21-13.64.21-19.04,0-6.02,0-14.47-.14-17.72-.07-2.15-.55-2.49-3.46-3.74l-.97-.41v-.62c4.08-.83,7.62-1.94,10.94-3.12l.55.35c-.14,4.92-.28,19.66-.28,25.27,0,6.78.07,16.2.14,19.04.07,2.22.55,3.12,3.05,3.67l.97.21v.97c-5.26-.21-9.55-.21-15.3,0v-.97Z"/>
        <path class="cls-4" d="M428.53,75.76c-1.87,2.77-5.47,4.36-9,4.36-4.85,0-7.68-2.49-7.68-7.96,0-2.56.83-18.97.83-19.66,0-.97-.28-1.11-1.87-1.52l-2.28-.55v-.62c4.08-2.98,6.58-5.05,10.18-8.24l.62.28c-.14,2.08-.28,4.22-.35,5.95h9.42v3.39h-9.42c0,4.08-.21,17.79-.21,19.94,0,3.81,1.73,5.4,4.78,5.4,1.45,0,2.91-.14,4.85-1.04l.14.28Z"/>
        <path class="cls-4" d="M465.77,78.39v.97c-2.91-.14-5.19-.21-7.41-.21-2.49,0-4.92.07-8.03.21v-.97l1.52-.35c2.7-.62,2.91-1.11,3.05-3.67.07-1.66.14-3.67.14-5.61,0-3.25-.14-6.51-.21-8.31-.28-6.44-.62-10.25-6.78-10.25-2.15,0-4.15.62-6.16,2.22v2.56c0,7.34.07,16.69.14,19.52.07,2.84.62,3.25,3.53,3.74l.83.14v.97c-2.63-.14-5.12-.21-7.62-.21s-5.12.07-8.03.21v-.97l1.18-.28c2.56-.62,2.98-1.52,3.05-3.74.07-3.05.28-13.5.28-18.55,0-6.37,0-13.09-.14-18.07-.07-2.15-.49-2.63-3.46-3.74l-.97-.41v-.62c4.08-.83,7.62-1.94,10.94-3.12l.55.35c-.14,3.88-.21,14.89-.28,21.12,2.91-3.74,6.09-5.82,10.32-5.82,6.02,0,8.86,3.95,9.14,9.49.21,4.64.35,14.89.48,18.97.14,3.39.55,3.53,2.91,4.15l1.04.28Z"/>
      </g>
    </g>
    <g>
      <path class="cls-3" d="M34.79,77.09c-3.2,2.27-5.13,3.53-8.11,4.6C10.64,74.55,1.56,64.04.19,50.77c-.79-7.64,1.04-14.75,3.56-20.29-1.53,8.26.44,15.23,5.88,20.77,7.24,9.08,20.23,13.61,32.04,13.49,1.08,4.59-3.06,9.64-6.88,12.34"/>
      <path class="cls-1" d="M60.23,67.31c0,2.35-.5,4.68-1.35,6.94-5.57,3.04-12.04,5.23-19.41,6.54-1.14.21-2.28.38-3.39.54-.02,0-.05,0-.06,0-.62.05-1.27.1-1.98.14,5.42-3.05,7.31-5.13,10.14-9.88,3.79-5.86,2.22-12.68-3.73-16.77-2.96-2.03-6.02-3.72-9.59-4.85l-10.52-3.35c-2.12-.67-4.25-1.08-5.7-2.91-3.63-4.58,10.27-14.96,21.53-12.79-8.38-.8-16.58,9.04-13.69,10.73,4.79,2.78,15.22,3.75,27.2,10.57,2.04,1.16,4.32,2.58,6.33,4.22,2.81,3.32,4.22,6.96,4.21,10.86"/>
      <path class="cls-4" d="M63.33,71.06c.23-1.27.35-2.52.35-3.75,0-4.3-1.42-8.3-4.24-11.93,4.07-7.35,2.75-15.07-3.24-21.02-2.79-2.52-6.04-3.86-9.82-4.9,5.79-3.63,12.7-5.01,18.73-2.04,3.38,1.67,5.83,4.43,7.3,7.89,4.71,11.08-.75,25.88-9.08,35.74"/>
      <path class="cls-3" d="M43.27,29.35c-14.21-4.74-29.38-.23-36.16,12.55-.89-2.67-1.18-5.59-.85-8.74v-.02c.59-3.08,1.79-6.02,3.56-8.7,2.81-4.15,6.95-7.01,12.07-8.02,9.76-1.47,17.73,4.34,21.37,12.93"/>
      <path class="cls-3" d="M35.61,6.79c0,3.75-3.04,6.79-6.79,6.79s-6.79-3.04-6.79-6.79S25.07,0,28.82,0s6.79,3.04,6.79,6.79"/>
      <path class="cls-4" d="M66.37,17.53c0,3.27-2.64,5.91-5.9,5.91s-5.9-2.64-5.9-5.91,2.64-5.9,5.9-5.9,5.9,2.64,5.9,5.9"/>
    </g>
  </g>
</svg>