<?xml version="1.0" encoding="UTF-8"?>
<svg id="Layer_2" data-name="Layer 2" xmlns="http://www.w3.org/2000/svg" viewBox="0 0 295.44 130.8">
  <defs>
    <style>
      .cls-1 {
        fill: #6755a4;
      }

      .cls-2 {
        fill: #376cb0;
      }

      .cls-3 {
        fill: #386eb0;
      }

      .cls-4 {
        fill: #3cac61;
      }
    </style>
  </defs>
  <g id="Layer_1-2" data-name="Layer 1">
    <g>
      <g>
        <path class="cls-2" d="M.54,129.07c0-2.81-.05-5.84-.54-10.48h.92c2.86,6.86,5.24,10.7,10.48,10.7,4.43,0,7.13-2.92,7.13-6.86s-2.16-5.35-7.29-7.46c-7.35-3.03-10.7-4.97-10.7-11.13,0-5.57,4-10.75,11.78-10.75,3.51,0,6.38.54,9.19,1.41.11,2.86.27,5.62.65,8.48h-.86c-2.43-5.89-4.97-8.59-9.08-8.59-3.4,0-7.08,1.84-7.08,6.75,0,4.05,3.67,5.62,8.16,7.46,7.4,3.03,10.37,5.13,10.37,10.91,0,7.19-5.73,11.13-12.59,11.13-3.78,0-6.75-.59-10.54-1.57Z"/>
        <path class="cls-2" d="M34.04,114.54c-.05.49-.05,1.03-.05,1.57,0,8.54,3.73,11.51,8.97,11.51,2.16,0,4.38-.43,6.92-2.11l.16.27c-1.89,2.92-5.46,4.86-9.83,4.86-7.35,0-11.78-4.48-11.78-12.7,0-8.86,5.73-14.32,12-14.32,6.75,0,9.67,3.73,9.67,9.67v1.24h-16.05ZM34.09,113.51l10.32-.59c0-6.11-1.46-8.21-4.05-8.21-3.24,0-5.67,3.03-6.27,8.81Z"/>
        <path class="cls-2" d="M74.56,125.89c-2.05,3.03-5.46,4.75-9.4,4.75-6.81,0-11.4-4.21-11.4-12.75s5.46-14.26,12.54-14.26c5.24,0,8.32,3.35,8.21,8.75l-1.67.22c-2.32.32-3.13.11-3.62-1.89l-1.41-5.94c-.49-.05-.86-.05-1.3-.05-4.75,0-7.19,5.08-7.19,11.62,0,7.89,3.51,11.29,8.64,11.29,1.89,0,3.89-.38,6.38-2l.22.27Z"/>
        <path class="cls-2" d="M103.95,128.59v.49c-3.35.54-5.35,1.03-7.83,1.73l-.43-.16-.27-4.38c-1.95,2.81-4.97,4.38-7.94,4.38-5.13,0-7.29-2.92-7.62-7.78-.16-2.38.05-12.59.05-14.43,0-1.19-.27-1.51-1.89-2.05l-1.3-.49v-.49c3.13-.43,5.89-.92,8.21-1.46l.43.27c-.22,4.16-.43,11.29-.43,14.37,0,6,.86,8.54,5.03,8.54,1.35,0,3.51-.27,5.4-1.78l.05-16.8c0-1.13-.32-1.4-2.27-2.16l-1.19-.49v-.49c2.76-.27,5.89-.92,8.43-1.46l.43.32c-.11,2.7-.27,10.91-.27,17.94v3.24c0,2.11.22,2.32,2.16,2.81l1.24.32Z"/>
        <path class="cls-2" d="M114.49,110.86v5.89c0,2.49,0,7.83.05,9.08.11,2.22.22,2.59,2.81,3.19l1.13.27v.76c-1.46-.11-3.51-.16-6.81-.16-1.35,0-3.94.05-5.89.16v-.76l.97-.22c1.68-.38,2.22-.81,2.32-3.08.05-1.46.22-10.64.22-13.08v-1.73c0-2.22-.16-2.7-2.59-3.51l-.81-.27v-.49c2.49-.86,4.7-1.78,7.89-3.3l.49.22-.38,5.89.54.11c1.73-3.94,2.65-5.78,5.19-5.78.76,0,1.84.22,2.75.54l-.7,4.86h-5.67l-1.51,1.4Z"/>
        <path class="cls-2" d="M129.62,114.54c-.05.49-.05,1.03-.05,1.57,0,8.54,3.73,11.51,8.97,11.51,2.16,0,4.38-.43,6.92-2.11l.16.27c-1.89,2.92-5.46,4.86-9.83,4.86-7.35,0-11.78-4.48-11.78-12.7,0-8.86,5.73-14.32,12-14.32,6.75,0,9.67,3.73,9.67,9.67v1.24h-16.05ZM129.67,113.51l10.32-.59c0-6.11-1.46-8.21-4.05-8.21-3.24,0-5.67,3.03-6.27,8.81Z"/>
      </g>
      <g>
        <path class="cls-4" d="M181.81,98.71c-.11,1.89-.16,8.86-.16,13.18s0,11.35.16,13.24c.22,2.81.54,3.3,2.92,3.78l1.35.27v.86c-5.51-.27-9.29-.32-14.91,0v-.86l1.4-.27c2.32-.43,2.76-.86,3.03-3.78.16-1.84.16-8.32.16-12.81h-16.8c0,4.48,0,10.97.16,12.81.27,2.92.76,3.35,3.08,3.78l1.41.27v.86c-5.67-.32-9.46-.27-14.97,0v-.86l1.4-.27c2.32-.43,2.7-.97,2.92-3.78.16-1.89.16-8.86.16-13.24s-.05-11.29-.16-13.18c-.22-2.81-.59-3.3-2.92-3.78l-1.4-.27v-.86c5.62.32,9.29.27,14.97,0v.86l-1.41.27c-2.38.49-2.86.97-3.08,3.78-.11,1.73-.16,7.51-.16,11.99h16.8c0-4.32,0-10.27-.16-11.99-.16-2.81-.7-3.3-3.03-3.78l-1.4-.27v-.86c5.67.27,9.29.32,14.91,0v.86l-1.35.27c-2.32.49-2.76.97-2.92,3.78Z"/>
        <path class="cls-4" d="M194.62,114.54c-.05.49-.05,1.03-.05,1.57,0,8.54,3.73,11.51,8.97,11.51,2.16,0,4.38-.43,6.92-2.11l.16.27c-1.89,2.92-5.46,4.86-9.83,4.86-7.35,0-11.78-4.48-11.78-12.7,0-8.86,5.73-14.32,12-14.32,6.75,0,9.67,3.73,9.67,9.67v1.24h-16.05ZM194.67,113.51l10.32-.59c0-6.11-1.46-8.21-4.05-8.21-3.24,0-5.67,3.03-6.27,8.81Z"/>
        <path class="cls-4" d="M236,127.4c-1.13,2.16-3.35,3.24-5.4,3.24s-3.78-1.03-4.05-3.35c-1.73,1.3-4,2.81-5.73,3.35-4.27-.22-7.13-3.03-7.13-6.92s2.97-5.08,8.81-5.84l4.32-.54.11-8.59c0-2.43-1.57-3.19-3.89-3.19-.43,0-1.13.05-1.73.16l-.59,3.67c-.38,2.49-.65,2.81-3.3,3.19l-2.16.32c-.38-5.19,7.4-9.29,10.92-9.29,3.94,0,6.16,2.22,6.16,5.78,0,2.16-.59,13.72-.59,16.8,0,1.24.87,1.84,1.84,1.84.76,0,1.46-.27,2.27-.81l.16.16ZM223.63,127.24c1.03,0,2.05-.22,3.13-.76,0-1.4.05-4.75.05-8.1l-2.7.49c-4.38.81-5.02,2.05-5.02,3.62,0,3.24,2,4.75,4.54,4.75Z"/>
        <path class="cls-4" d="M236.76,129.29l.97-.22c1.89-.43,2.32-1.08,2.38-2.81.05-2.49.16-10.64.16-14.86,0-4.7,0-11.29-.11-13.83-.05-1.67-.43-1.95-2.7-2.92l-.76-.32v-.49c3.19-.65,5.94-1.51,8.54-2.43l.43.27c-.11,3.84-.22,15.35-.22,19.72,0,5.29.05,12.64.11,14.86.05,1.73.43,2.43,2.38,2.86l.76.16v.76c-4.11-.16-7.46-.16-11.94,0v-.76Z"/>
        <path class="cls-4" d="M266.37,127.24c-1.46,2.16-4.27,3.4-7.02,3.4-3.78,0-6-1.95-6-6.21,0-2,.65-14.8.65-15.34,0-.76-.22-.86-1.46-1.19l-1.78-.43v-.49c3.19-2.32,5.13-3.94,7.94-6.43l.49.22c-.11,1.62-.22,3.3-.27,4.65h7.35v2.65h-7.35c0,3.19-.16,13.89-.16,15.56,0,2.97,1.35,4.21,3.73,4.21,1.13,0,2.27-.11,3.78-.81l.11.22Z"/>
        <path class="cls-4" d="M295.44,129.29v.76c-2.27-.11-4.05-.16-5.78-.16-1.95,0-3.84.05-6.27.16v-.76l1.19-.27c2.11-.49,2.27-.86,2.38-2.86.05-1.3.11-2.86.11-4.38,0-2.54-.11-5.08-.16-6.48-.22-5.02-.49-8-5.29-8-1.67,0-3.24.49-4.81,1.73v2c0,5.73.05,13.02.11,15.24.05,2.22.49,2.54,2.76,2.92l.65.11v.76c-2.05-.11-4-.16-5.94-.16s-4,.05-6.27.16v-.76l.92-.22c2-.49,2.32-1.19,2.38-2.92.05-2.38.22-10.54.22-14.48,0-4.97,0-10.21-.11-14.1-.05-1.67-.38-2.05-2.7-2.92l-.76-.32v-.49c3.19-.65,5.94-1.51,8.54-2.43l.43.27c-.11,3.03-.16,11.62-.22,16.48,2.27-2.92,4.75-4.54,8.05-4.54,4.7,0,6.92,3.08,7.13,7.4.16,3.62.27,11.62.38,14.8.11,2.65.43,2.76,2.27,3.24l.81.22Z"/>
      </g>
      <g>
        <path class="cls-3" d="M142.7,77.09c-3.2,2.27-5.13,3.53-8.11,4.6-16.04-7.14-25.12-17.66-26.49-30.92-.79-7.64,1.04-14.75,3.56-20.29-1.53,8.26.44,15.23,5.88,20.77,7.24,9.08,20.23,13.61,32.04,13.49,1.08,4.59-3.06,9.64-6.88,12.34"/>
        <path class="cls-1" d="M168.14,67.31c0,2.35-.5,4.68-1.35,6.94-5.57,3.04-12.04,5.23-19.41,6.54-1.14.21-2.28.38-3.39.54-.02,0-.05,0-.06,0-.62.05-1.27.1-1.98.14,5.42-3.05,7.31-5.13,10.14-9.88,3.79-5.86,2.22-12.68-3.73-16.77-2.96-2.03-6.02-3.72-9.59-4.85l-10.52-3.35c-2.12-.67-4.25-1.08-5.7-2.91-3.63-4.58,10.27-14.96,21.53-12.79-8.38-.8-16.58,9.04-13.69,10.73,4.79,2.78,15.22,3.75,27.2,10.57,2.04,1.16,4.32,2.58,6.33,4.22,2.81,3.32,4.22,6.96,4.21,10.86"/>
        <path class="cls-4" d="M171.23,71.06c.23-1.27.35-2.52.35-3.75,0-4.3-1.42-8.3-4.24-11.93,4.07-7.35,2.75-15.07-3.24-21.02-2.79-2.52-6.04-3.86-9.82-4.9,5.79-3.63,12.7-5.01,18.73-2.04,3.38,1.67,5.83,4.43,7.3,7.89,4.71,11.08-.75,25.88-9.08,35.74"/>
        <path class="cls-3" d="M151.18,29.35c-14.21-4.74-29.38-.23-36.16,12.55-.89-2.67-1.18-5.59-.85-8.74v-.02c.59-3.08,1.79-6.02,3.56-8.7,2.81-4.15,6.95-7.01,12.07-8.02,9.76-1.47,17.73,4.34,21.37,12.93"/>
        <path class="cls-3" d="M143.52,6.79c0,3.75-3.04,6.79-6.79,6.79s-6.79-3.04-6.79-6.79,3.04-6.79,6.79-6.79,6.79,3.04,6.79,6.79"/>
        <path class="cls-4" d="M174.27,17.53c0,3.27-2.64,5.91-5.9,5.91s-5.9-2.64-5.9-5.91,2.64-5.9,5.9-5.9,5.9,2.64,5.9,5.9"/>
      </g>
    </g>
  </g>
</svg>