<?xml version="1.0" encoding="UTF-8"?>
<svg id="Layer_2" data-name="Layer 2" xmlns="http://www.w3.org/2000/svg" viewBox="0 0 396.29 132.59">
  <defs>
    <style>
      .cls-1 {
        letter-spacing: 0em;
      }

      .cls-2 {
        fill: #6755a4;
      }

      .cls-3 {
        letter-spacing: .39em;
      }

      .cls-4 {
        letter-spacing: .38em;
      }

      .cls-5 {
        letter-spacing: .29em;
      }

      .cls-6 {
        font-size: 64.85px;
      }

      .cls-6, .cls-7 {
        fill: #386eb0;
      }

      .cls-6, .cls-8 {
        font-family: SarvatrikTamil-Bold, 'Sarvatrik Tamil';
        font-weight: 700;
      }

      .cls-9, .cls-8 {
        fill: #3cac61;
      }

      .cls-8 {
        font-size: 36.95px;
      }

      .cls-10 {
        letter-spacing: .06em;
      }

      .cls-11 {
        letter-spacing: .06em;
      }

      .cls-12 {
        letter-spacing: .06em;
      }
    </style>
  </defs>
  <g id="Layer_1-2" data-name="Layer 1">
    <g>
      <text class="cls-6" transform="translate(114.64 77.85)"><tspan class="cls-12" x="0" y="0">SE</tspan><tspan class="cls-10" x="89.75" y="0">C</tspan><tspan class="cls-11" x="143" y="0">UR</tspan><tspan class="cls-1" x="240.79" y="0">E</tspan></text>
      <text class="cls-8" transform="translate(145.16 117)"><tspan class="cls-3" x="0" y="0">HEA</tspan><tspan class="cls-5" x="122.49" y="0">L</tspan><tspan class="cls-4" x="154.75" y="0">T</tspan><tspan x="192.69" y="0">H</tspan></text>
      <g>
        <path class="cls-7" d="M49.06,108.69c-4.51,3.19-7.23,4.99-11.44,6.49C15,105.12,2.2,90.29.26,71.59c-1.12-10.77,1.46-20.8,5.03-28.6-2.16,11.65.61,21.48,8.28,29.28,10.21,12.8,28.52,19.19,45.18,19.02,1.52,6.47-4.31,13.59-9.69,17.4"/>
        <path class="cls-2" d="M84.92,94.9c0,3.32-.71,6.6-1.9,9.79-7.85,4.29-16.98,7.37-27.36,9.22-1.61.29-3.21.54-4.78.75-.03,0-.07,0-.09,0-.87.07-1.79.15-2.79.2,7.64-4.3,10.31-7.24,14.3-13.93,5.35-8.26,3.13-17.88-5.26-23.64-4.17-2.86-8.49-5.24-13.53-6.84l-14.83-4.73c-2.98-.95-6-1.52-8.04-4.11-5.11-6.46,14.47-21.09,30.36-18.03-11.81-1.13-23.38,12.75-19.3,15.12,6.75,3.92,21.46,5.28,38.34,14.9,2.88,1.64,6.09,3.64,8.93,5.95,3.96,4.68,5.95,9.81,5.94,15.32"/>
        <path class="cls-9" d="M89.29,100.19c.32-1.78.49-3.55.49-5.28,0-6.07-2-11.7-5.97-16.82,5.74-10.36,3.87-21.25-4.57-29.64-3.93-3.55-8.51-5.45-13.85-6.9,8.16-5.12,17.91-7.06,26.41-2.87,4.77,2.35,8.22,6.25,10.29,11.12,6.64,15.62-1.06,36.49-12.8,50.4"/>
        <path class="cls-7" d="M61.01,41.38c-20.04-6.69-41.42-.32-50.99,17.69-1.26-3.77-1.66-7.89-1.19-12.33v-.02c.83-4.34,2.52-8.49,5.03-12.27,3.96-5.85,9.81-9.89,17.02-11.31,13.76-2.08,25,6.12,30.13,18.24"/>
        <path class="cls-7" d="M50.21,9.58c0,5.29-4.29,9.58-9.58,9.58s-9.58-4.29-9.58-9.58S35.34,0,40.63,0s9.58,4.29,9.58,9.58"/>
        <path class="cls-9" d="M93.58,24.72c0,4.6-3.73,8.33-8.32,8.33s-8.32-3.73-8.32-8.33,3.72-8.32,8.32-8.32,8.32,3.73,8.32,8.32"/>
      </g>
    </g>
  </g>
</svg>