<?xml version="1.0" encoding="UTF-8"?>
<svg id="Layer_2" data-name="Layer 2" xmlns="http://www.w3.org/2000/svg" viewBox="0 0 367.58 75.39">
  <defs>
    <style>
      .cls-1, .cls-2 {
        font-family: DejanireHeadline-Regular, 'Dejanire Headline';
        font-size: 54.03px;
      }

      .cls-1, .cls-3 {
        fill: #3cac61;
      }

      .cls-2 {
        fill: #376cb0;
      }

      .cls-4 {
        fill: #6755a4;
      }

      .cls-5 {
        fill: #386eb0;
      }

      .cls-6 {
        letter-spacing: -.02em;
      }

      .cls-7 {
        letter-spacing: -.01em;
      }
    </style>
  </defs>
  <g id="Layer_1-2" data-name="Layer 1">
    <g>
      <text class="cls-2" transform="translate(68.09 61.88)"><tspan x="0" y="0">Secu</tspan><tspan class="cls-6" x="108.11" y="0">r</tspan><tspan x="125.29" y="0">e</tspan></text>
      <text class="cls-1" transform="translate(218.67 61.88)"><tspan class="cls-7" x="0" y="0">H</tspan><tspan x="39.71" y="0">ealth</tspan></text>
      <g>
        <path class="cls-5" d="M27.5,60.92c-2.53,1.79-4.05,2.79-6.41,3.64C8.41,58.92,1.23,50.61.15,40.13c-.63-6.04.82-11.66,2.82-16.03-1.21,6.53.35,12.04,4.64,16.41,5.72,7.17,15.99,10.76,25.32,10.66.85,3.62-2.42,7.62-5.43,9.75"/>
        <path class="cls-4" d="M47.6,53.19c0,1.86-.4,3.7-1.06,5.49-4.4,2.4-9.52,4.13-15.34,5.17-.9.16-1.8.3-2.68.42-.02,0-.04,0-.05,0-.49.04-1,.08-1.56.11,4.28-2.41,5.78-4.06,8.01-7.8,3-4.63,1.75-10.02-2.95-13.25-2.34-1.6-4.76-2.94-7.58-3.83l-8.31-2.65c-1.67-.53-3.36-.86-4.51-2.3-2.87-3.62,8.11-11.82,17.02-10.11-6.62-.63-13.11,7.15-10.82,8.48,3.78,2.2,12.03,2.96,21.49,8.35,1.61.92,3.41,2.04,5.01,3.33,2.22,2.63,3.34,5.5,3.33,8.59"/>
        <path class="cls-3" d="M50.05,56.16c.18-1,.28-1.99.28-2.96,0-3.4-1.12-6.55-3.35-9.43,3.22-5.81,2.17-11.91-2.56-16.61-2.2-1.99-4.77-3.05-7.76-3.87,4.57-2.87,10.04-3.96,14.8-1.61,2.67,1.32,4.61,3.5,5.77,6.23,3.72,8.75-.6,20.45-7.17,28.25"/>
        <path class="cls-5" d="M34.2,23.2c-11.23-3.75-23.22-.18-28.58,9.92-.7-2.11-.93-4.42-.67-6.91h0c.46-2.45,1.41-4.77,2.82-6.89,2.22-3.28,5.5-5.54,9.54-6.34,7.71-1.16,14.01,3.43,16.89,10.22"/>
        <path class="cls-5" d="M28.15,5.37c0,2.97-2.4,5.37-5.37,5.37s-5.37-2.4-5.37-5.37S19.81,0,22.78,0s5.37,2.4,5.37,5.37"/>
        <path class="cls-3" d="M52.45,13.86c0,2.58-2.09,4.67-4.66,4.67s-4.67-2.09-4.67-4.67,2.08-4.66,4.67-4.66,4.66,2.09,4.66,4.66"/>
      </g>
    </g>
  </g>
</svg>