<?xml version="1.0" encoding="UTF-8"?>
<svg id="Layer_2" data-name="Layer 2" xmlns="http://www.w3.org/2000/svg" viewBox="0 0 299.56 133.57">
  <defs>
    <style>
      .cls-1, .cls-2 {
        font-family: DejanireHeadline-Regular, 'Dejanire Headline';
        font-size: 69.1px;
      }

      .cls-1, .cls-3 {
        fill: #3cac61;
      }

      .cls-2 {
        fill: #376cb0;
      }

      .cls-4 {
        fill: #6755a4;
      }

      .cls-5 {
        fill: #386eb0;
      }

      .cls-6 {
        letter-spacing: -.01em;
      }

      .cls-7 {
        letter-spacing: -.01em;
      }
    </style>
  </defs>
  <g id="Layer_1-2" data-name="Layer 1">
    <g>
      <text class="cls-2" transform="translate(106.84 58.73)"><tspan x="0" y="0">Secu</tspan><tspan class="cls-6" x="138.27" y="0">r</tspan><tspan x="160.31" y="0">e</tspan></text>
      <text class="cls-1" transform="translate(106.84 116.29)"><tspan class="cls-7" x="0" y="0">H</tspan><tspan x="50.79" y="0">ealth</tspan></text>
      <g>
        <path class="cls-5" d="M43.14,108.03c-3.96,2.81-6.36,4.38-10.06,5.71C13.19,104.89,1.94,91.84.23,75.4c-.98-9.47,1.28-18.29,4.42-25.15-1.9,10.24.54,18.89,7.28,25.75,8.98,11.25,25.08,16.88,39.73,16.73,1.34,5.69-3.79,11.95-8.52,15.3"/>
        <path class="cls-4" d="M74.68,95.9c0,2.92-.62,5.81-1.67,8.61-6.91,3.77-14.93,6.48-24.06,8.11-1.42.26-2.82.47-4.21.66-.03,0-.06,0-.08,0-.76.06-1.57.13-2.45.18,6.72-3.78,9.07-6.36,12.57-12.24,4.7-7.26,2.75-15.72-4.63-20.79-3.66-2.52-7.47-4.61-11.89-6.02l-13.04-4.15c-2.62-.83-5.27-1.34-7.07-3.61-4.5-5.68,12.73-18.55,26.7-15.86-10.38-.99-20.56,11.21-16.97,13.3,5.94,3.45,18.87,4.65,33.72,13.11,2.53,1.44,5.35,3.2,7.85,5.23,3.48,4.12,5.23,8.62,5.22,13.47"/>
        <path class="cls-3" d="M78.52,100.55c.29-1.57.43-3.12.43-4.65,0-5.34-1.76-10.29-5.25-14.79,5.05-9.11,3.41-18.69-4.02-26.07-3.46-3.12-7.48-4.79-12.18-6.07,7.18-4.51,15.75-6.21,23.22-2.52,4.19,2.07,7.23,5.49,9.05,9.78,5.84,13.73-.93,32.09-11.25,44.32"/>
        <path class="cls-5" d="M53.65,48.84c-17.63-5.88-36.43-.29-44.84,15.56-1.11-3.31-1.46-6.93-1.05-10.84v-.02c.73-3.82,2.22-7.46,4.42-10.79,3.49-5.15,8.62-8.7,14.97-9.94,12.1-1.82,21.98,5.38,26.5,16.04"/>
        <path class="cls-5" d="M44.16,20.87c0,4.65-3.77,8.42-8.42,8.42s-8.43-3.77-8.43-8.42,3.77-8.42,8.43-8.42,8.42,3.77,8.42,8.42"/>
        <path class="cls-3" d="M82.29,34.18c0,4.05-3.28,7.33-7.32,7.33s-7.32-3.28-7.32-7.33,3.27-7.32,7.32-7.32,7.32,3.28,7.32,7.32"/>
      </g>
    </g>
  </g>
</svg>