<?xml version="1.0" encoding="UTF-8"?>
<svg id="Layer_2" data-name="Layer 2" xmlns="http://www.w3.org/2000/svg" viewBox="0 0 281.52 265.55">
  <defs>
    <style>
      .cls-1 {
        fill: #6755a4;
      }

      .cls-2 {
        letter-spacing: .39em;
      }

      .cls-3 {
        letter-spacing: .38em;
      }

      .cls-4 {
        letter-spacing: .29em;
      }

      .cls-5 {
        font-size: 64.85px;
      }

      .cls-5, .cls-6 {
        fill: #386eb0;
      }

      .cls-5, .cls-7 {
        font-family: SarvatrikTamil-Bold, 'Sarvatrik Tamil';
        font-weight: 700;
      }

      .cls-8, .cls-7 {
        fill: #3cac61;
      }

      .cls-7 {
        font-size: 36.95px;
      }

      .cls-9 {
        letter-spacing: .06em;
      }

      .cls-10 {
        letter-spacing: .06em;
      }
    </style>
  </defs>
  <g id="Layer_1-2" data-name="Layer 1">
    <g>
      <text class="cls-5" transform="translate(0 210.82)"><tspan class="cls-9" x="0" y="0">S</tspan><tspan class="cls-10" x="45.14" y="0">E</tspan><tspan class="cls-9" x="89.69" y="0">C</tspan><tspan class="cls-10" x="142.93" y="0">U</tspan><tspan class="cls-9" x="193.45" y="0">R</tspan><tspan x="240.66" y="0">E</tspan></text>
      <text class="cls-7" transform="translate(30.52 249.96)"><tspan class="cls-2" x="0" y="0">HE</tspan><tspan class="cls-3" x="79.74" y="0">A</tspan><tspan class="cls-4" x="122.45" y="0">L</tspan><tspan class="cls-2" x="154.71" y="0">T</tspan><tspan x="192.69" y="0">H</tspan></text>
      <g>
        <path class="cls-6" d="M136.89,134.11c-5.56,3.94-8.92,6.15-14.11,8.01-27.91-12.42-43.7-30.72-46.09-53.79-1.38-13.29,1.8-25.66,6.2-35.29-2.67,14.37.76,26.5,10.22,36.13,12.6,15.79,35.19,23.68,55.74,23.47,1.88,7.98-5.32,16.77-11.96,21.47"/>
        <path class="cls-1" d="M181.14,117.09c0,4.09-.87,8.15-2.34,12.08-9.69,5.29-20.95,9.09-33.76,11.38-1.99.36-3.96.66-5.9.93-.04,0-.08.01-.11.01-1.07.09-2.21.18-3.44.25,9.43-5.3,12.72-8.93,17.64-17.18,6.6-10.19,3.86-22.06-6.49-29.17-5.14-3.53-10.48-6.47-16.69-8.44l-18.3-5.83c-3.68-1.17-7.4-1.88-9.92-5.07-6.31-7.97,17.86-26.02,37.46-22.25-14.57-1.39-28.85,15.73-23.81,18.66,8.33,4.84,26.48,6.52,47.31,18.39,3.55,2.02,7.51,4.49,11.02,7.34,4.88,5.78,7.34,12.1,7.33,18.9"/>
        <path class="cls-8" d="M186.53,123.62c.4-2.2.61-4.38.61-6.52.01-7.49-2.47-14.43-7.37-20.75,7.08-12.78,4.78-26.22-5.64-36.57-4.85-4.38-10.5-6.72-17.09-8.52,10.07-6.32,22.1-8.71,32.58-3.54,5.88,2.9,10.14,7.71,12.7,13.72,8.19,19.27-1.31,45.02-15.79,62.18"/>
        <path class="cls-6" d="M151.64,51.06c-24.73-8.25-51.11-.4-62.91,21.83-1.55-4.65-2.05-9.73-1.47-15.21v-.03c1.02-5.36,3.11-10.47,6.2-15.14,4.89-7.22,12.1-12.2,21-13.95,16.98-2.56,30.84,7.55,37.18,22.5"/>
        <path class="cls-6" d="M138.32,11.82c0,6.53-5.29,11.82-11.82,11.82s-11.82-5.29-11.82-11.82S119.97,0,126.5,0s11.82,5.29,11.82,11.82"/>
        <path class="cls-8" d="M191.82,30.5c0,5.68-4.6,10.28-10.27,10.28s-10.27-4.6-10.27-10.28,4.59-10.27,10.27-10.27,10.27,4.6,10.27,10.27"/>
      </g>
    </g>
  </g>
</svg>