<?xml version="1.0" encoding="UTF-8"?>
<svg id="Layer_2" data-name="Layer 2" xmlns="http://www.w3.org/2000/svg" viewBox="0 0 213.3 279.52">
  <defs>
    <style>
      .cls-1 {
        fill: #37ab56;
      }

      .cls-2, .cls-3 {
        fill: #223167;
      }

      .cls-4 {
        fill: #2972b9;
      }

      .cls-5 {
        letter-spacing: .39em;
      }

      .cls-6 {
        letter-spacing: .39em;
      }

      .cls-7 {
        letter-spacing: .29em;
      }

      .cls-8 {
        fill: #31a752;
        font-size: 27.98px;
      }

      .cls-8, .cls-3 {
        font-family: SarvatrikTamil-Bold, 'Sarvatrik Tamil';
        font-weight: 700;
      }

      .cls-9 {
        fill: #6654a2;
      }

      .cls-10 {
        letter-spacing: 0em;
      }

      .cls-11 {
        letter-spacing: 0em;
      }

      .cls-3 {
        font-size: 49.11px;
      }

      .cls-12 {
        letter-spacing: .06em;
      }

      .cls-13 {
        letter-spacing: .06em;
      }
    </style>
  </defs>
  <g id="Layer_1-2" data-name="Layer 1">
    <g>
      <g>
        <path class="cls-2" d="M180.89,24.37c-18.86-9.87-39.2-16.49-60.01-21.09-5.87-1.35-11.38-2.56-17.43-3.28-26.47,4.6-52.76,11.96-76.48,24.42-1.98,21.53-4.01,42.86-1.75,64.25,1.63,16.39,6.26,30.31,15.17,44.01l-2.11,9.75-5.75,25.66,31.43-10.26c1.62-.53,2.74-.61,4.41.38,11.14,6.66,22.94,11.04,35.52,14.18,10.9-2.78,21.23-6.16,31.01-11.56,9.42-5.19,18-11.31,25.16-19.24,11.75-13.01,18.27-26.85,21.41-44.14,4.01-24.2,1.61-48.46-.58-73.08ZM166.88,101.43c-8.1,31.64-32.37,49.29-62.96,57.18-11.61-3.07-22.47-7.46-32.53-14.11-1.33-.88-2.2-1.55-3.67-1.06l-18.17,6,4.69-20.54c-8.24-11-13.36-23.53-15.14-37.19-2.92-19.38-1.08-39.04.48-58.71,20.37-9.73,42.08-15.51,64.3-19.62,22.35,4.06,43.75,9.86,64.42,19.56,1.69,22.67,4.08,46.32-1.42,68.49Z"/>
        <path class="cls-4" d="M112.76,80.6c0,4.88-3.96,8.84-8.84,8.84s-8.84-3.96-8.84-8.84,3.96-8.84,8.84-8.84,8.84,3.96,8.84,8.84"/>
        <path class="cls-9" d="M146.35,80.58c0,4.89-3.96,8.85-8.85,8.85s-8.85-3.96-8.85-8.85,3.96-8.85,8.85-8.85,8.85,3.96,8.85,8.85"/>
        <path class="cls-1" d="M79.26,80.59c0,4.9-3.98,8.88-8.88,8.88s-8.88-3.98-8.88-8.88,3.97-8.88,8.88-8.88,8.88,3.98,8.88,8.88"/>
      </g>
      <text class="cls-3" transform="translate(0 238.07)"><tspan class="cls-13" x="0" y="0">SECU</tspan><tspan class="cls-12" x="146.61" y="0">R</tspan><tspan class="cls-10" x="182.36" y="0">E</tspan></text>
      <text class="cls-8" transform="translate(20.09 267.71)"><tspan class="cls-6" x="0" y="0">H</tspan><tspan class="cls-5" x="31.93" y="0">E</tspan><tspan class="cls-6" x="60.36" y="0">A</tspan><tspan class="cls-7" x="92.71" y="0">L</tspan><tspan class="cls-5" x="117.14" y="0">T</tspan><tspan class="cls-11" x="145.91" y="0">H</tspan></text>
    </g>
  </g>
</svg>