<?xml version="1.0" encoding="UTF-8"?>
<svg id="Layer_2" data-name="Layer 2" xmlns="http://www.w3.org/2000/svg" viewBox="0 0 293.08 86.49">
  <defs>
    <style>
      .cls-1 {
        fill: #37ab56;
      }

      .cls-2, .cls-3 {
        fill: #223167;
      }

      .cls-4 {
        fill: #2972b9;
      }

      .cls-5 {
        letter-spacing: .39em;
      }

      .cls-6 {
        letter-spacing: .39em;
      }

      .cls-7 {
        letter-spacing: .39em;
      }

      .cls-8 {
        letter-spacing: .29em;
      }

      .cls-9 {
        fill: #31a752;
        font-size: 27.98px;
      }

      .cls-9, .cls-3 {
        font-family: SarvatrikTamil-Bold, 'Sarvatrik Tamil';
        font-weight: 700;
      }

      .cls-10 {
        fill: #6654a2;
      }

      .cls-11 {
        letter-spacing: 0em;
      }

      .cls-3 {
        font-size: 49.11px;
      }

      .cls-12 {
        letter-spacing: .06em;
      }

      .cls-13 {
        letter-spacing: .06em;
      }
    </style>
  </defs>
  <g id="Layer_1-2" data-name="Layer 1">
    <g>
      <g>
        <path class="cls-2" d="M69.65,10.84c-8.39-4.39-17.43-7.33-26.68-9.38-2.61-.6-5.06-1.14-7.75-1.46C23.45,2.05,11.77,5.32,1.22,10.86.34,20.43-.56,29.91.44,39.42c.73,7.29,2.79,13.48,6.75,19.57l-.94,4.33-2.56,11.41,13.98-4.56c.71-.24,1.21-.27,1.95.17,4.96,2.96,10.2,4.91,15.79,6.3,4.85-1.23,9.44-2.74,13.79-5.14,4.19-2.31,8-5.02,11.19-8.55,5.22-5.79,8.12-11.94,9.52-19.62,1.78-10.76.71-21.55-.26-32.49ZM63.42,45.09c-3.6,14.07-14.39,21.92-27.99,25.42-5.16-1.36-9.99-3.31-14.46-6.27-.59-.39-.98-.69-1.63-.47l-8.08,2.67,2.08-9.13c-3.66-4.89-5.94-10.46-6.73-16.54-1.29-8.61-.48-17.35.22-26.09,9.05-4.33,18.71-6.9,28.58-8.73,9.94,1.81,19.45,4.38,28.64,8.7.75,10.07,1.82,20.59-.63,30.44Z"/>
        <path class="cls-4" d="M39.36,35.83c0,2.17-1.76,3.93-3.93,3.93s-3.93-1.76-3.93-3.93,1.76-3.93,3.93-3.93,3.93,1.76,3.93,3.93"/>
        <path class="cls-10" d="M54.29,35.83c0,2.17-1.76,3.93-3.93,3.93s-3.93-1.76-3.93-3.93,1.76-3.93,3.93-3.93,3.93,1.76,3.93,3.93"/>
        <path class="cls-1" d="M24.47,35.83c0,2.18-1.77,3.95-3.95,3.95s-3.95-1.77-3.95-3.95,1.77-3.95,3.95-3.95,3.95,1.77,3.95,3.95"/>
      </g>
      <text class="cls-3" transform="translate(79.83 45.03)"><tspan class="cls-12" x="0" y="0">S</tspan><tspan class="cls-13" x="34.18" y="0">E</tspan><tspan class="cls-12" x="67.92" y="0">C</tspan><tspan class="cls-13" x="108.25" y="0">UR</tspan><tspan class="cls-11" x="182.31" y="0">E</tspan></text>
      <text class="cls-9" transform="translate(99.92 74.68)"><tspan class="cls-7" x="0" y="0">H</tspan><tspan class="cls-6" x="31.93" y="0">E</tspan><tspan class="cls-7" x="60.36" y="0">A</tspan><tspan class="cls-8" x="92.71" y="0">L</tspan><tspan class="cls-5" x="117.14" y="0">T</tspan><tspan x="145.91" y="0">H</tspan></text>
    </g>
  </g>
</svg>