<?xml version="1.0" encoding="UTF-8"?>
<svg id="Layer_2" data-name="Layer 2" xmlns="http://www.w3.org/2000/svg" viewBox="0 0 210.16 267.71">
  <defs>
    <style>
      .cls-1 {
        fill: #37ab56;
      }

      .cls-2 {
        fill: #223167;
      }

      .cls-3 {
        fill: #2972b9;
      }

      .cls-4 {
        fill: #31a752;
      }

      .cls-5 {
        fill: #6654a2;
      }
    </style>
  </defs>
  <g id="Layer_1-2" data-name="Layer 1">
    <g>
      <g>
        <path class="cls-2" d="M179.26,24.37c-18.86-9.87-39.2-16.49-60.01-21.09-5.87-1.35-11.38-2.56-17.43-3.28-26.47,4.6-52.76,11.96-76.48,24.42-1.98,21.53-4.01,42.86-1.75,64.25,1.63,16.39,6.26,30.31,15.17,44.01l-2.11,9.75-5.75,25.66,31.43-10.26c1.62-.53,2.74-.61,4.41.38,11.14,6.66,22.94,11.04,35.52,14.18,10.9-2.78,21.23-6.16,31.01-11.56,9.42-5.19,18-11.31,25.16-19.24,11.75-13.01,18.27-26.85,21.41-44.14,4.01-24.2,1.61-48.46-.58-73.08ZM165.25,101.43c-8.1,31.64-32.37,49.29-62.96,57.18-11.61-3.07-22.47-7.46-32.53-14.11-1.33-.88-2.2-1.55-3.67-1.06l-18.17,6,4.69-20.54c-8.24-11-13.36-23.53-15.14-37.19-2.92-19.38-1.08-39.04.48-58.71,20.37-9.73,42.08-15.51,64.3-19.62,22.35,4.06,43.75,9.86,64.42,19.56,1.69,22.67,4.08,46.32-1.42,68.49Z"/>
        <path class="cls-3" d="M111.14,80.6c0,4.88-3.96,8.84-8.84,8.84s-8.84-3.96-8.84-8.84,3.96-8.84,8.84-8.84,8.84,3.96,8.84,8.84"/>
        <path class="cls-5" d="M144.73,80.58c0,4.89-3.96,8.85-8.85,8.85s-8.85-3.96-8.85-8.85,3.96-8.85,8.85-8.85,8.85,3.96,8.85,8.85"/>
        <path class="cls-1" d="M77.64,80.59c0,4.9-3.98,8.88-8.88,8.88s-8.88-3.98-8.88-8.88,3.97-8.88,8.88-8.88,8.88,3.98,8.88,8.88"/>
      </g>
      <g>
        <path class="cls-2" d="M0,233.4l5.6-5.3c2.41,2.65,5.01,4.08,8.64,4.08s5.6-1.38,5.6-3.78-1.82-3.14-6.19-4.57c-6.38-2.11-11.69-4.13-11.69-11s4.91-10.51,12.87-10.51c5.26,0,10.22,1.72,13.26,4.76l-5.6,5.25c-1.92-2.11-4.72-3.29-7.81-3.29s-4.86,1.33-4.86,3.44c0,2.36,1.92,2.95,6.14,4.18,5.45,1.57,11.74,4.13,11.74,11.2,0,6.43-5.45,11.05-13.65,11.05-5.35,0-10.56-2.01-14.05-5.5Z"/>
        <path class="cls-2" d="M36.1,203.19h25.93v6.73h-17.98v6.97h15.77v6.73h-15.77v7.71h17.98v6.73h-25.93v-34.87Z"/>
        <path class="cls-2" d="M68.61,220.53c0-11.4,6.88-18.27,18.03-18.27,6.63,0,11.74,2.55,14.83,7.07l-6.63,4.52c-1.92-3.14-4.62-4.76-8.15-4.76-6.19,0-10.02,4.42-10.02,11.49s3.83,11.49,10.02,11.49c3.93,0,6.83-1.96,8.69-5.85l7.12,3.78c-3.09,5.89-8.69,8.89-15.82,8.89-11.2,0-18.08-6.97-18.08-18.37Z"/>
        <path class="cls-2" d="M109.82,224.75v-21.56h7.96v21.81c0,4.67,2.55,7.12,6.68,7.12s6.68-2.46,6.68-7.12v-21.81h7.96v21.56c0,9.23-5.85,14.19-14.64,14.19s-14.64-5.01-14.64-14.19Z"/>
        <path class="cls-2" d="M148.47,203.19h15.18c8.45,0,12.48,5.26,12.48,11.05,0,4.47-2.11,8.35-6.04,10.27l6.93,13.56h-8.79l-6.09-12.23h-5.7v12.23h-7.96v-34.87ZM163.16,219.2c3.19,0,4.96-1.96,4.96-4.86,0-2.55-1.47-4.52-5.55-4.52h-6.14v9.38h6.73Z"/>
        <path class="cls-2" d="M184.23,203.19h25.93v6.73h-17.98v6.97h15.77v6.73h-15.77v7.71h17.98v6.73h-25.93v-34.87Z"/>
      </g>
      <g>
        <path class="cls-4" d="M20.46,247.84h4.53v7.95h8.12v-7.95h4.53v19.87h-4.53v-8.06h-8.12v8.06h-4.53v-19.87Z"/>
        <path class="cls-4" d="M52.39,247.84h14.78v3.83h-10.24v3.97h8.98v3.83h-8.98v4.39h10.24v3.83h-14.78v-19.87Z"/>
        <path class="cls-4" d="M86.86,247.84h5.43l7.56,19.87h-4.79l-1.6-4.67h-7.78l-1.62,4.67h-4.7l7.5-19.87ZM92.18,259.26l-2.6-7.58-2.6,7.58h5.21Z"/>
        <path class="cls-4" d="M113.17,247.84h4.53v15.98h9.4v3.89h-13.94v-19.87Z"/>
        <path class="cls-4" d="M142.33,251.76h-6.1v-3.92h16.74v3.92h-6.1v15.95h-4.53v-15.95Z"/>
        <path class="cls-4" d="M166.37,247.84h4.53v7.95h8.12v-7.95h4.53v19.87h-4.53v-8.06h-8.12v8.06h-4.53v-19.87Z"/>
      </g>
    </g>
  </g>
</svg>