<?xml version="1.0" encoding="UTF-8"?>
<svg id="Layer_2" data-name="Layer 2" xmlns="http://www.w3.org/2000/svg" viewBox="0 0 291.56 76.64">
  <defs>
    <style>
      .cls-1 {
        fill: #37ab56;
      }

      .cls-2 {
        fill: #223167;
      }

      .cls-3 {
        fill: #2972b9;
      }

      .cls-4 {
        fill: #31a752;
      }

      .cls-5 {
        fill: #6654a2;
      }
    </style>
  </defs>
  <g id="Layer_1-2" data-name="Layer 1">
    <g>
      <g>
        <path class="cls-2" d="M69.65,10.84c-8.39-4.39-17.43-7.33-26.68-9.38-2.61-.6-5.06-1.14-7.75-1.46C23.45,2.05,11.77,5.32,1.22,10.86.34,20.43-.56,29.91.44,39.42c.73,7.29,2.79,13.48,6.75,19.57l-.94,4.33-2.56,11.41,13.98-4.56c.71-.24,1.21-.27,1.95.17,4.96,2.96,10.2,4.91,15.79,6.3,4.85-1.23,9.44-2.74,13.79-5.14,4.19-2.31,8-5.02,11.19-8.55,5.22-5.79,8.12-11.94,9.52-19.62,1.78-10.76.71-21.55-.26-32.49ZM63.42,45.09c-3.6,14.07-14.39,21.92-27.99,25.42-5.16-1.36-9.99-3.31-14.46-6.27-.59-.39-.98-.69-1.63-.47l-8.08,2.67,2.08-9.13c-3.66-4.89-5.94-10.46-6.73-16.54-1.29-8.61-.48-17.35.22-26.09,9.05-4.33,18.71-6.9,28.58-8.73,9.94,1.81,19.45,4.38,28.64,8.7.75,10.07,1.82,20.59-.63,30.44Z"/>
        <path class="cls-3" d="M39.36,35.83c0,2.17-1.76,3.93-3.93,3.93s-3.93-1.76-3.93-3.93,1.76-3.93,3.93-3.93,3.93,1.76,3.93,3.93"/>
        <path class="cls-5" d="M54.29,35.83c0,2.17-1.76,3.93-3.93,3.93s-3.93-1.76-3.93-3.93,1.76-3.93,3.93-3.93,3.93,1.76,3.93,3.93"/>
        <path class="cls-1" d="M24.47,35.83c0,2.18-1.77,3.95-3.95,3.95s-3.95-1.77-3.95-3.95,1.77-3.95,3.95-3.95,3.95,1.77,3.95,3.95"/>
      </g>
      <g>
        <path class="cls-2" d="M81.45,40.36l5.6-5.3c2.41,2.65,5.01,4.08,8.64,4.08s5.6-1.38,5.6-3.78-1.82-3.14-6.19-4.57c-6.38-2.11-11.69-4.13-11.69-11s4.91-10.51,12.87-10.51c5.26,0,10.22,1.72,13.26,4.76l-5.6,5.25c-1.92-2.11-4.72-3.29-7.81-3.29s-4.86,1.33-4.86,3.44c0,2.36,1.92,2.95,6.14,4.18,5.45,1.57,11.74,4.13,11.74,11.2,0,6.43-5.45,11.05-13.65,11.05-5.35,0-10.56-2.01-14.05-5.5Z"/>
        <path class="cls-2" d="M117.5,10.16h25.93v6.73h-17.98v6.97h15.77v6.73h-15.77v7.71h17.98v6.73h-25.93V10.16Z"/>
        <path class="cls-2" d="M150.01,27.5c0-11.4,6.88-18.27,18.03-18.27,6.63,0,11.74,2.55,14.83,7.07l-6.63,4.52c-1.92-3.14-4.62-4.76-8.15-4.76-6.19,0-10.02,4.42-10.02,11.49s3.83,11.49,10.02,11.49c3.93,0,6.83-1.96,8.69-5.85l7.12,3.78c-3.09,5.89-8.69,8.89-15.82,8.89-11.2,0-18.08-6.97-18.08-18.37Z"/>
        <path class="cls-2" d="M191.17,31.72V10.16h7.96v21.81c0,4.67,2.55,7.12,6.68,7.12s6.68-2.46,6.68-7.12V10.16h7.96v21.56c0,9.23-5.85,14.19-14.64,14.19s-14.64-5.01-14.64-14.19Z"/>
        <path class="cls-2" d="M229.82,10.16h15.18c8.45,0,12.48,5.26,12.48,11.05,0,4.47-2.11,8.35-6.04,10.27l6.93,13.56h-8.79l-6.09-12.23h-5.7v12.23h-7.96V10.16ZM244.51,26.17c3.19,0,4.96-1.96,4.96-4.86,0-2.55-1.47-4.52-5.55-4.52h-6.14v9.38h6.73Z"/>
        <path class="cls-2" d="M265.63,10.16h25.93v6.73h-17.98v6.97h15.77v6.73h-15.77v7.71h17.98v6.73h-25.93V10.16Z"/>
      </g>
      <g>
        <path class="cls-4" d="M101.91,54.81h4.53v7.95h8.12v-7.95h4.53v19.87h-4.53v-8.06h-8.12v8.06h-4.53v-19.87Z"/>
        <path class="cls-4" d="M133.84,54.81h14.78v3.83h-10.24v3.97h8.98v3.83h-8.98v4.39h10.24v3.83h-14.78v-19.87Z"/>
        <path class="cls-4" d="M168.31,54.81h5.43l7.56,19.87h-4.79l-1.6-4.67h-7.78l-1.62,4.67h-4.7l7.5-19.87ZM173.63,66.23l-2.6-7.58-2.6,7.58h5.21Z"/>
        <path class="cls-4" d="M194.62,54.81h4.53v15.98h9.4v3.89h-13.94v-19.87Z"/>
        <path class="cls-4" d="M223.78,58.73h-6.1v-3.92h16.74v3.92h-6.1v15.95h-4.53v-15.95Z"/>
        <path class="cls-4" d="M247.81,54.81h4.53v7.95h8.12v-7.95h4.53v19.87h-4.53v-8.06h-8.12v8.06h-4.53v-19.87Z"/>
      </g>
    </g>
  </g>
</svg>