<?xml version="1.0" encoding="UTF-8"?>
<svg id="Layer_2" data-name="Layer 2" xmlns="http://www.w3.org/2000/svg" viewBox="0 0 329.52 282.46">
  <defs>
    <style>
      .cls-1 {
        fill: #0e72b4;
      }

      .cls-2 {
        fill: #3cac61;
      }
    </style>
  </defs>
  <g id="Layer_1-2" data-name="Layer 1">
    <g>
      <g>
        <path class="cls-2" d="M210.32,203.81l12.92,22.61-22.48-12.7c-13.52,12.03-29.47,20.23-47.52,22.67l-12.98,46.07-4.21-14.36-7.65-31.64c-18.66-2.41-35.45-10.38-49.55-22.97l-22.69,12.91,12.95-22.47c-11.59-13.55-19.51-29.8-22.08-47.84L0,142.66l46.88-11.76c2.12-18.28,9.62-35.12,21.59-49.55l-13.49-23.29,22.92,13.31c13.87-12.08,30.15-20.52,48.97-23.28L139.99,0l12.25,48.1c18.59,2.78,35.46,10.79,49.31,23.26l22.62-13.19-13.15,22.7h-27.38c-8.51-6.4-18.41-10.94-29.42-13.43l2.46,13.43h-18.25l.17-54.69-10.67,40.72c-13.94,2.44-26.35,8.83-37.24,18.2l6.71,5.65c-3.39,3.78-5.83,8.42-6.93,13.56l-8.17-10.53c-8.15,9.88-13.58,21.06-15.83,32.95l23.33-4.41v21.24l-64.88.45,40.77,11.1c2.27,13.06,7.88,24.93,16.67,35.71l8.58-10.28c1.35,4.8,3.89,9.11,7.28,12.59l-7.43,6.28c9.64,8.46,20.98,14.81,33.98,17.53l-2.49-14.81h19.31l.16,54.34,11.21-39.02c12.29-2.31,23.52-7.58,33.11-15.32h25.58l-1.33,1.68Z"/>
        <path class="cls-1" d="M47.62,109.86c-1.99,6.12-3.83,11.58-4.16,17.84l-4.58,1.56c-5.33-26.43-6.69-53.53-3.58-80.45l93.85-24.77-3.19,12.8-79.82,21.25c-1.52,17.44-.75,34.24,1.48,51.77"/>
        <path class="cls-1" d="M245.59,80.87h-11.74c.22-7.56.08-15.12-.56-22.74l-79.91-21.24-3.13-12.95,93.82,24.96c1.32,10.62,1.78,21.27,1.52,31.97"/>
        <path class="cls-1" d="M125.88,243.13l3.35,16c-17.35-8.88-32.57-20.99-44.85-35.52,10.79,7.3,21.5,11.71,33.43,15.01l8.07,4.5Z"/>
        <path class="cls-1" d="M151.53,259.12l3.23-16.11,6.99-4.39c11.68-2.35,21.63-7.91,32.43-13.89-11.74,14.41-26.29,25.07-42.64,34.39"/>
      </g>
      <g>
        <path class="cls-1" d="M128.46,137.43c-2.91,0-5.72-.39-8.4-1.17-2.69-.78-4.85-1.79-6.48-3.04l2.86-6.35c1.53,1.11,3.37,2.02,5.52,2.73,2.15.71,4.32,1.07,6.5,1.07,1.67,0,3.01-.17,4.03-.52,1.02-.35,1.78-.81,2.26-1.38.49-.57.73-1.24.73-2,0-.97-.38-1.74-1.14-2.32-.76-.57-1.78-1.04-3.04-1.41-1.27-.36-2.65-.71-4.14-1.04-1.49-.33-2.99-.73-4.5-1.2s-2.9-1.09-4.16-1.87c-1.27-.78-2.27-1.8-3.02-3.07-.75-1.27-1.12-2.85-1.12-4.76,0-2.08.55-3.98,1.67-5.7,1.11-1.72,2.8-3.09,5.07-4.11,2.27-1.02,5.13-1.54,8.56-1.54,2.29,0,4.55.28,6.79.83,2.24.56,4.19,1.35,5.85,2.39l-2.65,6.35c-1.63-.94-3.31-1.64-5.05-2.11s-3.4-.7-5-.7-3,.18-4.01.55-1.74.86-2.21,1.48c-.47.62-.7,1.32-.7,2.08,0,.97.38,1.75,1.15,2.34.76.59,1.77,1.05,3.02,1.38,1.25.33,2.64.66,4.16.99,1.53.33,3.04.74,4.53,1.22,1.49.49,2.86,1.1,4.11,1.85,1.25.75,2.26,1.75,3.04,3.02.78,1.27,1.17,2.84,1.17,4.71,0,2.05-.56,3.92-1.69,5.62-1.13,1.7-2.84,3.07-5.12,4.11-2.29,1.04-5.15,1.56-8.59,1.56Z"/>
        <path class="cls-1" d="M149.64,136.8v-36.42h27.53v6.76h-19.15v22.9h19.83v6.76h-28.2ZM157.39,121.61v-6.61h17.54v6.61h-17.54Z"/>
        <path class="cls-1" d="M201.98,137.43c-2.81,0-5.42-.46-7.83-1.38-2.41-.92-4.5-2.23-6.27-3.93-1.77-1.7-3.15-3.69-4.14-5.98-.99-2.29-1.48-4.8-1.48-7.54s.49-5.26,1.48-7.54c.99-2.29,2.38-4.28,4.16-5.98,1.79-1.7,3.88-3.01,6.3-3.93,2.41-.92,5.02-1.38,7.83-1.38,3.16,0,6.02.55,8.58,1.64s4.72,2.7,6.45,4.81l-5.46,5c-1.21-1.42-2.59-2.5-4.14-3.23-1.54-.73-3.22-1.09-5.02-1.09-1.7,0-3.26.29-4.68.86s-2.65,1.38-3.69,2.42c-1.04,1.04-1.85,2.27-2.42,3.69-.57,1.42-.86,3-.86,4.74s.29,3.31.86,4.73c.57,1.42,1.38,2.65,2.42,3.69,1.04,1.04,2.27,1.85,3.69,2.42s2.98.86,4.68.86c1.8,0,3.48-.37,5.02-1.12,1.54-.75,2.92-1.83,4.14-3.25l5.46,5c-1.73,2.12-3.88,3.73-6.45,4.84s-5.45,1.67-8.64,1.67Z"/>
        <path class="cls-1" d="M238.25,137.43c-5.17,0-9.21-1.44-12.12-4.32-2.91-2.88-4.37-7.01-4.37-12.38v-20.35h8.48v20.14c0,3.43.71,5.92,2.13,7.47,1.42,1.54,3.4,2.32,5.93,2.32s4.56-.77,5.98-2.32c1.42-1.54,2.13-4.03,2.13-7.47v-20.14h8.27v20.35c0,5.38-1.46,9.51-4.37,12.38-2.91,2.88-6.94,4.32-12.07,4.32Z"/>
        <path class="cls-1" d="M263.07,136.8v-36.42h15.56c5.06,0,9,1.17,11.81,3.51,2.81,2.34,4.21,5.56,4.21,9.65,0,2.74-.64,5.09-1.92,7.05-1.28,1.96-3.11,3.45-5.46,4.47-2.36,1.02-5.17,1.54-8.43,1.54h-11.13l3.85-3.64v13.84h-8.48ZM271.55,123.9l-3.85-4.01h10.67c2.57,0,4.51-.55,5.83-1.67,1.32-1.11,1.98-2.67,1.98-4.68s-.66-3.56-1.98-4.66-3.26-1.64-5.83-1.64h-10.67l3.85-4.01v20.66ZM286.28,136.8l-9.16-13.22h9.05l9.16,13.22h-9.05Z"/>
        <path class="cls-1" d="M301.31,136.8v-36.42h27.53v6.76h-19.15v22.9h19.83v6.76h-28.2ZM309.07,121.61v-6.61h17.54v6.61h-17.54Z"/>
      </g>
      <g>
        <path class="cls-2" d="M114,182.27v-37.25h8.68v37.25h-8.68ZM121.98,166.99v-7.29h18.2v7.29h-18.2ZM139.54,182.27v-37.25h8.62v37.25h-8.62Z"/>
        <path class="cls-2" d="M157,182.27v-37.25h28.15v6.92h-19.58v23.42h20.28v6.92h-28.85ZM164.93,166.72v-6.76h17.93v6.76h-17.93Z"/>
        <path class="cls-2" d="M187.81,182.27l16.55-37.25h8.52l16.71,37.25h-9.05l-13.68-32.89h3.46l-13.68,32.89h-8.83ZM196.17,174.28l2.18-6.55h19.27l2.24,6.55h-23.68Z"/>
        <path class="cls-2" d="M233.48,182.27v-37.25h8.68v30.23h18.57v7.02h-27.25Z"/>
        <path class="cls-2" d="M269.4,182.27v-30.23h-11.92v-7.02h32.46v7.02h-11.92v30.23h-8.62Z"/>
        <path class="cls-2" d="M294.57,182.27v-37.25h8.68v37.25h-8.68ZM302.56,166.99v-7.29h18.2v7.29h-18.2ZM320.12,182.27v-37.25h8.62v37.25h-8.62Z"/>
      </g>
    </g>
  </g>
</svg>