<?xml version="1.0" encoding="UTF-8"?>
<svg id="Layer_2" data-name="Layer 2" xmlns="http://www.w3.org/2000/svg" viewBox="0 0 333.16 282.46">
  <defs>
    <style>
      .cls-1, .cls-2 {
        fill: #0e72b4;
      }

      .cls-2 {
        font-size: 52.03px;
      }

      .cls-2, .cls-3 {
        font-family: Montserrat-Bold, Montserrat;
        font-variation-settings: 'wght' 700;
        font-weight: 700;
      }

      .cls-3 {
        font-size: 53.22px;
      }

      .cls-3, .cls-4 {
        fill: #3cac61;
      }

      .cls-5 {
        letter-spacing: -.07em;
      }

      .cls-6 {
        letter-spacing: 0em;
      }
    </style>
  </defs>
  <g id="Layer_1-2" data-name="Layer 1">
    <g>
      <g>
        <path class="cls-4" d="M210.32,203.81l12.92,22.61-22.48-12.7c-13.52,12.03-29.47,20.23-47.52,22.67l-12.98,46.07-4.21-14.36-7.65-31.64c-18.66-2.41-35.45-10.38-49.55-22.97l-22.69,12.91,12.95-22.47c-11.59-13.55-19.51-29.8-22.08-47.84L0,142.66l46.88-11.76c2.12-18.28,9.62-35.12,21.59-49.55l-13.49-23.29,22.92,13.31c13.87-12.08,30.15-20.52,48.97-23.28L139.99,0l12.25,48.1c18.59,2.78,35.46,10.79,49.31,23.26l22.62-13.19-13.15,22.7h-27.38c-8.51-6.4-18.41-10.94-29.42-13.43l2.46,13.43h-18.25l.17-54.69-10.67,40.72c-13.94,2.44-26.35,8.83-37.24,18.2l6.71,5.65c-3.39,3.78-5.83,8.42-6.93,13.56l-8.17-10.53c-8.15,9.88-13.58,21.06-15.83,32.95l23.33-4.41v21.24l-64.88.45,40.77,11.1c2.27,13.06,7.88,24.93,16.67,35.71l8.58-10.28c1.35,4.8,3.89,9.11,7.28,12.59l-7.43,6.28c9.64,8.46,20.98,14.81,33.98,17.53l-2.49-14.81h19.31l.16,54.34,11.21-39.02c12.29-2.31,23.52-7.58,33.11-15.32h25.58l-1.33,1.68Z"/>
        <path class="cls-1" d="M47.62,109.86c-1.99,6.12-3.83,11.58-4.16,17.84l-4.58,1.56c-5.33-26.43-6.69-53.53-3.58-80.45l93.85-24.77-3.19,12.8-79.82,21.25c-1.52,17.44-.75,34.24,1.48,51.77"/>
        <path class="cls-1" d="M245.59,80.87h-11.74c.22-7.56.08-15.12-.56-22.74l-79.91-21.24-3.13-12.95,93.82,24.96c1.32,10.62,1.78,21.27,1.52,31.97"/>
        <path class="cls-1" d="M125.88,243.13l3.35,16c-17.35-8.88-32.57-20.99-44.85-35.52,10.79,7.3,21.5,11.71,33.43,15.01l8.07,4.5Z"/>
        <path class="cls-1" d="M151.53,259.12l3.23-16.11,6.99-4.39c11.68-2.35,21.63-7.91,32.43-13.89-11.74,14.41-26.29,25.07-42.64,34.39"/>
      </g>
      <text class="cls-2" transform="translate(112.12 136.8)"><tspan x="0" y="0">SE</tspan><tspan class="cls-6" x="68.11" y="0">C</tspan><tspan x="105.63" y="0">URE</tspan></text>
      <text class="cls-3" transform="translate(109.58 182.27)"><tspan x="0" y="0">HEA</tspan><tspan class="cls-5" x="119.48" y="0">L</tspan><tspan x="147.69" y="0">TH</tspan></text>
    </g>
  </g>
</svg>