<?xml version="1.0" encoding="UTF-8"?>
<svg id="Layer_2" data-name="Layer 2" xmlns="http://www.w3.org/2000/svg" viewBox="0 0 408.52 109.9">
  <defs>
    <style>
      .cls-1 {
        fill: #0e72b4;
      }

      .cls-2 {
        fill: #3cac61;
      }
    </style>
  </defs>
  <g id="Layer_1-2" data-name="Layer 1">
    <g>
      <g>
        <path class="cls-2" d="M81.83,79.3l5.03,8.8-8.75-4.94c-5.26,4.68-11.47,7.87-18.49,8.82l-5.05,17.93-1.64-5.59-2.98-12.31c-7.26-.94-13.79-4.04-19.28-8.94l-8.83,5.02,5.04-8.74c-4.51-5.27-7.59-11.6-8.59-18.61L0,55.51l18.24-4.57c.82-7.11,3.74-13.67,8.4-19.28l-5.25-9.06,8.92,5.18c5.4-4.7,11.73-7.99,19.05-9.06L54.47,0l4.77,18.71c7.23,1.08,13.8,4.2,19.19,9.05l8.8-5.13-5.12,8.83h-10.65c-3.31-2.49-7.16-4.26-11.45-5.23l.96,5.23h-7.1l.07-21.28-4.15,15.84c-5.42.95-10.25,3.44-14.49,7.08l2.61,2.2c-1.32,1.47-2.27,3.28-2.7,5.28l-3.18-4.1c-3.17,3.84-5.28,8.19-6.16,12.82l9.08-1.72v8.26l-25.24.18,15.86,4.32c.88,5.08,3.07,9.7,6.49,13.89l3.34-4c.53,1.87,1.51,3.54,2.83,4.9l-2.89,2.44c3.75,3.29,8.16,5.76,13.22,6.82l-.97-5.76h7.51l.06,21.14,4.36-15.18c4.78-.9,9.15-2.95,12.88-5.96h9.95l-.52.65Z"/>
        <path class="cls-1" d="M18.53,42.74c-.77,2.38-1.49,4.51-1.62,6.94l-1.78.6c-2.07-10.28-2.6-20.83-1.39-31.3l36.52-9.64-1.24,4.98-31.06,8.27c-.59,6.78-.29,13.32.58,20.14"/>
        <path class="cls-1" d="M95.56,31.47h-4.57c.09-2.94.03-5.88-.22-8.85l-31.09-8.26-1.22-5.04,36.5,9.71c.51,4.13.69,8.28.59,12.44"/>
        <path class="cls-1" d="M48.98,94.6l1.3,6.23c-6.75-3.46-12.67-8.17-17.45-13.82,4.2,2.84,8.37,4.55,13.01,5.84l3.14,1.75Z"/>
        <path class="cls-1" d="M58.96,100.82l1.26-6.27,2.72-1.71c4.54-.91,8.41-3.08,12.62-5.4-4.57,5.61-10.23,9.76-16.59,13.38"/>
      </g>
      <g>
        <path class="cls-1" d="M55.28,70.9c-2.44,0-4.78-.33-7.02-.98-2.25-.65-4.05-1.5-5.42-2.54l2.39-5.31c1.28.93,2.81,1.69,4.61,2.28,1.8.59,3.61.89,5.44.89,1.39,0,2.52-.14,3.37-.43s1.49-.67,1.89-1.15c.41-.48.61-1.04.61-1.67,0-.81-.32-1.46-.96-1.94s-1.49-.87-2.54-1.17c-1.06-.3-2.21-.59-3.46-.87-1.25-.28-2.5-.61-3.76-1-1.26-.39-2.42-.91-3.48-1.57s-1.9-1.51-2.52-2.57c-.62-1.06-.94-2.38-.94-3.98,0-1.74.46-3.33,1.39-4.76.93-1.44,2.34-2.58,4.24-3.44,1.9-.85,4.29-1.28,7.16-1.28,1.91,0,3.81.23,5.68.7,1.87.46,3.5,1.13,4.89,2l-2.22,5.31c-1.36-.78-2.77-1.37-4.22-1.76s-2.84-.59-4.18-.59-2.51.15-3.35.46c-.84.3-1.46.72-1.85,1.24-.39.52-.59,1.1-.59,1.74,0,.81.32,1.46.96,1.96.64.49,1.48.88,2.52,1.15,1.04.28,2.2.55,3.48.83,1.28.28,2.54.62,3.78,1.02,1.25.41,2.39.92,3.44,1.54,1.04.62,1.89,1.46,2.54,2.52s.98,2.37.98,3.94c0,1.71-.47,3.28-1.41,4.7-.94,1.42-2.37,2.57-4.28,3.44-1.91.87-4.31,1.31-7.18,1.31Z"/>
        <path class="cls-1" d="M72.98,70.37v-30.45h23.01v5.65h-16.01v19.14h16.57v5.65h-23.58ZM79.47,57.67v-5.52h14.66v5.52h-14.66Z"/>
        <path class="cls-1" d="M116.74,70.9c-2.35,0-4.53-.38-6.55-1.15-2.02-.77-3.76-1.86-5.24-3.28-1.48-1.42-2.63-3.09-3.46-5-.83-1.91-1.24-4.02-1.24-6.31s.41-4.39,1.24-6.31c.83-1.91,1.99-3.58,3.48-5,1.49-1.42,3.25-2.51,5.26-3.28s4.2-1.15,6.55-1.15c2.64,0,5.03.46,7.18,1.37,2.15.91,3.94,2.25,5.39,4.02l-4.57,4.18c-1.02-1.19-2.17-2.09-3.46-2.7-1.29-.61-2.69-.91-4.2-.91-1.42,0-2.73.24-3.91.72-1.19.48-2.22,1.15-3.09,2.02-.87.87-1.54,1.9-2.02,3.09-.48,1.19-.72,2.51-.72,3.96s.24,2.77.72,3.96,1.15,2.22,2.02,3.09,1.9,1.54,3.09,2.02c1.19.48,2.49.72,3.91.72,1.51,0,2.91-.31,4.2-.93,1.29-.62,2.44-1.53,3.46-2.72l4.57,4.18c-1.45,1.77-3.25,3.12-5.39,4.04-2.15.93-4.55,1.39-7.22,1.39Z"/>
        <path class="cls-1" d="M147.06,70.9c-4.32,0-7.7-1.2-10.13-3.61-2.44-2.41-3.65-5.86-3.65-10.35v-17.01h7.09v16.83c0,2.87.59,4.95,1.78,6.24,1.19,1.29,2.84,1.94,4.96,1.94s3.81-.64,5-1.94c1.19-1.29,1.78-3.37,1.78-6.24v-16.83h6.92v17.01c0,4.5-1.22,7.95-3.65,10.35-2.44,2.41-5.8,3.61-10.09,3.61Z"/>
        <path class="cls-1" d="M167.81,70.37v-30.45h13.01c4.23,0,7.53.98,9.87,2.94,2.35,1.96,3.52,4.65,3.52,8.07,0,2.29-.54,4.26-1.61,5.89-1.07,1.64-2.6,2.89-4.57,3.74-1.97.86-4.32,1.28-7.05,1.28h-9.31l3.22-3.04v11.57h-7.09ZM174.9,59.59l-3.22-3.35h8.92c2.15,0,3.77-.46,4.87-1.39,1.1-.93,1.65-2.23,1.65-3.92s-.55-2.98-1.65-3.89c-1.1-.91-2.73-1.37-4.87-1.37h-8.92l3.22-3.35v17.27ZM187.21,70.37l-7.66-11.05h7.57l7.66,11.05h-7.57Z"/>
        <path class="cls-1" d="M199.78,70.37v-30.45h23.01v5.65h-16.01v19.14h16.57v5.65h-23.58ZM206.26,57.67v-5.52h14.66v5.52h-14.66Z"/>
      </g>
      <g>
        <path class="cls-2" d="M229,70.37v-31.14h7.25v31.14h-7.25ZM235.68,57.6v-6.09h15.22v6.09h-15.22ZM250.36,70.37v-31.14h7.21v31.14h-7.21Z"/>
        <path class="cls-2" d="M264.95,70.37v-31.14h23.54v5.78h-16.37v19.58h16.95v5.78h-24.11ZM271.58,57.38v-5.65h14.99v5.65h-14.99Z"/>
        <path class="cls-2" d="M290.71,70.37l13.84-31.14h7.12l13.97,31.14h-7.56l-11.43-27.5h2.89l-11.43,27.5h-7.39ZM297.7,63.7l1.82-5.47h16.11l1.87,5.47h-19.8Z"/>
        <path class="cls-2" d="M328.88,70.37v-31.14h7.25v25.27h15.53v5.87h-22.78Z"/>
        <path class="cls-2" d="M358.91,70.37v-25.27h-9.97v-5.87h27.14v5.87h-9.97v25.27h-7.21Z"/>
        <path class="cls-2" d="M379.96,70.37v-31.14h7.25v31.14h-7.25ZM386.63,57.6v-6.09h15.22v6.09h-15.22ZM401.31,70.37v-31.14h7.21v31.14h-7.21Z"/>
      </g>
    </g>
  </g>
</svg>