<?xml version="1.0" encoding="UTF-8"?>
<svg id="Layer_2" data-name="Layer 2" xmlns="http://www.w3.org/2000/svg" viewBox="0 0 412.21 109.9">
  <defs>
    <style>
      .cls-1 {
        font-size: 44.49px;
      }

      .cls-1, .cls-2 {
        fill: #3cac61;
      }

      .cls-1, .cls-3 {
        font-family: Montserrat-Bold, Montserrat;
        font-variation-settings: 'wght' 700;
        font-weight: 700;
      }

      .cls-4, .cls-3 {
        fill: #0e72b4;
      }

      .cls-5 {
        letter-spacing: 0em;
      }

      .cls-3 {
        font-size: 43.5px;
      }

      .cls-6 {
        letter-spacing: -.07em;
      }

      .cls-7 {
        letter-spacing: 0em;
      }
    </style>
  </defs>
  <g id="Layer_1-2" data-name="Layer 1">
    <g>
      <g>
        <path class="cls-2" d="M81.83,79.3l5.03,8.8-8.75-4.94c-5.26,4.68-11.47,7.87-18.49,8.82l-5.05,17.93-1.64-5.59-2.98-12.31c-7.26-.94-13.79-4.04-19.28-8.94l-8.83,5.02,5.04-8.74c-4.51-5.27-7.59-11.6-8.59-18.61L0,55.51l18.24-4.57c.82-7.11,3.74-13.67,8.4-19.28l-5.25-9.06,8.92,5.18c5.4-4.7,11.73-7.99,19.05-9.06L54.47,0l4.77,18.71c7.23,1.08,13.8,4.2,19.19,9.05l8.8-5.13-5.12,8.83h-10.65c-3.31-2.49-7.16-4.26-11.45-5.23l.96,5.23h-7.1l.07-21.28-4.15,15.84c-5.42.95-10.25,3.44-14.49,7.08l2.61,2.2c-1.32,1.47-2.27,3.28-2.7,5.28l-3.18-4.1c-3.17,3.84-5.28,8.19-6.16,12.82l9.08-1.72v8.26l-25.24.18,15.86,4.32c.88,5.08,3.07,9.7,6.49,13.89l3.34-4c.53,1.87,1.51,3.54,2.83,4.9l-2.89,2.44c3.75,3.29,8.16,5.76,13.22,6.82l-.97-5.76h7.51l.06,21.14,4.36-15.18c4.78-.9,9.15-2.95,12.88-5.96h9.95l-.52.65Z"/>
        <path class="cls-4" d="M18.53,42.74c-.77,2.38-1.49,4.51-1.62,6.94l-1.78.6c-2.07-10.28-2.6-20.83-1.39-31.3l36.52-9.64-1.24,4.98-31.06,8.27c-.59,6.78-.29,13.32.58,20.14"/>
        <path class="cls-4" d="M95.56,31.47h-4.57c.09-2.94.03-5.88-.22-8.85l-31.09-8.26-1.22-5.04,36.5,9.71c.51,4.13.69,8.28.59,12.44"/>
        <path class="cls-4" d="M48.98,94.6l1.3,6.23c-6.75-3.46-12.67-8.17-17.45-13.82,4.2,2.84,8.37,4.55,13.01,5.84l3.14,1.75Z"/>
        <path class="cls-4" d="M58.96,100.82l1.26-6.27,2.72-1.71c4.54-.91,8.41-3.08,12.62-5.4-4.57,5.61-10.23,9.76-16.59,13.38"/>
      </g>
      <text class="cls-3" transform="translate(41.62 70.37)"><tspan x="0" y="0">SE</tspan><tspan class="cls-7" x="56.94" y="0">C</tspan><tspan x="88.3" y="0">URE</tspan></text>
      <text class="cls-1" transform="translate(225.31 70.37)"><tspan x="0" y="0">HEA</tspan><tspan class="cls-6" x="99.88" y="0">L</tspan><tspan class="cls-5" x="123.46" y="0">TH</tspan></text>
    </g>
  </g>
</svg>